<?xml version="1.0" encoding="UTF-8" standalone="yes"?><svg xmlns="http://www.w3.org/2000/svg" xmlns:xlink="http://www.w3.org/1999/xlink" height="288pt" style="width:1040px;height:288px;" version="1.1" viewBox="0 0 1040 288" width="1040pt"><defs><filter height="300%" id="f1" width="300%" x="-1" y="-1"><feGaussianBlur result="blurOut" stdDeviation="2.0"/><feColorMatrix in="blurOut" result="blurOut2" type="matrix" values="0 0 0 0 0 0 0 0 0 0 0 0 0 0 0 0 0 0 .4 0"/><feOffset dx="4.0" dy="4.0" in="blurOut2" result="blurOut3"/><feBlend in="SourceGraphic" in2="blurOut3" mode="normal"/></filter></defs><g><rect fill="#FEFECE" filter="url(#f1)" height="62.3945" style="stroke: #A80036; stroke-width: 1.5;" width="169" x="426" y="30"/><ellipse cx="483.75" cy="46" fill="#A9DCDF" rx="11" ry="11" style="stroke: #A80036; stroke-width: 1.0;"/><path d="M487.1094,51.5 L485.7813,47.7188 L481.7656,47.7188 L480.4375,51.5 L478.1094,51.5 L482.8125,38.5938 L484.6719,38.5938 L489.4531,51.5 L487.1094,51.5 Z M485.0781,45.7031 L483.9844,42.625 Q483.5781,41.4688 483.7813,41.4219 Q483.9063,41.6406 483.5,42.6406 L482.4688,45.7031 L485.0781,45.7031 Z "/><text fill="#000000" font-family="sans-serif" font-size="12" font-style="italic" lengthAdjust="spacingAndGlyphs" textLength="45" x="504.25" y="50.6641">Analyzer</text><line style="stroke: #A80036; stroke-width: 1.5;" x1="427" x2="594" y1="62" y2="62"/><line style="stroke: #A80036; stroke-width: 1.5;" x1="427" x2="594" y1="70" y2="70"/><ellipse cx="437" cy="82.6973" fill="#84BE84" rx="3" ry="3" style="stroke: #038048; stroke-width: 1.0;"/><text fill="#000000" font-family="sans-serif" font-size="11" font-style="italic" lengthAdjust="spacingAndGlyphs" textLength="143" x="446" y="85.4727">TokenStream* tokenStream()</text><rect fill="#FEFECE" filter="url(#f1)" height="62.3945" style="stroke: #A80036; stroke-width: 1.5;" width="169" x="6" y="196"/><ellipse cx="34.95" cy="212" fill="#ADD1B2" rx="11" ry="11" style="stroke: #A80036; stroke-width: 1.0;"/><path d="M37.9344,216.0469 L37.9344,218.0625 Q36.4656,218.6406 34.6063,218.6406 Q31.9969,218.6406 30.5047,216.9688 Q29.0125,215.2969 29.0125,212.0469 Q29.0125,208.9844 30.5984,207.2578 Q32.1844,205.5313 34.8719,205.5313 Q36.8094,205.5313 38.5281,206.375 L37.5438,208.3281 Q36.0594,207.5469 34.8719,207.5469 Q33.2938,207.5469 32.2938,208.7266 Q31.2938,209.9063 31.2938,212.1094 Q31.2938,214.375 32.2,215.4922 Q33.1063,216.6094 34.8719,216.6094 Q35.8875,216.6094 37.9344,216.0469 Z "/><text fill="#000000" font-family="sans-serif" font-size="12" lengthAdjust="spacingAndGlyphs" textLength="106" x="52.05" y="216.6641">WhitespaceAnalyzer</text><line style="stroke: #A80036; stroke-width: 1.5;" x1="7" x2="174" y1="228" y2="228"/><line style="stroke: #A80036; stroke-width: 1.5;" x1="7" x2="174" y1="236" y2="236"/><ellipse cx="17" cy="248.6973" fill="#84BE84" rx="3" ry="3" style="stroke: #038048; stroke-width: 1.0;"/><text fill="#000000" font-family="sans-serif" font-size="11" lengthAdjust="spacingAndGlyphs" textLength="143" x="26" y="251.4727">TokenStream* tokenStream()</text><rect fill="#FEFECE" filter="url(#f1)" height="62.3945" style="stroke: #A80036; stroke-width: 1.5;" width="169" x="210" y="196"/><ellipse cx="250.2" cy="212" fill="#ADD1B2" rx="11" ry="11" style="stroke: #A80036; stroke-width: 1.0;"/><path d="M253.1844,216.0469 L253.1844,218.0625 Q251.7156,218.6406 249.8563,218.6406 Q247.2469,218.6406 245.7547,216.9688 Q244.2625,215.2969 244.2625,212.0469 Q244.2625,208.9844 245.8484,207.2578 Q247.4344,205.5313 250.1219,205.5313 Q252.0594,205.5313 253.7781,206.375 L252.7938,208.3281 Q251.3094,207.5469 250.1219,207.5469 Q248.5438,207.5469 247.5438,208.7266 Q246.5438,209.9063 246.5438,212.1094 Q246.5438,214.375 247.45,215.4922 Q248.3563,216.6094 250.1219,216.6094 Q251.1375,216.6094 253.1844,216.0469 Z "/><text fill="#000000" font-family="sans-serif" font-size="12" lengthAdjust="spacingAndGlyphs" textLength="81" x="269.8" y="216.6641">SimpleAnalyzer</text><line style="stroke: #A80036; stroke-width: 1.5;" x1="211" x2="378" y1="228" y2="228"/><line style="stroke: #A80036; stroke-width: 1.5;" x1="211" x2="378" y1="236" y2="236"/><ellipse cx="221" cy="248.6973" fill="#84BE84" rx="3" ry="3" style="stroke: #038048; stroke-width: 1.0;"/><text fill="#000000" font-family="sans-serif" font-size="11" lengthAdjust="spacingAndGlyphs" textLength="143" x="230" y="251.4727">TokenStream* tokenStream()</text><rect fill="#FEFECE" filter="url(#f1)" height="105.5781" style="stroke: #A80036; stroke-width: 1.5;" width="194" x="413.75" y="174"/><ellipse cx="472" cy="190" fill="#ADD1B2" rx="11" ry="11" style="stroke: #A80036; stroke-width: 1.0;"/><path d="M474.9844,194.0469 L474.9844,196.0625 Q473.5156,196.6406 471.6563,196.6406 Q469.0469,196.6406 467.5547,194.9688 Q466.0625,193.2969 466.0625,190.0469 Q466.0625,186.9844 467.6484,185.2578 Q469.2344,183.5313 471.9219,183.5313 Q473.8594,183.5313 475.5781,184.375 L474.5938,186.3281 Q473.1094,185.5469 471.9219,185.5469 Q470.3438,185.5469 469.3438,186.7266 Q468.3438,187.9063 468.3438,190.1094 Q468.3438,192.375 469.25,193.4922 Q470.1563,194.6094 471.9219,194.6094 Q472.9375,194.6094 474.9844,194.0469 Z "/><text fill="#000000" font-family="sans-serif" font-size="12" lengthAdjust="spacingAndGlyphs" textLength="69" x="492.5" y="194.6641">StopAnalyzer</text><line style="stroke: #A80036; stroke-width: 1.5;" x1="414.75" x2="606.75" y1="206" y2="206"/><rect fill="none" height="6" style="stroke: #C82930; stroke-width: 1.0;" width="6" x="421.75" y="215.6973"/><text fill="#000000" font-family="sans-serif" font-size="11" lengthAdjust="spacingAndGlyphs" textLength="115" x="433.75" y="221.4727">CLTCSetList* stopTable</text><rect fill="none" height="6" style="stroke: #C82930; stroke-width: 1.0;" width="6" x="421.75" y="230.0918"/><text fill="#000000" font-family="sans-serif" font-size="11" lengthAdjust="spacingAndGlyphs" textLength="97" x="433.75" y="235.8672">class SavedStreams</text><ellipse cx="424.75" cy="247.4863" fill="none" rx="3" ry="3" style="stroke: #038048; stroke-width: 1.0;"/><text fill="#000000" font-family="sans-serif" font-size="11" lengthAdjust="spacingAndGlyphs" text-decoration="underline" textLength="168" x="433.75" y="250.2617">TCHAR* ENGLISH_STOP_WORDS[]</text><line style="stroke: #000000; stroke-width: 1.0;" x1="433.75" x2="601.75" y1="252.2617" y2="252.2617"/><line style="stroke: #A80036; stroke-width: 1.5;" x1="414.75" x2="606.75" y1="257.1836" y2="257.1836"/><ellipse cx="424.75" cy="269.8809" fill="#84BE84" rx="3" ry="3" style="stroke: #038048; stroke-width: 1.0;"/><text fill="#000000" font-family="sans-serif" font-size="11" lengthAdjust="spacingAndGlyphs" textLength="143" x="433.75" y="272.6563">TokenStream* tokenStream()</text><rect fill="#FEFECE" filter="url(#f1)" height="91.1836" style="stroke: #A80036; stroke-width: 1.5;" width="185" x="642" y="181.5"/><ellipse cx="665.1" cy="197.5" fill="#ADD1B2" rx="11" ry="11" style="stroke: #A80036; stroke-width: 1.0;"/><path d="M668.0844,201.5469 L668.0844,203.5625 Q666.6156,204.1406 664.7563,204.1406 Q662.1469,204.1406 660.6547,202.4688 Q659.1625,200.7969 659.1625,197.5469 Q659.1625,194.4844 660.7484,192.7578 Q662.3344,191.0313 665.0219,191.0313 Q666.9594,191.0313 668.6781,191.875 L667.6938,193.8281 Q666.2094,193.0469 665.0219,193.0469 Q663.4438,193.0469 662.4438,194.2266 Q661.4438,195.4063 661.4438,197.6094 Q661.4438,199.875 662.35,200.9922 Q663.2563,202.1094 665.0219,202.1094 Q666.0375,202.1094 668.0844,201.5469 Z "/><text fill="#000000" font-family="sans-serif" font-size="12" lengthAdjust="spacingAndGlyphs" textLength="135" x="680.9" y="202.1641">PerFieldAnalyzerWrapper</text><line style="stroke: #A80036; stroke-width: 1.5;" x1="643" x2="826" y1="213.5" y2="213.5"/><rect fill="none" height="6" style="stroke: #C82930; stroke-width: 1.0;" width="6" x="650" y="223.1973"/><text fill="#000000" font-family="sans-serif" font-size="11" lengthAdjust="spacingAndGlyphs" textLength="128" x="662" y="228.9727">Analyzer* defaultAnalyzer</text><rect fill="none" height="6" style="stroke: #C82930; stroke-width: 1.0;" width="6" x="650" y="237.5918"/><text fill="#000000" font-family="sans-serif" font-size="11" lengthAdjust="spacingAndGlyphs" textLength="159" x="662" y="243.3672">AnalyzerMapType* analyzerMap</text><line style="stroke: #A80036; stroke-width: 1.5;" x1="643" x2="826" y1="250.2891" y2="250.2891"/><ellipse cx="653" cy="262.9863" fill="#84BE84" rx="3" ry="3" style="stroke: #038048; stroke-width: 1.0;"/><text fill="#000000" font-family="sans-serif" font-size="11" lengthAdjust="spacingAndGlyphs" textLength="143" x="662" y="265.7617">TokenStream* tokenStream()</text><rect fill="#FEFECE" filter="url(#f1)" height="62.3945" style="stroke: #A80036; stroke-width: 1.5;" width="169" x="862" y="196"/><ellipse cx="897.25" cy="212" fill="#ADD1B2" rx="11" ry="11" style="stroke: #A80036; stroke-width: 1.0;"/><path d="M900.2344,216.0469 L900.2344,218.0625 Q898.7656,218.6406 896.9063,218.6406 Q894.2969,218.6406 892.8047,216.9688 Q891.3125,215.2969 891.3125,212.0469 Q891.3125,208.9844 892.8984,207.2578 Q894.4844,205.5313 897.1719,205.5313 Q899.1094,205.5313 900.8281,206.375 L899.8438,208.3281 Q898.3594,207.5469 897.1719,207.5469 Q895.5938,207.5469 894.5938,208.7266 Q893.5938,209.9063 893.5938,212.1094 Q893.5938,214.375 894.5,215.4922 Q895.4063,216.6094 897.1719,216.6094 Q898.1875,216.6094 900.2344,216.0469 Z "/><text fill="#000000" font-family="sans-serif" font-size="12" lengthAdjust="spacingAndGlyphs" textLength="92" x="915.75" y="216.6641">KeywordAnalyzer</text><line style="stroke: #A80036; stroke-width: 1.5;" x1="863" x2="1030" y1="228" y2="228"/><line style="stroke: #A80036; stroke-width: 1.5;" x1="863" x2="1030" y1="236" y2="236"/><ellipse cx="873" cy="248.6973" fill="#84BE84" rx="3" ry="3" style="stroke: #038048; stroke-width: 1.0;"/><text fill="#000000" font-family="sans-serif" font-size="11" lengthAdjust="spacingAndGlyphs" textLength="143" x="882" y="251.4727">TokenStream* tokenStream()</text><rect fill="#FEFECE" filter="url(#f1)" height="105.5781" style="stroke: #A80036; stroke-width: 1.5;" width="169" x="630" y="8"/><ellipse cx="664.8" cy="24" fill="#ADD1B2" rx="11" ry="11" style="stroke: #A80036; stroke-width: 1.0;"/><path d="M667.7844,28.0469 L667.7844,30.0625 Q666.3156,30.6406 664.4563,30.6406 Q661.8469,30.6406 660.3547,28.9688 Q658.8625,27.2969 658.8625,24.0469 Q658.8625,20.9844 660.4484,19.2578 Q662.0344,17.5313 664.7219,17.5313 Q666.6594,17.5313 668.3781,18.375 L667.3938,20.3281 Q665.9094,19.5469 664.7219,19.5469 Q663.1438,19.5469 662.1438,20.7266 Q661.1438,21.9063 661.1438,24.1094 Q661.1438,26.375 662.05,27.4922 Q662.9563,28.6094 664.7219,28.6094 Q665.7375,28.6094 667.7844,28.0469 Z "/><text fill="#000000" font-family="sans-serif" font-size="12" lengthAdjust="spacingAndGlyphs" textLength="93" x="683.2" y="28.6641">StandardAnalyzer</text><line style="stroke: #A80036; stroke-width: 1.5;" x1="631" x2="798" y1="40" y2="40"/><rect fill="none" height="6" style="stroke: #C82930; stroke-width: 1.0;" width="6" x="638" y="49.6973"/><text fill="#000000" font-family="sans-serif" font-size="11" lengthAdjust="spacingAndGlyphs" textLength="104" x="650" y="55.4727">CLTCSetList* stopSet</text><rect fill="none" height="6" style="stroke: #C82930; stroke-width: 1.0;" width="6" x="638" y="64.0918"/><text fill="#000000" font-family="sans-serif" font-size="11" lengthAdjust="spacingAndGlyphs" textLength="121" x="650" y="69.8672">int32_t maxTokenLength</text><rect fill="none" height="6" style="stroke: #C82930; stroke-width: 1.0;" width="6" x="638" y="78.4863"/><text fill="#000000" font-family="sans-serif" font-size="11" lengthAdjust="spacingAndGlyphs" textLength="97" x="650" y="84.2617">class SavedStreams</text><line style="stroke: #A80036; stroke-width: 1.5;" x1="631" x2="798" y1="91.1836" y2="91.1836"/><ellipse cx="641" cy="103.8809" fill="#84BE84" rx="3" ry="3" style="stroke: #038048; stroke-width: 1.0;"/><text fill="#000000" font-family="sans-serif" font-size="11" lengthAdjust="spacingAndGlyphs" textLength="143" x="650" y="106.6563">TokenStream* tokenStream()</text><path d="M406.444,94.684 C343.65,115.407 262.424,143.912 192.25,174 C176.996,180.5403 160.841,188.3462 145.996,195.8964 " fill="none" style="stroke: #A80036; stroke-width: 1.0;"/><polygon fill="none" points="404.542,87.941,425.727,88.373,408.896,101.247,404.542,87.941" style="stroke: #A80036; stroke-width: 1.0;"/><path d="M454.694,104.182 C416.926,132.857 367.859,170.112 333.982,195.8333 " fill="none" style="stroke: #A80036; stroke-width: 1.0;"/><polygon fill="none" points="450.47,98.599,470.632,92.08,458.936,109.749,450.47,98.599" style="stroke: #A80036; stroke-width: 1.0;"/><path d="M510.25,112.262 C510.25,131.792 510.25,154.162 510.25,173.866 " fill="none" style="stroke: #A80036; stroke-width: 1.0;"/><polygon fill="none" points="503.25,112.08,510.25,92.08,517.25,112.08,503.25,112.08" style="stroke: #A80036; stroke-width: 1.0;"/><path d="M567.869,104.185 C600.128,127.804 640.335,157.241 673.143,181.2608 " fill="none" style="stroke: #A80036; stroke-width: 1.0;"/><polygon fill="none" points="563.337,109.543,551.335,92.08,571.608,98.247,563.337,109.543" style="stroke: #A80036; stroke-width: 1.0;"/><path d="M581.972,101.01 C591.989,105.734 602.27,110.218 612.25,114 C711.841,151.744 744.659,136.256 844.25,174 C860.42,180.1285 877.38,188.0972 892.726,195.9475 " fill="none" style="stroke: #A80036; stroke-width: 1.0;"/><polygon fill="none" points="578.627,107.166,563.774,92.052,584.81,94.605,578.627,107.166" style="stroke: #A80036; stroke-width: 1.0;"/><path d="M614.964,61 C619.889,61 624.813,61 629.738,61 " fill="none" style="stroke: #A80036; stroke-width: 1.0;"/><polygon fill="none" points="614.719,68,594.719,61,614.719,54,614.719,68" style="stroke: #A80036; stroke-width: 1.0;"/></g></svg>