<?xml version="1.0" encoding="UTF-8" standalone="yes"?><svg xmlns="http://www.w3.org/2000/svg" xmlns:xlink="http://www.w3.org/1999/xlink" height="244pt" style="width:1040px;height:244px;" version="1.1" viewBox="0 0 1040 244" width="1040pt"><defs><filter height="300%" id="f1" width="300%" x="-1" y="-1"><feGaussianBlur result="blurOut" stdDeviation="2.0"/><feColorMatrix in="blurOut" result="blurOut2" type="matrix" values="0 0 0 0 0 0 0 0 0 0 0 0 0 0 0 0 0 0 .4 0"/><feOffset dx="4.0" dy="4.0" in="blurOut2" result="blurOut3"/><feBlend in="SourceGraphic" in2="blurOut3" mode="normal"/></filter></defs><g><rect fill="#FEFECE" filter="url(#f1)" height="62.3945" style="stroke: #A80036; stroke-width: 1.5;" width="169" x="426" y="8"/><ellipse cx="483.75" cy="24" fill="#A9DCDF" rx="11" ry="11" style="stroke: #A80036; stroke-width: 1.0;"/><path d="M487.1094,29.5 L485.7813,25.7188 L481.7656,25.7188 L480.4375,29.5 L478.1094,29.5 L482.8125,16.5938 L484.6719,16.5938 L489.4531,29.5 L487.1094,29.5 Z M485.0781,23.7031 L483.9844,20.625 Q483.5781,19.4688 483.7813,19.4219 Q483.9063,19.6406 483.5,20.6406 L482.4688,23.7031 L485.0781,23.7031 Z "/><text fill="#000000" font-family="sans-serif" font-size="12" font-style="italic" lengthAdjust="spacingAndGlyphs" textLength="45" x="504.25" y="28.6641">Analyzer</text><line style="stroke: #A80036; stroke-width: 1.5;" x1="427" x2="594" y1="40" y2="40"/><line style="stroke: #A80036; stroke-width: 1.5;" x1="427" x2="594" y1="48" y2="48"/><ellipse cx="437" cy="60.6973" fill="#84BE84" rx="3" ry="3" style="stroke: #038048; stroke-width: 1.0;"/><text fill="#000000" font-family="sans-serif" font-size="11" font-style="italic" lengthAdjust="spacingAndGlyphs" textLength="143" x="446" y="63.4727">TokenStream* tokenStream()</text><rect fill="#FEFECE" filter="url(#f1)" height="62.3945" style="stroke: #A80036; stroke-width: 1.5;" width="169" x="6" y="152"/><ellipse cx="34.95" cy="168" fill="#ADD1B2" rx="11" ry="11" style="stroke: #A80036; stroke-width: 1.0;"/><path d="M37.9344,172.0469 L37.9344,174.0625 Q36.4656,174.6406 34.6063,174.6406 Q31.9969,174.6406 30.5047,172.9688 Q29.0125,171.2969 29.0125,168.0469 Q29.0125,164.9844 30.5984,163.2578 Q32.1844,161.5313 34.8719,161.5313 Q36.8094,161.5313 38.5281,162.375 L37.5438,164.3281 Q36.0594,163.5469 34.8719,163.5469 Q33.2938,163.5469 32.2938,164.7266 Q31.2938,165.9063 31.2938,168.1094 Q31.2938,170.375 32.2,171.4922 Q33.1063,172.6094 34.8719,172.6094 Q35.8875,172.6094 37.9344,172.0469 Z "/><text fill="#000000" font-family="sans-serif" font-size="12" lengthAdjust="spacingAndGlyphs" textLength="106" x="52.05" y="172.6641">WhitespaceAnalyzer</text><line style="stroke: #A80036; stroke-width: 1.5;" x1="7" x2="174" y1="184" y2="184"/><line style="stroke: #A80036; stroke-width: 1.5;" x1="7" x2="174" y1="192" y2="192"/><ellipse cx="17" cy="204.6973" fill="#84BE84" rx="3" ry="3" style="stroke: #038048; stroke-width: 1.0;"/><text fill="#000000" font-family="sans-serif" font-size="11" lengthAdjust="spacingAndGlyphs" textLength="143" x="26" y="207.4727">TokenStream* tokenStream()</text><rect fill="#FEFECE" filter="url(#f1)" height="62.3945" style="stroke: #A80036; stroke-width: 1.5;" width="169" x="210" y="152"/><ellipse cx="250.2" cy="168" fill="#ADD1B2" rx="11" ry="11" style="stroke: #A80036; stroke-width: 1.0;"/><path d="M253.1844,172.0469 L253.1844,174.0625 Q251.7156,174.6406 249.8563,174.6406 Q247.2469,174.6406 245.7547,172.9688 Q244.2625,171.2969 244.2625,168.0469 Q244.2625,164.9844 245.8484,163.2578 Q247.4344,161.5313 250.1219,161.5313 Q252.0594,161.5313 253.7781,162.375 L252.7938,164.3281 Q251.3094,163.5469 250.1219,163.5469 Q248.5438,163.5469 247.5438,164.7266 Q246.5438,165.9063 246.5438,168.1094 Q246.5438,170.375 247.45,171.4922 Q248.3563,172.6094 250.1219,172.6094 Q251.1375,172.6094 253.1844,172.0469 Z "/><text fill="#000000" font-family="sans-serif" font-size="12" lengthAdjust="spacingAndGlyphs" textLength="81" x="269.8" y="172.6641">SimpleAnalyzer</text><line style="stroke: #A80036; stroke-width: 1.5;" x1="211" x2="378" y1="184" y2="184"/><line style="stroke: #A80036; stroke-width: 1.5;" x1="211" x2="378" y1="192" y2="192"/><ellipse cx="221" cy="204.6973" fill="#84BE84" rx="3" ry="3" style="stroke: #038048; stroke-width: 1.0;"/><text fill="#000000" font-family="sans-serif" font-size="11" lengthAdjust="spacingAndGlyphs" textLength="143" x="230" y="207.4727">TokenStream* tokenStream()</text><rect fill="#FEFECE" filter="url(#f1)" height="105.5781" style="stroke: #A80036; stroke-width: 1.5;" width="194" x="413.75" y="130"/><ellipse cx="472" cy="146" fill="#ADD1B2" rx="11" ry="11" style="stroke: #A80036; stroke-width: 1.0;"/><path d="M474.9844,150.0469 L474.9844,152.0625 Q473.5156,152.6406 471.6563,152.6406 Q469.0469,152.6406 467.5547,150.9688 Q466.0625,149.2969 466.0625,146.0469 Q466.0625,142.9844 467.6484,141.2578 Q469.2344,139.5313 471.9219,139.5313 Q473.8594,139.5313 475.5781,140.375 L474.5938,142.3281 Q473.1094,141.5469 471.9219,141.5469 Q470.3438,141.5469 469.3438,142.7266 Q468.3438,143.9063 468.3438,146.1094 Q468.3438,148.375 469.25,149.4922 Q470.1563,150.6094 471.9219,150.6094 Q472.9375,150.6094 474.9844,150.0469 Z "/><text fill="#000000" font-family="sans-serif" font-size="12" lengthAdjust="spacingAndGlyphs" textLength="69" x="492.5" y="150.6641">StopAnalyzer</text><line style="stroke: #A80036; stroke-width: 1.5;" x1="414.75" x2="606.75" y1="162" y2="162"/><rect fill="none" height="6" style="stroke: #C82930; stroke-width: 1.0;" width="6" x="421.75" y="171.6973"/><text fill="#000000" font-family="sans-serif" font-size="11" lengthAdjust="spacingAndGlyphs" textLength="115" x="433.75" y="177.4727">CLTCSetList* stopTable</text><rect fill="none" height="6" style="stroke: #C82930; stroke-width: 1.0;" width="6" x="421.75" y="186.0918"/><text fill="#000000" font-family="sans-serif" font-size="11" lengthAdjust="spacingAndGlyphs" textLength="97" x="433.75" y="191.8672">class SavedStreams</text><ellipse cx="424.75" cy="203.4863" fill="none" rx="3" ry="3" style="stroke: #038048; stroke-width: 1.0;"/><text fill="#000000" font-family="sans-serif" font-size="11" lengthAdjust="spacingAndGlyphs" text-decoration="underline" textLength="168" x="433.75" y="206.2617">TCHAR* ENGLISH_STOP_WORDS[]</text><line style="stroke: #000000; stroke-width: 1.0;" x1="433.75" x2="601.75" y1="208.2617" y2="208.2617"/><line style="stroke: #A80036; stroke-width: 1.5;" x1="414.75" x2="606.75" y1="213.1836" y2="213.1836"/><ellipse cx="424.75" cy="225.8809" fill="#84BE84" rx="3" ry="3" style="stroke: #038048; stroke-width: 1.0;"/><text fill="#000000" font-family="sans-serif" font-size="11" lengthAdjust="spacingAndGlyphs" textLength="143" x="433.75" y="228.6563">TokenStream* tokenStream()</text><rect fill="#FEFECE" filter="url(#f1)" height="91.1836" style="stroke: #A80036; stroke-width: 1.5;" width="185" x="642" y="137.5"/><ellipse cx="665.1" cy="153.5" fill="#ADD1B2" rx="11" ry="11" style="stroke: #A80036; stroke-width: 1.0;"/><path d="M668.0844,157.5469 L668.0844,159.5625 Q666.6156,160.1406 664.7563,160.1406 Q662.1469,160.1406 660.6547,158.4688 Q659.1625,156.7969 659.1625,153.5469 Q659.1625,150.4844 660.7484,148.7578 Q662.3344,147.0313 665.0219,147.0313 Q666.9594,147.0313 668.6781,147.875 L667.6938,149.8281 Q666.2094,149.0469 665.0219,149.0469 Q663.4438,149.0469 662.4438,150.2266 Q661.4438,151.4063 661.4438,153.6094 Q661.4438,155.875 662.35,156.9922 Q663.2563,158.1094 665.0219,158.1094 Q666.0375,158.1094 668.0844,157.5469 Z "/><text fill="#000000" font-family="sans-serif" font-size="12" lengthAdjust="spacingAndGlyphs" textLength="135" x="680.9" y="158.1641">PerFieldAnalyzerWrapper</text><line style="stroke: #A80036; stroke-width: 1.5;" x1="643" x2="826" y1="169.5" y2="169.5"/><rect fill="none" height="6" style="stroke: #C82930; stroke-width: 1.0;" width="6" x="650" y="179.1973"/><text fill="#000000" font-family="sans-serif" font-size="11" lengthAdjust="spacingAndGlyphs" textLength="128" x="662" y="184.9727">Analyzer* defaultAnalyzer</text><rect fill="none" height="6" style="stroke: #C82930; stroke-width: 1.0;" width="6" x="650" y="193.5918"/><text fill="#000000" font-family="sans-serif" font-size="11" lengthAdjust="spacingAndGlyphs" textLength="159" x="662" y="199.3672">AnalyzerMapType* analyzerMap</text><line style="stroke: #A80036; stroke-width: 1.5;" x1="643" x2="826" y1="206.2891" y2="206.2891"/><ellipse cx="653" cy="218.9863" fill="#84BE84" rx="3" ry="3" style="stroke: #038048; stroke-width: 1.0;"/><text fill="#000000" font-family="sans-serif" font-size="11" lengthAdjust="spacingAndGlyphs" textLength="143" x="662" y="221.7617">TokenStream* tokenStream()</text><rect fill="#FEFECE" filter="url(#f1)" height="62.3945" style="stroke: #A80036; stroke-width: 1.5;" width="169" x="862" y="152"/><ellipse cx="897.25" cy="168" fill="#ADD1B2" rx="11" ry="11" style="stroke: #A80036; stroke-width: 1.0;"/><path d="M900.2344,172.0469 L900.2344,174.0625 Q898.7656,174.6406 896.9063,174.6406 Q894.2969,174.6406 892.8047,172.9688 Q891.3125,171.2969 891.3125,168.0469 Q891.3125,164.9844 892.8984,163.2578 Q894.4844,161.5313 897.1719,161.5313 Q899.1094,161.5313 900.8281,162.375 L899.8438,164.3281 Q898.3594,163.5469 897.1719,163.5469 Q895.5938,163.5469 894.5938,164.7266 Q893.5938,165.9063 893.5938,168.1094 Q893.5938,170.375 894.5,171.4922 Q895.4063,172.6094 897.1719,172.6094 Q898.1875,172.6094 900.2344,172.0469 Z "/><text fill="#000000" font-family="sans-serif" font-size="12" lengthAdjust="spacingAndGlyphs" textLength="92" x="915.75" y="172.6641">KeywordAnalyzer</text><line style="stroke: #A80036; stroke-width: 1.5;" x1="863" x2="1030" y1="184" y2="184"/><line style="stroke: #A80036; stroke-width: 1.5;" x1="863" x2="1030" y1="192" y2="192"/><ellipse cx="873" cy="204.6973" fill="#84BE84" rx="3" ry="3" style="stroke: #038048; stroke-width: 1.0;"/><text fill="#000000" font-family="sans-serif" font-size="11" lengthAdjust="spacingAndGlyphs" textLength="143" x="882" y="207.4727">TokenStream* tokenStream()</text><path d="M406.007,64.018 C343.096,79.855 261.901,102.693 192.25,130 C176.335,136.2393 159.602,144.155 144.397,151.9166 " fill="none" style="stroke: #A80036; stroke-width: 1.0;"/><polygon fill="none" points="404.656,57.141,425.753,59.125,408.023,70.73,404.656,57.141" style="stroke: #A80036; stroke-width: 1.0;"/><path d="M447.727,81.103 C413.302,103.734 371.335,131.324 339.992,151.9289 " fill="none" style="stroke: #A80036; stroke-width: 1.0;"/><polygon fill="none" points="443.885,75.252,464.442,70.115,451.575,86.95,443.885,75.252" style="stroke: #A80036; stroke-width: 1.0;"/><path d="M510.25,90.393 C510.25,103.186 510.25,116.957 510.25,129.836 " fill="none" style="stroke: #A80036; stroke-width: 1.0;"/><polygon fill="none" points="503.25,90.115,510.25,70.115,517.25,90.115,503.25,90.115" style="stroke: #A80036; stroke-width: 1.0;"/><path d="M574.838,80.944 C602.697,98.605 635.357,119.309 663.836,137.3626 " fill="none" style="stroke: #A80036; stroke-width: 1.0;"/><polygon fill="none" points="570.899,86.735,557.755,70.115,578.394,74.911,570.899,86.735" style="stroke: #A80036; stroke-width: 1.0;"/><path d="M614.405,62.162 C681.207,77.81 769.168,101.108 844.25,130 C860.296,136.1747 877.144,144.1134 892.42,151.9192 " fill="none" style="stroke: #A80036; stroke-width: 1.0;"/><polygon fill="none" points="612.751,68.964,594.833,57.653,615.893,55.321,612.751,68.964" style="stroke: #A80036; stroke-width: 1.0;"/></g></svg>