<?xml version="1.0" encoding="UTF-8" standalone="no"?>
<!DOCTYPE svg PUBLIC "-//W3C//DTD SVG 1.1//EN"
 "http://www.w3.org/Graphics/SVG/1.1/DTD/svg11.dtd">
<!-- Generated by graphviz version 2.36.0 (20140111.2315)
 -->
<!-- Title: core Pages: 1 -->
<svg width="166pt" height="317pt"
 viewBox="0.00 0.00 166.00 317.00" xmlns="http://www.w3.org/2000/svg" xmlns:xlink="http://www.w3.org/1999/xlink">
<g id="graph0" class="graph" transform="scale(1 1) rotate(0) translate(4 313)">
<title>core</title>
<polygon fill="white" stroke="none" points="-4,4 -4,-313 162,-313 162,4 -4,4"/>
<!-- core -->
<g id="node1" class="node"><title>core</title>
<polygon fill="none" stroke="black" points="40,-165.5 0,-165.5 0,-142.5 40,-142.5 40,-165.5"/>
<text text-anchor="middle" x="20" y="-150.3" font-family="Times,serif" font-size="14.00">core</text>
</g>
<!-- an -->
<g id="node2" class="node"><title>an</title>
<polygon fill="none" stroke="black" points="147,-309.5 87,-309.5 87,-286.5 147,-286.5 147,-309.5"/>
<text text-anchor="middle" x="117" y="-294.3" font-family="Times,serif" font-size="14.00">analysis</text>
</g>
<!-- core&#45;&gt;an -->
<g id="edge1" class="edge"><title>core&#45;&gt;an</title>
<path fill="none" stroke="black" d="M23.4758,-165.595C29.0493,-189.232 44.6171,-243.576 76,-277 77.218,-278.297 78.5343,-279.529 79.9219,-280.698"/>
<polygon fill="black" stroke="black" points="78.2677,-283.814 88.4607,-286.704 82.295,-278.088 78.2677,-283.814"/>
</g>
<!-- dbg -->
<g id="node3" class="node"><title>dbg</title>
<polygon fill="none" stroke="black" points="142,-268.5 92,-268.5 92,-245.5 142,-245.5 142,-268.5"/>
<text text-anchor="middle" x="117" y="-253.3" font-family="Times,serif" font-size="14.00">debug</text>
</g>
<!-- core&#45;&gt;dbg -->
<g id="edge2" class="edge"><title>core&#45;&gt;dbg</title>
<path fill="none" stroke="black" d="M26.3114,-165.369C34.7816,-182.504 52.7877,-215.155 76,-236 78.1884,-237.965 80.5939,-239.805 83.1061,-241.515"/>
<polygon fill="black" stroke="black" points="81.5261,-244.649 91.8972,-246.815 85.1406,-238.654 81.5261,-244.649"/>
</g>
<!-- doc -->
<g id="node4" class="node"><title>doc</title>
<polygon fill="none" stroke="black" points="152.5,-227.5 81.5,-227.5 81.5,-204.5 152.5,-204.5 152.5,-227.5"/>
<text text-anchor="middle" x="117" y="-212.3" font-family="Times,serif" font-size="14.00">document</text>
</g>
<!-- core&#45;&gt;doc -->
<g id="edge3" class="edge"><title>core&#45;&gt;doc</title>
<path fill="none" stroke="black" d="M35.0375,-165.428C45.8996,-174.031 61.4879,-185.861 76,-195 78.5718,-196.62 81.2815,-198.23 84.0284,-199.797"/>
<polygon fill="black" stroke="black" points="82.3552,-202.871 92.806,-204.612 85.7218,-196.734 82.3552,-202.871"/>
</g>
<!-- ind -->
<g id="node5" class="node"><title>ind</title>
<polygon fill="none" stroke="black" points="140.5,-186.5 93.5,-186.5 93.5,-163.5 140.5,-163.5 140.5,-186.5"/>
<text text-anchor="middle" x="117" y="-171.3" font-family="Times,serif" font-size="14.00">index</text>
</g>
<!-- core&#45;&gt;ind -->
<g id="edge4" class="edge"><title>core&#45;&gt;ind</title>
<path fill="none" stroke="black" d="M40.2247,-158.25C52.615,-160.989 69.0411,-164.62 83.4317,-167.801"/>
<polygon fill="black" stroke="black" points="82.944,-171.277 93.4637,-170.018 84.4549,-164.442 82.944,-171.277"/>
</g>
<!-- qp -->
<g id="node6" class="node"><title>qp</title>
<polygon fill="none" stroke="black" points="157.5,-145.5 76.5,-145.5 76.5,-122.5 157.5,-122.5 157.5,-145.5"/>
<text text-anchor="middle" x="117" y="-130.3" font-family="Times,serif" font-size="14.00">queryParser</text>
</g>
<!-- core&#45;&gt;qp -->
<g id="edge5" class="edge"><title>core&#45;&gt;qp</title>
<path fill="none" stroke="black" d="M40.2247,-149.953C47.8693,-148.343 57.0502,-146.41 66.3415,-144.454"/>
<polygon fill="black" stroke="black" points="67.3349,-147.822 76.3994,-142.337 65.8928,-140.972 67.3349,-147.822"/>
</g>
<!-- sea -->
<g id="node7" class="node"><title>sea</title>
<polygon fill="none" stroke="black" points="142.5,-104.5 91.5,-104.5 91.5,-81.5 142.5,-81.5 142.5,-104.5"/>
<text text-anchor="middle" x="117" y="-89.3" font-family="Times,serif" font-size="14.00">search</text>
</g>
<!-- core&#45;&gt;sea -->
<g id="edge6" class="edge"><title>core&#45;&gt;sea</title>
<path fill="none" stroke="black" d="M35.5352,-142.533C46.3959,-134.19 61.7607,-122.851 76,-114 78.5813,-112.396 81.2976,-110.796 84.0489,-109.236"/>
<polygon fill="black" stroke="black" points="85.7388,-112.301 92.8339,-104.433 82.3806,-106.159 85.7388,-112.301"/>
</g>
<!-- st -->
<g id="node8" class="node"><title>st</title>
<polygon fill="none" stroke="black" points="138.5,-63.5 95.5,-63.5 95.5,-40.5 138.5,-40.5 138.5,-63.5"/>
<text text-anchor="middle" x="117" y="-48.3" font-family="Times,serif" font-size="14.00">store</text>
</g>
<!-- core&#45;&gt;st -->
<g id="edge7" class="edge"><title>core&#45;&gt;st</title>
<path fill="none" stroke="black" d="M26.4868,-142.493C35.059,-125.498 53.0506,-93.4912 76,-73 79.0715,-70.2575 82.5655,-67.7566 86.1795,-65.5136"/>
<polygon fill="black" stroke="black" points="88.1979,-68.3961 95.2381,-60.4786 84.7971,-62.2777 88.1979,-68.3961"/>
</g>
<!-- ut -->
<g id="node9" class="node"><title>ut</title>
<polygon fill="none" stroke="black" points="134.5,-22.5 99.5,-22.5 99.5,0.5 134.5,0.5 134.5,-22.5"/>
<text text-anchor="middle" x="117" y="-7.3" font-family="Times,serif" font-size="14.00">util</text>
</g>
<!-- core&#45;&gt;ut -->
<g id="edge8" class="edge"><title>core&#45;&gt;ut</title>
<path fill="none" stroke="black" d="M23.5025,-142.499C29.1252,-119.053 44.779,-65.1499 76,-32 79.9659,-27.7891 84.9665,-24.2616 90.0764,-21.3731"/>
<polygon fill="black" stroke="black" points="91.7873,-24.4315 99.1927,-16.8545 88.6786,-18.1597 91.7873,-24.4315"/>
</g>
</g>
</svg>
