<?xml version="1.0" encoding="UTF-8" standalone="yes"?><svg xmlns="http://www.w3.org/2000/svg" xmlns:xlink="http://www.w3.org/1999/xlink" height="245pt" style="width:183px;height:245px;" version="1.1" viewBox="0 0 183 245" width="183pt"><defs><filter height="300%" id="f1" width="300%" x="-1" y="-1"><feGaussianBlur result="blurOut" stdDeviation="2.0"/><feColorMatrix in="blurOut" result="blurOut2" type="matrix" values="0 0 0 0 0 0 0 0 0 0 0 0 0 0 0 0 0 0 .4 0"/><feOffset dx="4.0" dy="4.0" in="blurOut2" result="blurOut3"/><feBlend in="SourceGraphic" in2="blurOut3" mode="normal"/></filter></defs><g><rect fill="#FEFECE" filter="url(#f1)" height="119.9727" style="stroke: #A80036; stroke-width: 1.5;" width="168" x="6" y="8"/><ellipse cx="60.75" cy="24" fill="#A9DCDF" rx="11" ry="11" style="stroke: #A80036; stroke-width: 1.0;"/><path d="M64.1094,29.5 L62.7813,25.7188 L58.7656,25.7188 L57.4375,29.5 L55.1094,29.5 L59.8125,16.5938 L61.6719,16.5938 L66.4531,29.5 L64.1094,29.5 Z M62.0781,23.7031 L60.9844,20.625 Q60.5781,19.4688 60.7813,19.4219 Q60.9063,19.6406 60.5,20.6406 L59.4688,23.7031 L62.0781,23.7031 Z "/><text fill="#000000" font-family="sans-serif" font-size="12" font-style="italic" lengthAdjust="spacingAndGlyphs" textLength="50" x="81.25" y="28.6641">Directory</text><line style="stroke: #A80036; stroke-width: 1.5;" x1="7" x2="173" y1="40" y2="40"/><line style="stroke: #A80036; stroke-width: 1.5;" x1="7" x2="173" y1="48" y2="48"/><ellipse cx="17" cy="60.6973" fill="#84BE84" rx="3" ry="3" style="stroke: #038048; stroke-width: 1.0;"/><text fill="#000000" font-family="sans-serif" font-size="11" lengthAdjust="spacingAndGlyphs" textLength="57" x="26" y="63.4727">char** list()</text><ellipse cx="17" cy="75.0918" fill="#84BE84" rx="3" ry="3" style="stroke: #038048; stroke-width: 1.0;"/><text fill="#000000" font-family="sans-serif" font-size="11" font-style="italic" lengthAdjust="spacingAndGlyphs" textLength="80" x="26" y="77.8672">bool openInput()</text><ellipse cx="17" cy="89.4863" fill="#84BE84" rx="3" ry="3" style="stroke: #038048; stroke-width: 1.0;"/><text fill="#000000" font-family="sans-serif" font-size="11" font-style="italic" lengthAdjust="spacingAndGlyphs" textLength="78" x="26" y="92.2617">bool deleteFile()</text><ellipse cx="17" cy="103.8809" fill="#84BE84" rx="3" ry="3" style="stroke: #038048; stroke-width: 1.0;"/><text fill="#000000" font-family="sans-serif" font-size="11" font-style="italic" lengthAdjust="spacingAndGlyphs" textLength="142" x="26" y="106.6563">IndexOutput* createOutput()</text><ellipse cx="17" cy="118.2754" fill="#84BE84" rx="3" ry="3" style="stroke: #038048; stroke-width: 1.0;"/><text fill="#000000" font-family="sans-serif" font-size="11" font-style="italic" lengthAdjust="spacingAndGlyphs" textLength="54" x="26" y="121.0508">void close()</text><rect fill="#FEFECE" filter="url(#f1)" height="48" style="stroke: #A80036; stroke-width: 1.5;" width="94" x="42.5" y="188"/><ellipse cx="57.5" cy="204" fill="#ADD1B2" rx="11" ry="11" style="stroke: #A80036; stroke-width: 1.0;"/><path d="M60.4844,208.0469 L60.4844,210.0625 Q59.0156,210.6406 57.1563,210.6406 Q54.5469,210.6406 53.0547,208.9688 Q51.5625,207.2969 51.5625,204.0469 Q51.5625,200.9844 53.1484,199.2578 Q54.7344,197.5313 57.4219,197.5313 Q59.3594,197.5313 61.0781,198.375 L60.0938,200.3281 Q58.6094,199.5469 57.4219,199.5469 Q55.8438,199.5469 54.8438,200.7266 Q53.8438,201.9063 53.8438,204.1094 Q53.8438,206.375 54.75,207.4922 Q55.6563,208.6094 57.4219,208.6094 Q58.4375,208.6094 60.4844,208.0469 Z "/><text fill="#000000" font-family="sans-serif" font-size="12" lengthAdjust="spacingAndGlyphs" textLength="62" x="71.5" y="208.6641">FSDirectory</text><line style="stroke: #A80036; stroke-width: 1.5;" x1="43.5" x2="135.5" y1="220" y2="220"/><line style="stroke: #A80036; stroke-width: 1.5;" x1="43.5" x2="135.5" y1="228" y2="228"/><path d="M89.5,148.7324 C89.5,163.0645 89.5,176.9147 89.5,187.8989 " fill="none" style="stroke: #A80036; stroke-width: 1.0;"/><polygon fill="none" points="82.5001,148.398,89.5,128.398,96.5001,148.398,82.5001,148.398" style="stroke: #A80036; stroke-width: 1.0;"/></g></svg>