<?xml version="1.0" encoding="UTF-8" standalone="yes"?><svg xmlns="http://www.w3.org/2000/svg" xmlns:xlink="http://www.w3.org/1999/xlink" height="244pt" style="width:182px;height:244px;" version="1.1" viewBox="0 0 182 244" width="182pt"><defs><filter height="300%" id="f1" width="300%" x="-1" y="-1"><feGaussianBlur result="blurOut" stdDeviation="2.0"/><feColorMatrix in="blurOut" result="blurOut2" type="matrix" values="0 0 0 0 0 0 0 0 0 0 0 0 0 0 0 0 0 0 .4 0"/><feOffset dx="4.0" dy="4.0" in="blurOut2" result="blurOut3"/><feBlend in="SourceGraphic" in2="blurOut3" mode="normal"/></filter></defs><g><rect fill="#FEFECE" filter="url(#f1)" height="48" style="stroke: #A80036; stroke-width: 1.5;" width="167" x="6" y="8"/><ellipse cx="21" cy="24" fill="#ADD1B2" rx="11" ry="11" style="stroke: #A80036; stroke-width: 1.0;"/><path d="M23.9844,28.0469 L23.9844,30.0625 Q22.5156,30.6406 20.6563,30.6406 Q18.0469,30.6406 16.5547,28.9688 Q15.0625,27.2969 15.0625,24.0469 Q15.0625,20.9844 16.6484,19.2578 Q18.2344,17.5313 20.9219,17.5313 Q22.8594,17.5313 24.5781,18.375 L23.5938,20.3281 Q22.1094,19.5469 20.9219,19.5469 Q19.3438,19.5469 18.3438,20.7266 Q17.3438,21.9063 17.3438,24.1094 Q17.3438,26.375 18.25,27.4922 Q19.1563,28.6094 20.9219,28.6094 Q21.9375,28.6094 23.9844,28.0469 Z "/><text fill="#000000" font-family="sans-serif" font-size="12" lengthAdjust="spacingAndGlyphs" textLength="135" x="35" y="28.6641">Document::LUCENE_BASE</text><line style="stroke: #A80036; stroke-width: 1.5;" x1="7" x2="172" y1="40" y2="40"/><line style="stroke: #A80036; stroke-width: 1.5;" x1="7" x2="172" y1="48" y2="48"/><rect fill="#FEFECE" filter="url(#f1)" height="119.9727" style="stroke: #A80036; stroke-width: 1.5;" width="137" x="21" y="116"/><ellipse cx="58.05" cy="132" fill="#ADD1B2" rx="11" ry="11" style="stroke: #A80036; stroke-width: 1.0;"/><path d="M61.0344,136.0469 L61.0344,138.0625 Q59.5656,138.6406 57.7063,138.6406 Q55.0969,138.6406 53.6047,136.9688 Q52.1125,135.2969 52.1125,132.0469 Q52.1125,128.9844 53.6984,127.2578 Q55.2844,125.5313 57.9719,125.5313 Q59.9094,125.5313 61.6281,126.375 L60.6438,128.3281 Q59.1594,127.5469 57.9719,127.5469 Q56.3938,127.5469 55.3938,128.7266 Q54.3938,129.9063 54.3938,132.1094 Q54.3938,134.375 55.3,135.4922 Q56.2063,136.6094 57.9719,136.6094 Q58.9875,136.6094 61.0344,136.0469 Z "/><text fill="#000000" font-family="sans-serif" font-size="12" lengthAdjust="spacingAndGlyphs" textLength="56" x="76.95" y="136.6641">Document</text><line style="stroke: #A80036; stroke-width: 1.5;" x1="22" x2="157" y1="148" y2="148"/><rect fill="none" height="6" style="stroke: #C82930; stroke-width: 1.0;" width="6" x="29" y="157.6973"/><text fill="#000000" font-family="sans-serif" font-size="11" lengthAdjust="spacingAndGlyphs" textLength="92" x="41" y="163.4727">FieldsType* _fields</text><rect fill="none" height="6" style="stroke: #C82930; stroke-width: 1.0;" width="6" x="29" y="172.0918"/><text fill="#000000" font-family="sans-serif" font-size="11" lengthAdjust="spacingAndGlyphs" textLength="62" x="41" y="177.8672">float_t boost</text><line style="stroke: #A80036; stroke-width: 1.5;" x1="22" x2="157" y1="184.7891" y2="184.7891"/><ellipse cx="32" cy="197.4863" fill="#84BE84" rx="3" ry="3" style="stroke: #038048; stroke-width: 1.0;"/><text fill="#000000" font-family="sans-serif" font-size="11" lengthAdjust="spacingAndGlyphs" textLength="72" x="41" y="200.2617">set/get Boost()</text><ellipse cx="32" cy="211.8809" fill="#84BE84" rx="3" ry="3" style="stroke: #038048; stroke-width: 1.0;"/><text fill="#000000" font-family="sans-serif" font-size="11" lengthAdjust="spacingAndGlyphs" textLength="111" x="41" y="214.6563">add/remove/get Field()</text><ellipse cx="32" cy="226.2754" fill="#84BE84" rx="3" ry="3" style="stroke: #038048; stroke-width: 1.0;"/><text fill="#000000" font-family="sans-serif" font-size="11" lengthAdjust="spacingAndGlyphs" textLength="30" x="41" y="229.0508">clear()</text><path d="M89.25,76.564 C89.25,88.926 89.25,102.599 89.25,115.722 " fill="none" style="stroke: #A80036; stroke-width: 1.0;"/><polygon fill="none" points="82.2501,76.131,89.25,56.131,96.2501,76.131,82.2501,76.131" style="stroke: #A80036; stroke-width: 1.0;"/></g></svg>