<?xml version="1.0" encoding="UTF-8" standalone="yes"?><svg xmlns="http://www.w3.org/2000/svg" xmlns:xlink="http://www.w3.org/1999/xlink" height="244pt" style="width:152px;height:244px;" version="1.1" viewBox="0 0 152 244" width="152pt"><defs><filter height="300%" id="f1" width="300%" x="-1" y="-1"><feGaussianBlur result="blurOut" stdDeviation="2.0"/><feColorMatrix in="blurOut" result="blurOut2" type="matrix" values="0 0 0 0 0 0 0 0 0 0 0 0 0 0 0 0 0 0 .4 0"/><feOffset dx="4.0" dy="4.0" in="blurOut2" result="blurOut3"/><feBlend in="SourceGraphic" in2="blurOut3" mode="normal"/></filter></defs><g><rect fill="#FEFECE" filter="url(#f1)" height="48" style="stroke: #A80036; stroke-width: 1.5;" width="105" x="22" y="8"/><ellipse cx="37" cy="24" fill="#ADD1B2" rx="11" ry="11" style="stroke: #A80036; stroke-width: 1.0;"/><path d="M39.9844,28.0469 L39.9844,30.0625 Q38.5156,30.6406 36.6563,30.6406 Q34.0469,30.6406 32.5547,28.9688 Q31.0625,27.2969 31.0625,24.0469 Q31.0625,20.9844 32.6484,19.2578 Q34.2344,17.5313 36.9219,17.5313 Q38.8594,17.5313 40.5781,18.375 L39.5938,20.3281 Q38.1094,19.5469 36.9219,19.5469 Q35.3438,19.5469 34.3438,20.7266 Q33.3438,21.9063 33.3438,24.1094 Q33.3438,26.375 34.25,27.4922 Q35.1563,28.6094 36.9219,28.6094 Q37.9375,28.6094 39.9844,28.0469 Z "/><text fill="#000000" font-family="sans-serif" font-size="12" lengthAdjust="spacingAndGlyphs" textLength="73" x="51" y="28.6641">LUCENE_BASE</text><line style="stroke: #A80036; stroke-width: 1.5;" x1="23" x2="126" y1="40" y2="40"/><line style="stroke: #A80036; stroke-width: 1.5;" x1="23" x2="126" y1="48" y2="48"/><rect fill="#FEFECE" filter="url(#f1)" height="119.9727" style="stroke: #A80036; stroke-width: 1.5;" width="137" x="6" y="116"/><ellipse cx="43.05" cy="132" fill="#ADD1B2" rx="11" ry="11" style="stroke: #A80036; stroke-width: 1.0;"/><path d="M46.0344,136.0469 L46.0344,138.0625 Q44.5656,138.6406 42.7063,138.6406 Q40.0969,138.6406 38.6047,136.9688 Q37.1125,135.2969 37.1125,132.0469 Q37.1125,128.9844 38.6984,127.2578 Q40.2844,125.5313 42.9719,125.5313 Q44.9094,125.5313 46.6281,126.375 L45.6438,128.3281 Q44.1594,127.5469 42.9719,127.5469 Q41.3938,127.5469 40.3938,128.7266 Q39.3938,129.9063 39.3938,132.1094 Q39.3938,134.375 40.3,135.4922 Q41.2063,136.6094 42.9719,136.6094 Q43.9875,136.6094 46.0344,136.0469 Z "/><text fill="#000000" font-family="sans-serif" font-size="12" lengthAdjust="spacingAndGlyphs" textLength="56" x="61.95" y="136.6641">Document</text><line style="stroke: #A80036; stroke-width: 1.5;" x1="7" x2="142" y1="148" y2="148"/><rect fill="none" height="6" style="stroke: #C82930; stroke-width: 1.0;" width="6" x="14" y="157.6973"/><text fill="#000000" font-family="sans-serif" font-size="11" lengthAdjust="spacingAndGlyphs" textLength="92" x="26" y="163.4727">FieldsType* _fields</text><rect fill="none" height="6" style="stroke: #C82930; stroke-width: 1.0;" width="6" x="14" y="172.0918"/><text fill="#000000" font-family="sans-serif" font-size="11" lengthAdjust="spacingAndGlyphs" textLength="62" x="26" y="177.8672">float_t boost</text><line style="stroke: #A80036; stroke-width: 1.5;" x1="7" x2="142" y1="184.7891" y2="184.7891"/><ellipse cx="17" cy="197.4863" fill="#84BE84" rx="3" ry="3" style="stroke: #038048; stroke-width: 1.0;"/><text fill="#000000" font-family="sans-serif" font-size="11" lengthAdjust="spacingAndGlyphs" textLength="72" x="26" y="200.2617">set/get Boost()</text><ellipse cx="17" cy="211.8809" fill="#84BE84" rx="3" ry="3" style="stroke: #038048; stroke-width: 1.0;"/><text fill="#000000" font-family="sans-serif" font-size="11" lengthAdjust="spacingAndGlyphs" textLength="111" x="26" y="214.6563">add/remove/get Field()</text><ellipse cx="17" cy="226.2754" fill="#84BE84" rx="3" ry="3" style="stroke: #038048; stroke-width: 1.0;"/><text fill="#000000" font-family="sans-serif" font-size="11" lengthAdjust="spacingAndGlyphs" textLength="30" x="26" y="229.0508">clear()</text><path d="M74.25,76.564 C74.25,88.926 74.25,102.599 74.25,115.722 " fill="none" style="stroke: #A80036; stroke-width: 1.0;"/><polygon fill="none" points="67.2501,76.131,74.25,56.131,81.2501,76.131,67.2501,76.131" style="stroke: #A80036; stroke-width: 1.0;"/></g></svg>