<?xml version="1.0" encoding="UTF-8" standalone="yes"?><svg xmlns="http://www.w3.org/2000/svg" xmlns:xlink="http://www.w3.org/1999/xlink" height="360pt" style="width:610px;height:360px;" version="1.1" viewBox="0 0 610 360" width="610pt"><defs><filter height="300%" id="f1" width="300%" x="-1" y="-1"><feGaussianBlur result="blurOut" stdDeviation="2.0"/><feColorMatrix in="blurOut" result="blurOut2" type="matrix" values="0 0 0 0 0 0 0 0 0 0 0 0 0 0 0 0 0 0 .4 0"/><feOffset dx="4.0" dy="4.0" in="blurOut2" result="blurOut3"/><feBlend in="SourceGraphic" in2="blurOut3" mode="normal"/></filter></defs><g><rect fill="#FEFECE" filter="url(#f1)" height="48" style="stroke: #A80036; stroke-width: 1.5;" width="170" x="431" y="37"/><ellipse cx="446" cy="53" fill="#ADD1B2" rx="11" ry="11" style="stroke: #A80036; stroke-width: 1.0;"/><path d="M448.9844,57.0469 L448.9844,59.0625 Q447.5156,59.6406 445.6563,59.6406 Q443.0469,59.6406 441.5547,57.9688 Q440.0625,56.2969 440.0625,53.0469 Q440.0625,49.9844 441.6484,48.2578 Q443.2344,46.5313 445.9219,46.5313 Q447.8594,46.5313 449.5781,47.375 L448.5938,49.3281 Q447.1094,48.5469 445.9219,48.5469 Q444.3438,48.5469 443.3438,49.7266 Q442.3438,50.9063 442.3438,53.1094 Q442.3438,55.375 443.25,56.4922 Q444.1563,57.6094 445.9219,57.6094 Q446.9375,57.6094 448.9844,57.0469 Z "/><text fill="#000000" font-family="sans-serif" font-size="12" lengthAdjust="spacingAndGlyphs" textLength="138" x="460" y="57.6641">lucene::util::NamedObject</text><line style="stroke: #A80036; stroke-width: 1.5;" x1="432" x2="600" y1="69" y2="69"/><line style="stroke: #A80036; stroke-width: 1.5;" x1="432" x2="600" y1="77" y2="77"/><rect fill="#FEFECE" filter="url(#f1)" height="134.3672" style="stroke: #A80036; stroke-width: 1.5;" width="131" x="450.75" y="196"/><ellipse cx="499.5" cy="212" fill="#ADD1B2" rx="11" ry="11" style="stroke: #A80036; stroke-width: 1.0;"/><path d="M502.4844,216.0469 L502.4844,218.0625 Q501.0156,218.6406 499.1563,218.6406 Q496.5469,218.6406 495.0547,216.9688 Q493.5625,215.2969 493.5625,212.0469 Q493.5625,208.9844 495.1484,207.2578 Q496.7344,205.5313 499.4219,205.5313 Q501.3594,205.5313 503.0781,206.375 L502.0938,208.3281 Q500.6094,207.5469 499.4219,207.5469 Q497.8438,207.5469 496.8438,208.7266 Q495.8438,209.9063 495.8438,212.1094 Q495.8438,214.375 496.75,215.4922 Q497.6563,216.6094 499.4219,216.6094 Q500.4375,216.6094 502.4844,216.0469 Z "/><text fill="#000000" font-family="sans-serif" font-size="12" lengthAdjust="spacingAndGlyphs" textLength="25" x="520" y="216.6641">Field</text><line style="stroke: #A80036; stroke-width: 1.5;" x1="451.75" x2="580.75" y1="228" y2="228"/><ellipse cx="461.75" cy="240.6973" fill="none" rx="3" ry="3" style="stroke: #038048; stroke-width: 1.0;"/><text fill="#000000" font-family="sans-serif" font-size="11" lengthAdjust="spacingAndGlyphs" textLength="44" x="470.75" y="243.4727">Bool lazy</text><polygon fill="none" points="461.75,250.0918,465.75,254.0918,461.75,258.0918,457.75,254.0918" style="stroke: #B38D22; stroke-width: 1.0;"/><text fill="#000000" font-family="sans-serif" font-size="11" lengthAdjust="spacingAndGlyphs" textLength="83" x="470.75" y="257.8672">void * fieldsData</text><polygon fill="none" points="461.75,264.4863,465.75,268.4863,461.75,272.4863,457.75,268.4863" style="stroke: #B38D22; stroke-width: 1.0;"/><text fill="#000000" font-family="sans-serif" font-size="11" lengthAdjust="spacingAndGlyphs" textLength="102" x="470.75" y="272.2617">ValueType valueType</text><polygon fill="none" points="461.75,278.8809,465.75,282.8809,461.75,286.8809,457.75,282.8809" style="stroke: #B38D22; stroke-width: 1.0;"/><text fill="#000000" font-family="sans-serif" font-size="11" lengthAdjust="spacingAndGlyphs" textLength="105" x="470.75" y="286.6563">const TCHAR* _name</text><polygon fill="none" points="461.75,293.2754,465.75,297.2754,461.75,301.2754,457.75,297.2754" style="stroke: #B38D22; stroke-width: 1.0;"/><text fill="#000000" font-family="sans-serif" font-size="11" lengthAdjust="spacingAndGlyphs" textLength="73" x="470.75" y="301.0508">uint32_t config</text><polygon fill="none" points="461.75,307.6699,465.75,311.6699,461.75,315.6699,457.75,311.6699" style="stroke: #B38D22; stroke-width: 1.0;"/><text fill="#000000" font-family="sans-serif" font-size="11" lengthAdjust="spacingAndGlyphs" textLength="62" x="470.75" y="315.4453">float_t boost</text><line style="stroke: #A80036; stroke-width: 1.5;" x1="451.75" x2="580.75" y1="322.3672" y2="322.3672"/><rect fill="#FEFECE" filter="url(#f1)" height="91.1836" style="stroke: #A80036; stroke-width: 1.5;" width="116" x="64.5" y="15.5"/><ellipse cx="104.7" cy="31.5" fill="#EB937F" rx="11" ry="11" style="stroke: #A80036; stroke-width: 1.0;"/><path d="M107.8563,38 L100.8563,38 L100.8563,25.1563 L107.8563,25.1563 L107.8563,27.2344 L103.075,27.2344 L103.075,30.2656 L107.5281,30.2656 L107.5281,32.2813 L103.075,32.2813 L103.075,35.9219 L107.8563,35.9219 L107.8563,38 Z "/><text fill="#000000" font-family="sans-serif" font-size="12" lengthAdjust="spacingAndGlyphs" textLength="28" x="124.3" y="36.1641">Store</text><line style="stroke: #A80036; stroke-width: 1.5;" x1="65.5" x2="179.5" y1="47.5" y2="47.5"/><text fill="#000000" font-family="sans-serif" font-size="11" lengthAdjust="spacingAndGlyphs" textLength="67" x="70.5" y="62.9727">STORE_YES=1</text><text fill="#000000" font-family="sans-serif" font-size="11" lengthAdjust="spacingAndGlyphs" textLength="65" x="70.5" y="77.3672">STORE_NO=2</text><text fill="#000000" font-family="sans-serif" font-size="11" lengthAdjust="spacingAndGlyphs" textLength="104" x="70.5" y="91.7617">STORE_COMPRESS=4</text><line style="stroke: #A80036; stroke-width: 1.5;" x1="65.5" x2="179.5" y1="98.6836" y2="98.6836"/><rect fill="#FEFECE" filter="url(#f1)" height="105.5781" style="stroke: #A80036; stroke-width: 1.5;" width="141" x="234.75" y="8"/><ellipse cx="286" cy="24" fill="#EB937F" rx="11" ry="11" style="stroke: #A80036; stroke-width: 1.0;"/><path d="M289.1563,30.5 L282.1563,30.5 L282.1563,17.6563 L289.1563,17.6563 L289.1563,19.7344 L284.375,19.7344 L284.375,22.7656 L288.8281,22.7656 L288.8281,24.7813 L284.375,24.7813 L284.375,28.4219 L289.1563,28.4219 L289.1563,30.5 Z "/><text fill="#000000" font-family="sans-serif" font-size="12" lengthAdjust="spacingAndGlyphs" textLength="30" x="306.5" y="28.6641">Index</text><line style="stroke: #A80036; stroke-width: 1.5;" x1="235.75" x2="374.75" y1="40" y2="40"/><text fill="#000000" font-family="sans-serif" font-size="11" lengthAdjust="spacingAndGlyphs" textLength="71" x="240.75" y="55.4727">INDEX_NO=16</text><text fill="#000000" font-family="sans-serif" font-size="11" lengthAdjust="spacingAndGlyphs" textLength="113" x="240.75" y="69.8672">INDEX_TOKENIZED=32</text><text fill="#000000" font-family="sans-serif" font-size="11" lengthAdjust="spacingAndGlyphs" textLength="129" x="240.75" y="84.2617">INDEX_UNTOKENIZED=64</text><text fill="#000000" font-family="sans-serif" font-size="11" lengthAdjust="spacingAndGlyphs" textLength="115" x="240.75" y="98.6563">INDEX_NONORMS=128</text><line style="stroke: #A80036; stroke-width: 1.5;" x1="235.75" x2="374.75" y1="105.5781" y2="105.5781"/><rect fill="#FEFECE" filter="url(#f1)" height="177.5508" style="stroke: #A80036; stroke-width: 1.5;" width="232" x="6.5" y="174"/><ellipse cx="86.75" cy="190" fill="#EB937F" rx="11" ry="11" style="stroke: #A80036; stroke-width: 1.0;"/><path d="M89.9063,196.5 L82.9063,196.5 L82.9063,183.6563 L89.9063,183.6563 L89.9063,185.7344 L85.125,185.7344 L85.125,188.7656 L89.5781,188.7656 L89.5781,190.7813 L85.125,190.7813 L85.125,194.4219 L89.9063,194.4219 L89.9063,196.5 Z "/><text fill="#000000" font-family="sans-serif" font-size="12" lengthAdjust="spacingAndGlyphs" textLength="63" x="107.25" y="194.6641">TermVector</text><line style="stroke: #A80036; stroke-width: 1.5;" x1="7.5" x2="237.5" y1="206" y2="206"/><text fill="#000000" font-family="sans-serif" font-size="11" lengthAdjust="spacingAndGlyphs" textLength="115" x="12.5" y="221.4727">TERMVECTOR_NO=256,</text><text fill="#000000" font-family="sans-serif" font-size="11" lengthAdjust="spacingAndGlyphs" textLength="117" x="12.5" y="235.8672">TERMVECTOR_YES=512,</text><text fill="#000000" font-family="sans-serif" font-size="11" lengthAdjust="spacingAndGlyphs" textLength="170" x="12.5" y="250.2617">TERMVECTOR_WITH_POSITIONS =</text><text fill="#000000" font-family="sans-serif" font-size="11" lengthAdjust="spacingAndGlyphs" textLength="129" x="12.5" y="264.6563">TERMVECTOR_YES | 1024,</text><text fill="#000000" font-family="sans-serif" font-size="11" lengthAdjust="spacingAndGlyphs" textLength="156" x="12.5" y="279.0508">TERMVECTOR_WITH_OFFSETS =</text><text fill="#000000" font-family="sans-serif" font-size="11" lengthAdjust="spacingAndGlyphs" textLength="129" x="12.5" y="293.4453">TERMVECTOR_YES | 2048,</text><text fill="#000000" font-family="sans-serif" font-size="11" lengthAdjust="spacingAndGlyphs" textLength="217" x="12.5" y="307.8398">TERMVECTOR_WITH_POSITIONS_OFFSETS =</text><text fill="#000000" font-family="sans-serif" font-size="11" lengthAdjust="spacingAndGlyphs" textLength="156" x="12.5" y="322.2344">TERMVECTOR_WITH_OFFSETS |</text><text fill="#000000" font-family="sans-serif" font-size="11" lengthAdjust="spacingAndGlyphs" textLength="161" x="15.5" y="336.6289">TERMVECTOR_WITH_POSITIONS</text><line style="stroke: #A80036; stroke-width: 1.5;" x1="7.5" x2="237.5" y1="343.5508" y2="343.5508"/><rect fill="#FEFECE" filter="url(#f1)" height="119.9727" style="stroke: #A80036; stroke-width: 1.5;" width="142" x="273" y="203"/><ellipse cx="313.2" cy="219" fill="#EB937F" rx="11" ry="11" style="stroke: #A80036; stroke-width: 1.0;"/><path d="M316.3563,225.5 L309.3563,225.5 L309.3563,212.6563 L316.3563,212.6563 L316.3563,214.7344 L311.575,214.7344 L311.575,217.7656 L316.0281,217.7656 L316.0281,219.7813 L311.575,219.7813 L311.575,223.4219 L316.3563,223.4219 L316.3563,225.5 Z "/><text fill="#000000" font-family="sans-serif" font-size="12" lengthAdjust="spacingAndGlyphs" textLength="54" x="332.8" y="223.6641">ValueType</text><line style="stroke: #A80036; stroke-width: 1.5;" x1="274" x2="414" y1="235" y2="235"/><text fill="#000000" font-family="sans-serif" font-size="11" lengthAdjust="spacingAndGlyphs" textLength="85" x="279" y="250.4727">VALUE_NONE = 0</text><text fill="#000000" font-family="sans-serif" font-size="11" lengthAdjust="spacingAndGlyphs" textLength="93" x="279" y="264.8672">VALUE_STRING = 1</text><text fill="#000000" font-family="sans-serif" font-size="11" lengthAdjust="spacingAndGlyphs" textLength="94" x="279" y="279.2617">VALUE_READER = 2</text><text fill="#000000" font-family="sans-serif" font-size="11" lengthAdjust="spacingAndGlyphs" textLength="93" x="279" y="293.6563">VALUE_BINARY = 4</text><text fill="#000000" font-family="sans-serif" font-size="11" lengthAdjust="spacingAndGlyphs" textLength="130" x="279" y="308.0508">VALUE_TOKENSTREAM = 8</text><line style="stroke: #A80036; stroke-width: 1.5;" x1="274" x2="414" y1="314.9727" y2="314.9727"/><path d="M516,105.367 C516,131.732 516,165.931 516,195.645 " fill="none" style="stroke: #A80036; stroke-width: 1.0;"/><polygon fill="none" points="509,105.334,516,85.334,523,105.334,509,105.334" style="stroke: #A80036; stroke-width: 1.0;"/></g></svg>