<?xml version="1.0" encoding="UTF-8" standalone="yes"?><svg xmlns="http://www.w3.org/2000/svg" xmlns:xlink="http://www.w3.org/1999/xlink" height="246pt" style="width:402px;height:246px;" version="1.1" viewBox="0 0 402 246" width="402pt"><defs><filter height="300%" id="f1" width="300%" x="-1" y="-1"><feGaussianBlur result="blurOut" stdDeviation="2.0"/><feColorMatrix in="blurOut" result="blurOut2" type="matrix" values="0 0 0 0 0 0 0 0 0 0 0 0 0 0 0 0 0 0 .4 0"/><feOffset dx="4.0" dy="4.0" in="blurOut2" result="blurOut3"/><feBlend in="SourceGraphic" in2="blurOut3" mode="normal"/></filter></defs><g><rect fill="#FEFECE" filter="url(#f1)" height="76.7891" style="stroke: #A80036; stroke-width: 1.5;" width="161" x="105" y="8.5"/><ellipse cx="147.45" cy="24.5" fill="#A9DCDF" rx="11" ry="11" style="stroke: #A80036; stroke-width: 1.0;"/><path d="M150.8094,30 L149.4813,26.2188 L145.4656,26.2188 L144.1375,30 L141.8094,30 L146.5125,17.0938 L148.3719,17.0938 L153.1531,30 L150.8094,30 Z M148.7781,24.2031 L147.6844,21.125 Q147.2781,19.9688 147.4813,19.9219 Q147.6063,20.1406 147.2,21.1406 L146.1688,24.2031 L148.7781,24.2031 Z "/><text fill="#000000" font-family="sans-serif" font-size="12" font-style="italic" lengthAdjust="spacingAndGlyphs" textLength="68" x="167.55" y="29.1641">FieldSelector</text><line style="stroke: #A80036; stroke-width: 1.5;" x1="106" x2="265" y1="40.5" y2="40.5"/><ellipse cx="116" cy="53.1973" fill="none" rx="3" ry="3" style="stroke: #038048; stroke-width: 1.0;"/><text fill="#000000" font-family="sans-serif" font-size="11" lengthAdjust="spacingAndGlyphs" textLength="135" x="125" y="55.9727">enum FieldSelectorResult {}</text><line style="stroke: #A80036; stroke-width: 1.5;" x1="106" x2="265" y1="62.8945" y2="62.8945"/><ellipse cx="116" cy="75.5918" fill="#84BE84" rx="3" ry="3" style="stroke: #038048; stroke-width: 1.0;"/><text fill="#000000" font-family="sans-serif" font-size="11" lengthAdjust="spacingAndGlyphs" textLength="72" x="125" y="78.3672">virtual accept()</text><rect fill="#FEFECE" filter="url(#f1)" height="62.3945" style="stroke: #A80036; stroke-width: 1.5;" width="149" x="6" y="161"/><ellipse cx="21" cy="177" fill="#ADD1B2" rx="11" ry="11" style="stroke: #A80036; stroke-width: 1.0;"/><path d="M23.9844,181.0469 L23.9844,183.0625 Q22.5156,183.6406 20.6563,183.6406 Q18.0469,183.6406 16.5547,181.9688 Q15.0625,180.2969 15.0625,177.0469 Q15.0625,173.9844 16.6484,172.2578 Q18.2344,170.5313 20.9219,170.5313 Q22.8594,170.5313 24.5781,171.375 L23.5938,173.3281 Q22.1094,172.5469 20.9219,172.5469 Q19.3438,172.5469 18.3438,173.7266 Q17.3438,174.9063 17.3438,177.1094 Q17.3438,179.375 18.25,180.4922 Q19.1563,181.6094 20.9219,181.6094 Q21.9375,181.6094 23.9844,181.0469 Z "/><text fill="#000000" font-family="sans-serif" font-size="12" lengthAdjust="spacingAndGlyphs" textLength="117" x="35" y="181.6641">LoadFirstFieldSelector</text><line style="stroke: #A80036; stroke-width: 1.5;" x1="7" x2="154" y1="193" y2="193"/><line style="stroke: #A80036; stroke-width: 1.5;" x1="7" x2="154" y1="201" y2="201"/><ellipse cx="17" cy="213.6973" fill="#84BE84" rx="3" ry="3" style="stroke: #038048; stroke-width: 1.0;"/><text fill="#000000" font-family="sans-serif" font-size="11" lengthAdjust="spacingAndGlyphs" textLength="38" x="26" y="216.4727">accept()</text><rect fill="#FEFECE" filter="url(#f1)" height="91.1836" style="stroke: #A80036; stroke-width: 1.5;" width="203" x="190" y="146.5"/><ellipse cx="241.75" cy="162.5" fill="#ADD1B2" rx="11" ry="11" style="stroke: #A80036; stroke-width: 1.0;"/><path d="M244.7344,166.5469 L244.7344,168.5625 Q243.2656,169.1406 241.4063,169.1406 Q238.7969,169.1406 237.3047,167.4688 Q235.8125,165.7969 235.8125,162.5469 Q235.8125,159.4844 237.3984,157.7578 Q238.9844,156.0313 241.6719,156.0313 Q243.6094,156.0313 245.3281,156.875 L244.3438,158.8281 Q242.8594,158.0469 241.6719,158.0469 Q240.0938,158.0469 239.0938,159.2266 Q238.0938,160.4063 238.0938,162.6094 Q238.0938,164.875 239,165.9922 Q239.9063,167.1094 241.6719,167.1094 Q242.6875,167.1094 244.7344,166.5469 Z "/><text fill="#000000" font-family="sans-serif" font-size="12" lengthAdjust="spacingAndGlyphs" textLength="91" x="262.25" y="167.1641">MapFieldSelector</text><line style="stroke: #A80036; stroke-width: 1.5;" x1="191" x2="392" y1="178.5" y2="178.5"/><ellipse cx="201" cy="191.1973" fill="none" rx="3" ry="3" style="stroke: #038048; stroke-width: 1.0;"/><text fill="#000000" font-family="sans-serif" font-size="11" lengthAdjust="spacingAndGlyphs" textLength="177" x="210" y="193.9727">FieldSelectionsType* fieldSelections</text><line style="stroke: #A80036; stroke-width: 1.5;" x1="191" x2="392" y1="200.8945" y2="200.8945"/><ellipse cx="201" cy="213.5918" fill="#84BE84" rx="3" ry="3" style="stroke: #038048; stroke-width: 1.0;"/><text fill="#000000" font-family="sans-serif" font-size="11" lengthAdjust="spacingAndGlyphs" textLength="38" x="210" y="216.3672">accpet()</text><ellipse cx="201" cy="227.9863" fill="#84BE84" rx="3" ry="3" style="stroke: #038048; stroke-width: 1.0;"/><text fill="#000000" font-family="sans-serif" font-size="11" lengthAdjust="spacingAndGlyphs" textLength="24" x="210" y="230.7617">add()</text><path d="M145.777,101.759 C131.09,121.761 114.951,143.7399 102.3655,160.8808 " fill="none" style="stroke: #A80036; stroke-width: 1.0;"/><polygon fill="none" points="140.183,97.55,157.662,85.572,151.468,105.835,140.183,97.55" style="stroke: #A80036; stroke-width: 1.0;"/><path d="M225.331,102.071 C236.149,116.665 247.731,132.291 258.122,146.3085 " fill="none" style="stroke: #A80036; stroke-width: 1.0;"/><polygon fill="none" points="219.387,105.807,213.1,85.572,230.634,97.47,219.387,105.807" style="stroke: #A80036; stroke-width: 1.0;"/></g></svg>