<?xml version="1.0" encoding="UTF-8" standalone="yes"?><svg xmlns="http://www.w3.org/2000/svg" xmlns:xlink="http://www.w3.org/1999/xlink" height="356.701pt" style="width:381px;height:356px;" version="1.1" viewBox="0 0 381 356" width="381.4433pt"><defs><filter height="300%" id="f1" width="300%" x="-1" y="-1"><feGaussianBlur result="blurOut" stdDeviation="4.123711340206185"/><feColorMatrix in="blurOut" result="blurOut2" type="matrix" values="0 0 0 0 0 0 0 0 0 0 0 0 0 0 0 0 0 0 .4 0"/><feOffset dx="8.24742268041237" dy="8.24742268041237" in="blurOut2" result="blurOut3"/><feBlend in="SourceGraphic" in2="blurOut3" mode="normal"/></filter></defs><g><rect fill="#FEFECE" filter="url(#f1)" height="98.9691" style="stroke: #A80036; stroke-width: 3.092783505154639;" width="350.5155" x="12.3711" y="16.4948"/><ellipse cx="43.299" cy="49.4845" fill="#ADD1B2" rx="22.6804" ry="22.6804" style="stroke: #A80036; stroke-width: 2.0618556701030926;"/><path d="M49.4523,57.8286 L49.4523,61.9845 Q46.424,63.1765 42.5902,63.1765 Q37.2101,63.1765 34.1334,59.7294 Q31.0567,56.2822 31.0567,49.5812 Q31.0567,43.2668 34.3267,39.7068 Q37.5966,36.1469 43.1379,36.1469 Q47.1327,36.1469 50.6765,37.8866 L48.6469,41.9137 Q45.5863,40.3028 43.1379,40.3028 Q39.884,40.3028 37.8222,42.7352 Q35.7603,45.1675 35.7603,49.7101 Q35.7603,54.3814 37.6289,56.6849 Q39.4974,58.9884 43.1379,58.9884 Q45.232,58.9884 49.4523,57.8286 Z "/><text fill="#000000" font-family="sans-serif" font-size="24.7423" lengthAdjust="spacingAndGlyphs" textLength="284.5361" x="72.1649" y="59.1012">lucene::util::NamedObject</text><line style="stroke: #A80036; stroke-width: 3.092783505154639;" x1="14.433" x2="360.8247" y1="82.4742" y2="82.4742"/><line style="stroke: #A80036; stroke-width: 3.092783505154639;" x1="14.433" x2="360.8247" y1="98.9691" y2="98.9691"/><rect fill="#FEFECE" filter="url(#f1)" height="98.9691" style="stroke: #A80036; stroke-width: 3.092783505154639;" width="117.5258" x="129.3814" y="239.1753"/><ellipse cx="160.3093" cy="272.1649" fill="#ADD1B2" rx="22.6804" ry="22.6804" style="stroke: #A80036; stroke-width: 2.0618556701030926;"/><path d="M166.4626,280.509 L166.4626,284.6649 Q163.4343,285.857 159.6005,285.857 Q154.2204,285.857 151.1437,282.4098 Q148.067,278.9626 148.067,272.2616 Q148.067,265.9472 151.337,262.3872 Q154.607,258.8273 160.1482,258.8273 Q164.143,258.8273 167.6869,260.567 L165.6572,264.5941 Q162.5966,262.9832 160.1482,262.9832 Q156.8943,262.9832 154.8325,265.4156 Q152.7706,267.8479 152.7706,272.3905 Q152.7706,277.0619 154.6392,279.3653 Q156.5077,281.6688 160.1482,281.6688 Q162.2423,281.6688 166.4626,280.509 Z "/><text fill="#000000" font-family="sans-serif" font-size="24.7423" lengthAdjust="spacingAndGlyphs" textLength="51.5464" x="189.1753" y="281.7816">Field</text><line style="stroke: #A80036; stroke-width: 3.092783505154639;" x1="131.4433" x2="244.8454" y1="305.1546" y2="305.1546"/><line style="stroke: #A80036; stroke-width: 3.092783505154639;" x1="131.4433" x2="244.8454" y1="321.6495" y2="321.6495"/><path d="M187.6289,156.7497 C187.6289,184.6994 187.6289,214.5115 187.6289,238.5122 " fill="none" style="stroke: #A80036; stroke-width: 2.0618556701030926;"/><polygon fill="none" points="173.1961,156.7021,187.6289,115.4639,202.0621,156.7019,173.1961,156.7021" style="stroke: #A80036; stroke-width: 2.0618556701030926;"/></g></svg>