<?xml version="1.0" encoding="UTF-8" standalone="yes"?><svg xmlns="http://www.w3.org/2000/svg" xmlns:xlink="http://www.w3.org/1999/xlink" height="316pt" style="width:427px;height:316px;" version="1.1" viewBox="0 0 427 316" width="427pt"><defs><filter height="300%" id="f1" width="300%" x="-1" y="-1"><feGaussianBlur result="blurOut" stdDeviation="2.0"/><feColorMatrix in="blurOut" result="blurOut2" type="matrix" values="0 0 0 0 0 0 0 0 0 0 0 0 0 0 0 0 0 0 .4 0"/><feOffset dx="4.0" dy="4.0" in="blurOut2" result="blurOut3"/><feBlend in="SourceGraphic" in2="blurOut3" mode="normal"/></filter></defs><g><rect fill="#FEFECE" filter="url(#f1)" height="48" style="stroke: #A80036; stroke-width: 1.5;" width="105" x="38.75" y="8"/><ellipse cx="53.75" cy="24" fill="#ADD1B2" rx="11" ry="11" style="stroke: #A80036; stroke-width: 1.0;"/><path d="M56.7344,28.0469 L56.7344,30.0625 Q55.2656,30.6406 53.4063,30.6406 Q50.7969,30.6406 49.3047,28.9688 Q47.8125,27.2969 47.8125,24.0469 Q47.8125,20.9844 49.3984,19.2578 Q50.9844,17.5313 53.6719,17.5313 Q55.6094,17.5313 57.3281,18.375 L56.3438,20.3281 Q54.8594,19.5469 53.6719,19.5469 Q52.0938,19.5469 51.0938,20.7266 Q50.0938,21.9063 50.0938,24.1094 Q50.0938,26.375 51,27.4922 Q51.9063,28.6094 53.6719,28.6094 Q54.6875,28.6094 56.7344,28.0469 Z "/><text fill="#000000" font-family="sans-serif" font-size="12" lengthAdjust="spacingAndGlyphs" textLength="73" x="67.75" y="28.6641">LUCENE_BASE</text><line style="stroke: #A80036; stroke-width: 1.5;" x1="39.75" x2="142.75" y1="40" y2="40"/><line style="stroke: #A80036; stroke-width: 1.5;" x1="39.75" x2="142.75" y1="48" y2="48"/><rect fill="#FEFECE" filter="url(#f1)" height="134.3672" style="stroke: #A80036; stroke-width: 1.5;" width="170" x="6" y="145"/><ellipse cx="54.75" cy="161" fill="#ADD1B2" rx="11" ry="11" style="stroke: #A80036; stroke-width: 1.0;"/><path d="M57.7344,165.0469 L57.7344,167.0625 Q56.2656,167.6406 54.4063,167.6406 Q51.7969,167.6406 50.3047,165.9688 Q48.8125,164.2969 48.8125,161.0469 Q48.8125,157.9844 50.3984,156.2578 Q51.9844,154.5313 54.6719,154.5313 Q56.6094,154.5313 58.3281,155.375 L57.3438,157.3281 Q55.8594,156.5469 54.6719,156.5469 Q53.0938,156.5469 52.0938,157.7266 Q51.0938,158.9063 51.0938,161.1094 Q51.0938,163.375 52,164.4922 Q52.9063,165.6094 54.6719,165.6094 Q55.6875,165.6094 57.7344,165.0469 Z "/><text fill="#000000" font-family="sans-serif" font-size="12" lengthAdjust="spacingAndGlyphs" textLength="64" x="75.25" y="165.6641">IndexWriter</text><line style="stroke: #A80036; stroke-width: 1.5;" x1="7" x2="175" y1="177" y2="177"/><rect fill="none" height="6" style="stroke: #C82930; stroke-width: 1.0;" width="6" x="14" y="186.6973"/><text fill="#000000" font-family="sans-serif" font-size="11" lengthAdjust="spacingAndGlyphs" textLength="92" x="26" y="192.4727">Analyzer* analyzer</text><rect fill="none" height="6" style="stroke: #C82930; stroke-width: 1.0;" width="6" x="14" y="201.0918"/><text fill="#000000" font-family="sans-serif" font-size="11" lengthAdjust="spacingAndGlyphs" textLength="102" x="26" y="206.8672">Similarity* similarity</text><rect fill="none" height="6" style="stroke: #C82930; stroke-width: 1.0;" width="6" x="14" y="215.4863"/><text fill="#000000" font-family="sans-serif" font-size="11" lengthAdjust="spacingAndGlyphs" textLength="144" x="26" y="221.2617">DocumentsWriter* docWriter</text><rect fill="none" height="6" style="stroke: #C82930; stroke-width: 1.0;" width="6" x="14" y="229.8809"/><text fill="#000000" font-family="sans-serif" font-size="11" lengthAdjust="spacingAndGlyphs" textLength="110" x="26" y="235.6563">LuceneLock* writeLock</text><line style="stroke: #A80036; stroke-width: 1.5;" x1="7" x2="175" y1="242.5781" y2="242.5781"/><ellipse cx="17" cy="255.2754" fill="#84BE84" rx="3" ry="3" style="stroke: #038048; stroke-width: 1.0;"/><text fill="#000000" font-family="sans-serif" font-size="11" lengthAdjust="spacingAndGlyphs" textLength="114" x="26" y="258.0508">void updateDocument()</text><ellipse cx="17" cy="269.6699" fill="#84BE84" rx="3" ry="3" style="stroke: #038048; stroke-width: 1.0;"/><text fill="#000000" font-family="sans-serif" font-size="11" lengthAdjust="spacingAndGlyphs" textLength="98" x="26" y="272.4453">void addDocument()</text><rect fill="#FEFECE" filter="url(#f1)" height="48" style="stroke: #A80036; stroke-width: 1.5;" width="106" x="262.5" y="8"/><ellipse cx="277.5" cy="24" fill="#ADD1B2" rx="11" ry="11" style="stroke: #A80036; stroke-width: 1.0;"/><path d="M280.4844,28.0469 L280.4844,30.0625 Q279.0156,30.6406 277.1563,30.6406 Q274.5469,30.6406 273.0547,28.9688 Q271.5625,27.2969 271.5625,24.0469 Q271.5625,20.9844 273.1484,19.2578 Q274.7344,17.5313 277.4219,17.5313 Q279.3594,17.5313 281.0781,18.375 L280.0938,20.3281 Q278.6094,19.5469 277.4219,19.5469 Q275.8438,19.5469 274.8438,20.7266 Q273.8438,21.9063 273.8438,24.1094 Q273.8438,26.375 274.75,27.4922 Q275.6563,28.6094 277.4219,28.6094 Q278.4375,28.6094 280.4844,28.0469 Z "/><text fill="#000000" font-family="sans-serif" font-size="12" lengthAdjust="spacingAndGlyphs" textLength="74" x="291.5" y="28.6641">NamedObject</text><line style="stroke: #A80036; stroke-width: 1.5;" x1="263.5" x2="367.5" y1="40" y2="40"/><line style="stroke: #A80036; stroke-width: 1.5;" x1="263.5" x2="367.5" y1="48" y2="48"/><rect fill="#FEFECE" filter="url(#f1)" height="191.9453" style="stroke: #A80036; stroke-width: 1.5;" width="207" x="211.75" y="116"/><ellipse cx="277.5" cy="132" fill="#A9DCDF" rx="11" ry="11" style="stroke: #A80036; stroke-width: 1.0;"/><path d="M280.8594,137.5 L279.5313,133.7188 L275.5156,133.7188 L274.1875,137.5 L271.8594,137.5 L276.5625,124.5938 L278.4219,124.5938 L283.2031,137.5 L280.8594,137.5 Z M278.8281,131.7031 L277.7344,128.625 Q277.3281,127.4688 277.5313,127.4219 Q277.6563,127.6406 277.25,128.6406 L276.2188,131.7031 L278.8281,131.7031 Z "/><text fill="#000000" font-family="sans-serif" font-size="12" font-style="italic" lengthAdjust="spacingAndGlyphs" textLength="67" x="298" y="136.6641">IndexReader</text><line style="stroke: #A80036; stroke-width: 1.5;" x1="212.75" x2="417.75" y1="148" y2="148"/><ellipse cx="222.75" cy="160.6973" fill="none" rx="3" ry="3" style="stroke: #038048; stroke-width: 1.0;"/><text fill="#000000" font-family="sans-serif" font-size="11" lengthAdjust="spacingAndGlyphs" textLength="91" x="231.75" y="163.4727">Internal* _internal</text><ellipse cx="222.75" cy="175.0918" fill="none" rx="3" ry="3" style="stroke: #038048; stroke-width: 1.0;"/><text fill="#000000" font-family="sans-serif" font-size="11" font-style="italic" lengthAdjust="spacingAndGlyphs" textLength="181" x="231.75" y="177.8672">TermFreqVector* getTermFreqVector</text><line style="stroke: #A80036; stroke-width: 1.5;" x1="212.75" x2="417.75" y1="184.7891" y2="184.7891"/><polygon fill="#FFFF44" points="222.75,192.4863,226.75,196.4863,222.75,200.4863,218.75,196.4863" style="stroke: #B38D22; stroke-width: 1.0;"/><text fill="#000000" font-family="sans-serif" font-size="11" font-style="italic" lengthAdjust="spacingAndGlyphs" textLength="68" x="231.75" y="200.2617">void doClose()</text><polygon fill="#FFFF44" points="222.75,206.8809,226.75,210.8809,222.75,214.8809,218.75,210.8809" style="stroke: #B38D22; stroke-width: 1.0;"/><text fill="#000000" font-family="sans-serif" font-size="11" font-style="italic" lengthAdjust="spacingAndGlyphs" textLength="74" x="231.75" y="214.6563">void doDelete()</text><polygon fill="#FFFF44" points="222.75,221.2754,226.75,225.2754,222.75,229.2754,218.75,225.2754" style="stroke: #B38D22; stroke-width: 1.0;"/><text fill="#000000" font-family="sans-serif" font-size="11" font-style="italic" lengthAdjust="spacingAndGlyphs" textLength="81" x="231.75" y="229.0508">void doCommit()</text><ellipse cx="222.75" cy="240.6699" fill="#84BE84" rx="3" ry="3" style="stroke: #038048; stroke-width: 1.0;"/><text fill="#000000" font-family="sans-serif" font-size="11" lengthAdjust="spacingAndGlyphs" text-decoration="underline" textLength="101" x="231.75" y="243.4453">IndexReader* open()</text><line style="stroke: #000000; stroke-width: 1.0;" x1="231.75" x2="332.75" y1="245.4453" y2="245.4453"/><ellipse cx="222.75" cy="255.0645" fill="#84BE84" rx="3" ry="3" style="stroke: #038048; stroke-width: 1.0;"/><text fill="#000000" font-family="sans-serif" font-size="11" font-style="italic" lengthAdjust="spacingAndGlyphs" textLength="53" x="231.75" y="257.8398">void flush()</text><ellipse cx="222.75" cy="269.459" fill="#84BE84" rx="3" ry="3" style="stroke: #038048; stroke-width: 1.0;"/><text fill="#000000" font-family="sans-serif" font-size="11" font-style="italic" lengthAdjust="spacingAndGlyphs" textLength="89" x="231.75" y="272.2344">int32_t numDocs()</text><ellipse cx="222.75" cy="283.8535" fill="#84BE84" rx="3" ry="3" style="stroke: #038048; stroke-width: 1.0;"/><text fill="#000000" font-family="sans-serif" font-size="11" font-style="italic" lengthAdjust="spacingAndGlyphs" textLength="84" x="231.75" y="286.6289">int32_t maxDoc()</text><ellipse cx="222.75" cy="298.248" fill="#84BE84" rx="3" ry="3" style="stroke: #038048; stroke-width: 1.0;"/><text fill="#000000" font-family="sans-serif" font-size="11" lengthAdjust="spacingAndGlyphs" textLength="15" x="231.75" y="301.0234">...()</text><path d="M91,76.496 C91,97.019 91,121.957 91,144.759 " fill="none" style="stroke: #A80036; stroke-width: 1.0;"/><polygon fill="none" points="84.0001,76.27,91,56.27,98.0001,76.27,84.0001,76.27" style="stroke: #A80036; stroke-width: 1.0;"/><path d="M315,76.612 C315,88.651 315,102.204 315,115.95 " fill="none" style="stroke: #A80036; stroke-width: 1.0;"/><polygon fill="none" points="308,76.27,315,56.27,322,76.27,308,76.27" style="stroke: #A80036; stroke-width: 1.0;"/></g></svg>