<?xml version="1.0" encoding="UTF-8" standalone="no"?>
<!DOCTYPE svg PUBLIC "-//W3C//DTD SVG 1.1//EN"
 "http://www.w3.org/Graphics/SVG/1.1/DTD/svg11.dtd">
<!-- Generated by graphviz version 2.39.20141219.0545 (20141219.0545)
 -->
<!-- Title: lucene Pages: 1 -->
<svg width="506pt" height="218pt"
 viewBox="0.00 0.00 505.65 218.00" xmlns="http://www.w3.org/2000/svg" xmlns:xlink="http://www.w3.org/1999/xlink">
<g id="graph0" class="graph" transform="scale(1 1) rotate(0) translate(4 214)">
<title>lucene</title>
<polygon fill="white" stroke="transparent" points="-4,4 -4,-214 501.651,-214 501.651,4 -4,4"/>
<!-- af -->
<g id="node1" class="node"><title>af</title>
<text text-anchor="start" x="282.218" y="-123.8" font-family="Times,serif" font-size="14.00" fill="#d73027">Document</text>
<text text-anchor="start" x="340.535" y="-123.8" font-family="Times,serif" font-size="14.00">.add(Field)</text>
</g>
<!-- ad -->
<g id="node2" class="node"><title>ad</title>
<text text-anchor="start" x="126.522" y="-65.8" font-family="Times,serif" font-size="14.00" fill="#d73027">IndexWriter</text>
<text text-anchor="start" x="194.375" y="-65.8" font-family="Times,serif" font-size="14.00">.addDocument(Document)</text>
</g>
<!-- af&#45;&gt;ad -->
<g id="edge2" class="edge"><title>af&#45;&gt;ad</title>
<path fill="none" stroke="black" d="M321.907,-115.954C305.694,-107.166 282.79,-94.7503 264.606,-84.8934"/>
<polygon fill="black" stroke="black" points="266.046,-81.6933 255.587,-80.0048 262.711,-87.8473 266.046,-81.6933"/>
</g>
<!-- IndexWriter.close() -->
<g id="node5" class="node"><title>IndexWriter.close()</title>
<text text-anchor="middle" x="235.285" y="-6.8" font-family="Times,serif" font-size="14.00">IndexWriter.close()</text>
</g>
<!-- ad&#45;&gt;IndexWriter.close() -->
<g id="edge4" class="edge"><title>ad&#45;&gt;IndexWriter.close()</title>
<path fill="none" stroke="black" d="M235.285,-57.817C235.285,-50.5956 235.285,-40.9676 235.285,-32.321"/>
<polygon fill="black" stroke="black" points="238.785,-32.1486 235.285,-22.1487 231.785,-32.1487 238.785,-32.1486"/>
</g>
<!-- f -->
<g id="node3" class="node"><title>f</title>
<text text-anchor="start" x="250.906" y="-195.8" font-family="Times,serif" font-size="14.00" fill="#d73027">Field</text>
<text text-anchor="start" x="279.685" y="-195.8" font-family="Times,serif" font-size="14.00">(FieldName, FieldContent, </text>
<text text-anchor="start" x="194.919" y="-181.8" font-family="Times,serif" font-size="14.00">Field::STORE_YES | Field::INDEX_TOKENIZED)</text>
</g>
<!-- f&#45;&gt;af -->
<g id="edge1" class="edge"><title>f&#45;&gt;af</title>
<path fill="none" stroke="black" d="M342.285,-173.894C342.285,-165.954 342.285,-156.577 342.285,-148.303"/>
<polygon fill="black" stroke="black" points="345.785,-148.276 342.285,-138.276 338.785,-148.276 345.785,-148.276"/>
</g>
<!-- a -->
<g id="node4" class="node"><title>a</title>
<text text-anchor="start" x="8" y="-123.8" font-family="Times,serif" font-size="14.00">writer = IndexWriter(IndexPath, </text>
<text text-anchor="start" x="192.604" y="-123.8" font-family="Times,serif" font-size="14.00" fill="#d73027">Analyzer</text>
<text text-anchor="start" x="243.908" y="-123.8" font-family="Times,serif" font-size="14.00">)</text>
</g>
<!-- a&#45;&gt;ad -->
<g id="edge3" class="edge"><title>a&#45;&gt;ad</title>
<path fill="none" stroke="black" d="M148.663,-115.954C164.876,-107.166 187.78,-94.7503 205.965,-84.8934"/>
<polygon fill="black" stroke="black" points="207.86,-87.8473 214.983,-80.0048 204.524,-81.6933 207.86,-87.8473"/>
</g>
</g>
</svg>
