<?xml version="1.0" encoding="UTF-8" standalone="yes"?><svg xmlns="http://www.w3.org/2000/svg" xmlns:xlink="http://www.w3.org/1999/xlink" height="263pt" style="width:818px;height:263px;" version="1.1" viewBox="0 0 818 263" width="818pt"><defs><filter height="300%" id="f1" width="300%" x="-1" y="-1"><feGaussianBlur result="blurOut" stdDeviation="2.0"/><feColorMatrix in="blurOut" result="blurOut2" type="matrix" values="0 0 0 0 0 0 0 0 0 0 0 0 0 0 0 0 0 0 .4 0"/><feOffset dx="4.0" dy="4.0" in="blurOut2" result="blurOut3"/><feBlend in="SourceGraphic" in2="blurOut3" mode="normal"/></filter></defs><g><rect fill="#FEFECE" filter="url(#f1)" height="48" style="stroke: #A80036; stroke-width: 1.5;" width="111" x="40" y="14.5"/><ellipse cx="55" cy="30.5" fill="#ADD1B2" rx="11" ry="11" style="stroke: #A80036; stroke-width: 1.0;"/><path d="M57.7031,26.4292 Q57.8691,26.1304 58.0435,26.0059 Q58.2178,25.8813 58.4834,25.8813 Q58.8901,25.8813 59.0603,26.0972 Q59.2305,26.313 59.2305,26.8359 L59.2471,28.9941 Q59.2471,29.5669 59.0603,29.7661 Q58.8735,29.9653 58.3838,29.9653 Q58.0352,29.9653 57.8484,29.7993 Q57.6616,29.6333 57.5288,29.1851 Q57.313,28.3965 56.8398,28.052 Q56.3667,27.7075 55.5283,27.7075 Q54.25,27.7075 53.5693,28.5708 Q52.8887,29.4341 52.8887,31.0693 Q52.8887,32.6963 53.5776,33.5679 Q54.2666,34.4395 55.5449,34.4395 Q56.4165,34.4395 57.4666,33.8584 Q58.5166,33.2773 58.7905,33.2773 Q59.1143,33.2773 59.3342,33.5513 Q59.5542,33.8252 59.5542,34.2319 Q59.5542,34.9624 58.2676,35.6099 Q56.981,36.2573 55.3706,36.2573 Q53.1958,36.2573 51.8511,34.8213 Q50.5063,33.3853 50.5063,31.0693 Q50.5063,28.8364 51.8677,27.3589 Q53.229,25.8813 55.3208,25.8813 Q55.9102,25.8813 56.4829,26.0142 Q57.0557,26.147 57.7031,26.4292 Z "/><text fill="#000000" font-family="sans-serif" font-size="12" lengthAdjust="spacingAndGlyphs" textLength="79" x="69" y="35.0352">LUCENE_BASE</text><line style="stroke: #A80036; stroke-width: 1.5;" x1="41" x2="150" y1="46.5" y2="46.5"/><line style="stroke: #A80036; stroke-width: 1.5;" x1="41" x2="150" y1="54.5" y2="54.5"/><rect fill="#FEFECE" filter="url(#f1)" height="125.7305" style="stroke: #A80036; stroke-width: 1.5;" width="179" x="6" y="129"/><ellipse cx="58.25" cy="145" fill="#ADD1B2" rx="11" ry="11" style="stroke: #A80036; stroke-width: 1.0;"/><path d="M60.9531,140.9292 Q61.1191,140.6304 61.2935,140.5059 Q61.4678,140.3813 61.7334,140.3813 Q62.1401,140.3813 62.3103,140.5972 Q62.4805,140.813 62.4805,141.3359 L62.4971,143.4941 Q62.4971,144.0669 62.3103,144.2661 Q62.1235,144.4653 61.6338,144.4653 Q61.2852,144.4653 61.0984,144.2993 Q60.9116,144.1333 60.7788,143.6851 Q60.563,142.8965 60.0898,142.552 Q59.6167,142.2075 58.7783,142.2075 Q57.5,142.2075 56.8193,143.0708 Q56.1387,143.9341 56.1387,145.5693 Q56.1387,147.1963 56.8276,148.0679 Q57.5166,148.9395 58.7949,148.9395 Q59.6665,148.9395 60.7166,148.3584 Q61.7666,147.7773 62.0405,147.7773 Q62.3643,147.7773 62.5842,148.0513 Q62.8042,148.3252 62.8042,148.7319 Q62.8042,149.4624 61.5176,150.1099 Q60.231,150.7573 58.6206,150.7573 Q56.4458,150.7573 55.1011,149.3213 Q53.7563,147.8853 53.7563,145.5693 Q53.7563,143.3364 55.1177,141.8589 Q56.479,140.3813 58.5708,140.3813 Q59.1602,140.3813 59.7329,140.5142 Q60.3057,140.647 60.9531,140.9292 Z "/><text fill="#000000" font-family="sans-serif" font-size="12" lengthAdjust="spacingAndGlyphs" textLength="66" x="78.75" y="149.5352">IndexWriter</text><line style="stroke: #A80036; stroke-width: 1.5;" x1="7" x2="184" y1="161" y2="161"/><rect fill="none" height="6" style="stroke: #C82930; stroke-width: 1.0;" width="6" x="14" y="169.9775"/><text fill="#000000" font-family="sans-serif" font-size="11" lengthAdjust="spacingAndGlyphs" textLength="100" x="26" y="175.6348">Analyzer* analyzer</text><rect fill="none" height="6" style="stroke: #C82930; stroke-width: 1.0;" width="6" x="14" y="182.9326"/><text fill="#000000" font-family="sans-serif" font-size="11" lengthAdjust="spacingAndGlyphs" textLength="106" x="26" y="188.5898">Similarity* similarity</text><rect fill="none" height="6" style="stroke: #C82930; stroke-width: 1.0;" width="6" x="14" y="195.8877"/><text fill="#000000" font-family="sans-serif" font-size="11" lengthAdjust="spacingAndGlyphs" textLength="153" x="26" y="201.5449">DocumentsWriter* docWriter</text><rect fill="none" height="6" style="stroke: #C82930; stroke-width: 1.0;" width="6" x="14" y="208.8428"/><text fill="#000000" font-family="sans-serif" font-size="11" lengthAdjust="spacingAndGlyphs" textLength="122" x="26" y="214.5">LuceneLock* writeLock</text><line style="stroke: #A80036; stroke-width: 1.5;" x1="7" x2="184" y1="220.8203" y2="220.8203"/><ellipse cx="17" cy="232.7979" fill="#84BE84" rx="3" ry="3" style="stroke: #038048; stroke-width: 1.0;"/><text fill="#000000" font-family="sans-serif" font-size="11" lengthAdjust="spacingAndGlyphs" textLength="126" x="26" y="235.4551">void updateDocument()</text><ellipse cx="17" cy="245.7529" fill="#84BE84" rx="3" ry="3" style="stroke: #038048; stroke-width: 1.0;"/><text fill="#000000" font-family="sans-serif" font-size="11" lengthAdjust="spacingAndGlyphs" textLength="109" x="26" y="248.4102">void addDocument()</text><rect fill="#FEFECE" filter="url(#f1)" height="112.7754" style="stroke: #A80036; stroke-width: 1.5;" width="175" x="220" y="135.5"/><ellipse cx="255.25" cy="151.5" fill="#ADD1B2" rx="11" ry="11" style="stroke: #A80036; stroke-width: 1.0;"/><path d="M257.9531,147.4292 Q258.1191,147.1304 258.2935,147.0059 Q258.4678,146.8813 258.7334,146.8813 Q259.1401,146.8813 259.3103,147.0972 Q259.4805,147.313 259.4805,147.8359 L259.4971,149.9941 Q259.4971,150.5669 259.3103,150.7661 Q259.1235,150.9653 258.6338,150.9653 Q258.2852,150.9653 258.0984,150.7993 Q257.9116,150.6333 257.7788,150.1851 Q257.563,149.3965 257.0898,149.052 Q256.6167,148.7075 255.7783,148.7075 Q254.5,148.7075 253.8193,149.5708 Q253.1387,150.4341 253.1387,152.0693 Q253.1387,153.6963 253.8276,154.5679 Q254.5166,155.4395 255.7949,155.4395 Q256.6665,155.4395 257.7166,154.8584 Q258.7666,154.2773 259.0405,154.2773 Q259.3643,154.2773 259.5842,154.5513 Q259.8042,154.8252 259.8042,155.2319 Q259.8042,155.9624 258.5176,156.6099 Q257.231,157.2573 255.6206,157.2573 Q253.4458,157.2573 252.1011,155.8213 Q250.7563,154.3853 250.7563,152.0693 Q250.7563,149.8364 252.1177,148.3589 Q253.479,146.8813 255.5708,146.8813 Q256.1602,146.8813 256.7329,147.0142 Q257.3057,147.147 257.9531,147.4292 Z "/><text fill="#000000" font-family="sans-serif" font-size="12" lengthAdjust="spacingAndGlyphs" textLength="98" x="273.75" y="156.0352">DocumentsWriter</text><line style="stroke: #A80036; stroke-width: 1.5;" x1="221" x2="394" y1="167.5" y2="167.5"/><rect fill="none" height="6" style="stroke: #C82930; stroke-width: 1.0;" width="6" x="228" y="176.4775"/><text fill="#000000" font-family="sans-serif" font-size="11" lengthAdjust="spacingAndGlyphs" textLength="101" x="240" y="182.1348">IndexWriter* writer</text><rect fill="none" height="6" style="stroke: #C82930; stroke-width: 1.0;" width="6" x="228" y="189.4326"/><text fill="#000000" font-family="sans-serif" font-size="11" lengthAdjust="spacingAndGlyphs" textLength="107" x="240" y="195.0898">Directory* directory</text><rect fill="none" height="6" style="stroke: #C82930; stroke-width: 1.0;" width="6" x="228" y="202.3877"/><text fill="#000000" font-family="sans-serif" font-size="11" lengthAdjust="spacingAndGlyphs" textLength="132" x="240" y="208.0449">FieldsWriter* fieldsWriter</text><rect fill="none" height="6" style="stroke: #C82930; stroke-width: 1.0;" width="6" x="228" y="221.8203"/><text fill="#000000" font-family="sans-serif" font-size="11" lengthAdjust="spacingAndGlyphs" textLength="146" x="240" y="221">ValueArray&lt;ThreadState*&gt;</text><text fill="#000000" font-family="sans-serif" font-size="11" lengthAdjust="spacingAndGlyphs" textLength="67" x="243" y="233.9551">threadStates</text><line style="stroke: #A80036; stroke-width: 1.5;" x1="221" x2="394" y1="240.2754" y2="240.2754"/><rect fill="#FEFECE" filter="url(#f1)" height="86.8652" style="stroke: #A80036; stroke-width: 1.5;" width="185" x="430" y="148.5"/><ellipse cx="483.25" cy="164.5" fill="#ADD1B2" rx="11" ry="11" style="stroke: #A80036; stroke-width: 1.0;"/><path d="M485.9531,160.4292 Q486.1191,160.1304 486.2935,160.0059 Q486.4678,159.8813 486.7334,159.8813 Q487.1401,159.8813 487.3103,160.0972 Q487.4805,160.313 487.4805,160.8359 L487.4971,162.9941 Q487.4971,163.5669 487.3103,163.7661 Q487.1235,163.9653 486.6338,163.9653 Q486.2852,163.9653 486.0984,163.7993 Q485.9116,163.6333 485.7788,163.1851 Q485.563,162.3965 485.0898,162.052 Q484.6167,161.7075 483.7783,161.7075 Q482.5,161.7075 481.8193,162.5708 Q481.1387,163.4341 481.1387,165.0693 Q481.1387,166.6963 481.8276,167.5679 Q482.5166,168.4395 483.7949,168.4395 Q484.6665,168.4395 485.7166,167.8584 Q486.7666,167.2773 487.0405,167.2773 Q487.3643,167.2773 487.5842,167.5513 Q487.8042,167.8252 487.8042,168.2319 Q487.8042,168.9624 486.5176,169.6099 Q485.231,170.2573 483.6206,170.2573 Q481.4458,170.2573 480.1011,168.8213 Q478.7563,167.3853 478.7563,165.0693 Q478.7563,162.8364 480.1177,161.3589 Q481.479,159.8813 483.5708,159.8813 Q484.1602,159.8813 484.7329,160.0142 Q485.3057,160.147 485.9531,160.4292 Z "/><text fill="#000000" font-family="sans-serif" font-size="12" lengthAdjust="spacingAndGlyphs" textLength="70" x="503.75" y="169.0352">ThreadState</text><line style="stroke: #A80036; stroke-width: 1.5;" x1="431" x2="614" y1="180.5" y2="180.5"/><rect fill="none" height="6" style="stroke: #C82930; stroke-width: 1.0;" width="6" x="438" y="195.9551"/><text fill="#000000" font-family="sans-serif" font-size="11" lengthAdjust="spacingAndGlyphs" textLength="131" x="450" y="195.1348">ValueArray&lt;FieldData*&gt;</text><text fill="#000000" font-family="sans-serif" font-size="11" lengthAdjust="spacingAndGlyphs" textLength="77" x="453" y="208.0898">fieldDataArray</text><ellipse cx="441" cy="218.3877" fill="none" rx="3" ry="3" style="stroke: #038048; stroke-width: 1.0;"/><text fill="#000000" font-family="sans-serif" font-size="11" lengthAdjust="spacingAndGlyphs" textLength="159" x="450" y="221.0449">FieldsWriter* localFieldsWriter</text><line style="stroke: #A80036; stroke-width: 1.5;" x1="431" x2="614" y1="227.3652" y2="227.3652"/><rect fill="#FEFECE" filter="url(#f1)" height="86.8652" style="stroke: #A80036; stroke-width: 1.5;" width="159" x="650" y="148.5"/><ellipse cx="698.25" cy="164.5" fill="#ADD1B2" rx="11" ry="11" style="stroke: #A80036; stroke-width: 1.0;"/><path d="M700.9531,160.4292 Q701.1191,160.1304 701.2935,160.0059 Q701.4678,159.8813 701.7334,159.8813 Q702.1401,159.8813 702.3103,160.0972 Q702.4805,160.313 702.4805,160.8359 L702.4971,162.9941 Q702.4971,163.5669 702.3103,163.7661 Q702.1235,163.9653 701.6338,163.9653 Q701.2852,163.9653 701.0984,163.7993 Q700.9116,163.6333 700.7788,163.1851 Q700.563,162.3965 700.0898,162.052 Q699.6167,161.7075 698.7783,161.7075 Q697.5,161.7075 696.8193,162.5708 Q696.1387,163.4341 696.1387,165.0693 Q696.1387,166.6963 696.8276,167.5679 Q697.5166,168.4395 698.7949,168.4395 Q699.6665,168.4395 700.7166,167.8584 Q701.7666,167.2773 702.0405,167.2773 Q702.3643,167.2773 702.5842,167.5513 Q702.8042,167.8252 702.8042,168.2319 Q702.8042,168.9624 701.5176,169.6099 Q700.231,170.2573 698.6206,170.2573 Q696.4458,170.2573 695.1011,168.8213 Q693.7563,167.3853 693.7563,165.0693 Q693.7563,162.8364 695.1177,161.3589 Q696.479,159.8813 698.5708,159.8813 Q699.1602,159.8813 699.7329,160.0142 Q700.3057,160.147 700.9531,160.4292 Z "/><text fill="#000000" font-family="sans-serif" font-size="12" lengthAdjust="spacingAndGlyphs" textLength="54" x="718.75" y="169.0352">FieldData</text><line style="stroke: #A80036; stroke-width: 1.5;" x1="651" x2="808" y1="180.5" y2="180.5"/><rect fill="none" height="6" style="stroke: #C82930; stroke-width: 1.0;" width="6" x="658" y="189.4775"/><text fill="#000000" font-family="sans-serif" font-size="11" lengthAdjust="spacingAndGlyphs" textLength="133" x="670" y="195.1348">ThreadState* threadState</text><line style="stroke: #A80036; stroke-width: 1.5;" x1="651" x2="808" y1="201.4551" y2="201.4551"/><ellipse cx="661" cy="213.4326" fill="#84BE84" rx="3" ry="3" style="stroke: #038048; stroke-width: 1.0;"/><text fill="#000000" font-family="sans-serif" font-size="11" lengthAdjust="spacingAndGlyphs" textLength="102" x="670" y="216.0898">void processField()</text><ellipse cx="661" cy="226.3877" fill="#84BE84" rx="3" ry="3" style="stroke: #038048; stroke-width: 1.0;"/><text fill="#000000" font-family="sans-serif" font-size="11" lengthAdjust="spacingAndGlyphs" textLength="90" x="670" y="229.0449">void invertField()</text><rect fill="#FEFECE" filter="url(#f1)" height="60.9551" style="stroke: #A80036; stroke-width: 1.5;" width="111" x="467" y="8"/><ellipse cx="487.4" cy="24" fill="#ADD1B2" rx="11" ry="11" style="stroke: #A80036; stroke-width: 1.0;"/><path d="M490.1031,19.9292 Q490.2691,19.6304 490.4435,19.5059 Q490.6178,19.3813 490.8834,19.3813 Q491.2901,19.3813 491.4603,19.5972 Q491.6305,19.813 491.6305,20.3359 L491.6471,22.4941 Q491.6471,23.0669 491.4603,23.2661 Q491.2735,23.4653 490.7838,23.4653 Q490.4352,23.4653 490.2484,23.2993 Q490.0616,23.1333 489.9288,22.6851 Q489.713,21.8965 489.2398,21.552 Q488.7667,21.2075 487.9283,21.2075 Q486.65,21.2075 485.9693,22.0708 Q485.2887,22.9341 485.2887,24.5693 Q485.2887,26.1963 485.9776,27.0679 Q486.6666,27.9395 487.9449,27.9395 Q488.8165,27.9395 489.8666,27.3584 Q490.9166,26.7773 491.1905,26.7773 Q491.5143,26.7773 491.7342,27.0513 Q491.9542,27.3252 491.9542,27.7319 Q491.9542,28.4624 490.6676,29.1099 Q489.381,29.7573 487.7706,29.7573 Q485.5958,29.7573 484.2511,28.3213 Q482.9063,26.8853 482.9063,24.5693 Q482.9063,22.3364 484.2677,20.8589 Q485.629,19.3813 487.7208,19.3813 Q488.3102,19.3813 488.8829,19.5142 Q489.4557,19.647 490.1031,19.9292 Z "/><text fill="#000000" font-family="sans-serif" font-size="12" lengthAdjust="spacingAndGlyphs" textLength="67" x="502.6" y="28.5352">FieldsWriter</text><line style="stroke: #A80036; stroke-width: 1.5;" x1="468" x2="577" y1="40" y2="40"/><line style="stroke: #A80036; stroke-width: 1.5;" x1="468" x2="577" y1="48" y2="48"/><ellipse cx="478" cy="59.9775" fill="#84BE84" rx="3" ry="3" style="stroke: #038048; stroke-width: 1.0;"/><text fill="#000000" font-family="sans-serif" font-size="11" lengthAdjust="spacingAndGlyphs" textLength="85" x="487" y="62.6348">void writeField()</text><path d="M95.5,83.058 C95.5,97.318 95.5,113.389 95.5,128.719 " fill="none" style="stroke: #A80036; stroke-width: 1.0;"/><polygon fill="none" points="88.5001,82.823,95.5,62.823,102.5001,82.822,88.5001,82.823" style="stroke: #A80036; stroke-width: 1.0;"/><path d="M198.503,192 C201.153,192 203.804,192 206.454,192 " fill="none" style="stroke: #A80036; stroke-width: 1.0;"/><polygon fill="#A80036" points="219.706,192,210.706,188,214.706,192,210.706,196,219.706,192" style="stroke: #A80036; stroke-width: 1.0;"/><line style="stroke: #A80036; stroke-width: 1.0;" x1="214.706" x2="206.706" y1="192" y2="191.9999"/><polygon fill="none" points="185.352,192,191.352,196,197.352,192,191.352,188,185.352,192" style="stroke: #A80036; stroke-width: 1.0;"/><path d="M408.392,192 C411.038,192 413.683,192 416.329,192 " fill="none" style="stroke: #A80036; stroke-width: 1.0;"/><polygon fill="#A80036" points="429.558,192,420.558,188,424.558,192,420.558,196,429.558,192" style="stroke: #A80036; stroke-width: 1.0;"/><line style="stroke: #A80036; stroke-width: 1.0;" x1="424.558" x2="416.558" y1="192" y2="191.9999"/><polygon fill="none" points="395.264,192,401.264,196,407.264,192,401.264,188,395.264,192" style="stroke: #A80036; stroke-width: 1.0;"/><path d="M628.157,192 C630.994,192 633.831,192 636.668,192 " fill="none" style="stroke: #A80036; stroke-width: 1.0;"/><polygon fill="#A80036" points="649.945,192,640.945,188,644.945,192,640.945,196,649.945,192" style="stroke: #A80036; stroke-width: 1.0;"/><line style="stroke: #A80036; stroke-width: 1.0;" x1="644.945" x2="636.945" y1="192" y2="191.9999"/><polygon fill="none" points="615.084,192,621.084,196,627.084,192,621.084,188,615.084,192" style="stroke: #A80036; stroke-width: 1.0;"/><path d="M522.5,82.445 C522.5,98.821 522.5,117.652 522.5,135.03 " fill="none" style="stroke: #A80036; stroke-width: 1.0;"/><polygon fill="none" points="522.5,148.275,526.5,142.275,522.5,136.275,518.5,142.275,522.5,148.275" style="stroke: #A80036; stroke-width: 1.0;"/><polygon fill="#A80036" points="522.5,69.194,518.5,78.194,522.5,74.194,526.5,78.194,522.5,69.194" style="stroke: #A80036; stroke-width: 1.0;"/><line style="stroke: #A80036; stroke-width: 1.0;" x1="522.5" x2="522.5" y1="74.194" y2="82.194"/></g></svg>