<?xml version="1.0" encoding="UTF-8" standalone="no"?>
<!DOCTYPE svg PUBLIC "-//W3C//DTD SVG 1.1//EN"
 "http://www.w3.org/Graphics/SVG/1.1/DTD/svg11.dtd">
<!-- Generated by graphviz version 2.39.20141219.0545 (20141219.0545)
 -->
<!-- Title: index Pages: 1 -->
<svg width="377pt" height="288pt"
 viewBox="0.00 0.00 377.24 288.00" xmlns="http://www.w3.org/2000/svg" xmlns:xlink="http://www.w3.org/1999/xlink">
<g id="graph0" class="graph" transform="scale(1 1) rotate(0) translate(4 284)">
<title>index</title>
<polygon fill="white" stroke="transparent" points="-4,4 -4,-284 373.24,-284 373.24,4 -4,4"/>
<!-- ad -->
<g id="node1" class="node"><title>ad</title>
<text text-anchor="middle" x="184.62" y="-264.8" font-family="Times,serif" font-size="14.00">index/IndexWriter.cpp</text>
<text text-anchor="middle" x="184.62" y="-250.8" font-family="Times,serif" font-size="14.00"> IndexWriter::addDocument</text>
</g>
<!-- dw -->
<g id="node2" class="node"><title>dw</title>
<text text-anchor="middle" x="184.62" y="-192.8" font-family="Times,serif" font-size="14.00">index/DocumentsWriter.cpp</text>
<text text-anchor="middle" x="184.62" y="-178.8" font-family="Times,serif" font-size="14.00"> docWriter&#45;&gt;addDocument(doc, analyzer)</text>
</g>
<!-- ad&#45;&gt;dw -->
<g id="edge1" class="edge"><title>ad&#45;&gt;dw</title>
<path fill="none" stroke="#d73027" d="M184.62,-243.831C184.62,-236.131 184.62,-226.974 184.62,-218.417"/>
<polygon fill="#d73027" stroke="#d73027" points="188.12,-218.413 184.62,-208.413 181.12,-218.413 188.12,-218.413"/>
</g>
<!-- pd -->
<g id="node3" class="node"><title>pd</title>
<text text-anchor="middle" x="184.62" y="-120.8" font-family="Times,serif" font-size="14.00">index/DocumentsWriterThreadState.cpp</text>
<text text-anchor="middle" x="184.62" y="-106.8" font-family="Times,serif" font-size="14.00"> state&#45;&gt;processDocument(analyzer)</text>
</g>
<!-- dw&#45;&gt;pd -->
<g id="edge2" class="edge"><title>dw&#45;&gt;pd</title>
<path fill="none" stroke="#d73027" d="M184.62,-171.831C184.62,-164.131 184.62,-154.974 184.62,-146.417"/>
<polygon fill="#d73027" stroke="#d73027" points="188.12,-146.413 184.62,-136.413 181.12,-146.413 188.12,-146.413"/>
</g>
<!-- pf -->
<g id="node4" class="node"><title>pf</title>
<text text-anchor="middle" x="184.62" y="-48.8" font-family="Times,serif" font-size="14.00">def: index/_DocumentsWriter.h</text>
<text text-anchor="middle" x="184.62" y="-34.8" font-family="Times,serif" font-size="14.00"> (imp: index/DocumentsWriterThreadState.cpp</text>
<text text-anchor="middle" x="184.62" y="-20.8" font-family="Times,serif" font-size="14.00"> void DocumentsWriter::ThreadState::FieldData::processField)</text>
<text text-anchor="middle" x="184.62" y="-6.8" font-family="Times,serif" font-size="14.00"> &#160;fieldDataArray[i]&#45;&gt;processField(analyzer)</text>
</g>
<!-- pd&#45;&gt;pf -->
<g id="edge3" class="edge"><title>pd&#45;&gt;pf</title>
<path fill="none" stroke="#d73027" d="M184.62,-99.7616C184.62,-92.2386 184.62,-83.1818 184.62,-74.1733"/>
<polygon fill="#d73027" stroke="#d73027" points="188.12,-74.1073 184.62,-64.1073 181.12,-74.1073 188.12,-74.1073"/>
</g>
</g>
</svg>
