<?xml version="1.0" encoding="UTF-8" standalone="no"?>
<!DOCTYPE svg PUBLIC "-//W3C//DTD SVG 1.1//EN"
 "http://www.w3.org/Graphics/SVG/1.1/DTD/svg11.dtd">
<!-- Generated by graphviz version 2.36.0 (20140111.2315)
 -->
<!-- Title: lucene Pages: 1 -->
<svg width="497pt" height="224pt"
 viewBox="0.00 0.00 497.00 224.00" xmlns="http://www.w3.org/2000/svg" xmlns:xlink="http://www.w3.org/1999/xlink">
<g id="graph0" class="graph" transform="scale(1 1) rotate(0) translate(4 220)">
<title>lucene</title>
<polygon fill="white" stroke="none" points="-4,4 -4,-220 493,-220 493,4 -4,4"/>
<!-- af -->
<g id="node1" class="node"><title>af</title>
<text text-anchor="start" x="278.5" y="-129.3" font-family="Times,serif" font-size="14.00" fill="red">Document</text>
<text text-anchor="start" x="336.5" y="-129.3" font-family="Times,serif" font-size="14.00">.add(Field)</text>
</g>
<!-- ad -->
<g id="node2" class="node"><title>ad</title>
<text text-anchor="start" x="125" y="-69.3" font-family="Times,serif" font-size="14.00" fill="red">IndexWriter</text>
<text text-anchor="start" x="192" y="-69.3" font-family="Times,serif" font-size="14.00">.addDocument(Document)</text>
</g>
<!-- af&#45;&gt;ad -->
<g id="edge2" class="edge"><title>af&#45;&gt;ad</title>
<path fill="none" stroke="black" d="M318.558,-120.362C302.196,-111.409 278.587,-98.4908 260.157,-88.4064"/>
<polygon fill="black" stroke="black" points="261.771,-85.3004 251.319,-83.5707 258.411,-91.4412 261.771,-85.3004"/>
</g>
<!-- IndexWriter.close() -->
<g id="node5" class="node"><title>IndexWriter.close()</title>
<text text-anchor="middle" x="232" y="-8.3" font-family="Times,serif" font-size="14.00">IndexWriter.close()</text>
</g>
<!-- ad&#45;&gt;IndexWriter.close() -->
<g id="edge4" class="edge"><title>ad&#45;&gt;IndexWriter.close()</title>
<path fill="none" stroke="black" d="M232,-60.3619C232,-52.9219 232,-42.7427 232,-33.7276"/>
<polygon fill="black" stroke="black" points="235.5,-33.5706 232,-23.5707 228.5,-33.5707 235.5,-33.5706"/>
</g>
<!-- f -->
<g id="node3" class="node"><title>f</title>
<text text-anchor="start" x="248.5" y="-201.8" font-family="Times,serif" font-size="14.00" fill="red">Field</text>
<text text-anchor="start" x="276.5" y="-201.8" font-family="Times,serif" font-size="14.00">(FieldName, FieldContent, </text>
<text text-anchor="start" x="195" y="-187.8" font-family="Times,serif" font-size="14.00">Field::STORE_YES | Field::INDEX_TOKENIZED)</text>
</g>
<!-- f&#45;&gt;af -->
<g id="edge1" class="edge"><title>f&#45;&gt;af</title>
<path fill="none" stroke="black" d="M338,-179.849C338,-171.817 338,-162.18 338,-153.741"/>
<polygon fill="black" stroke="black" points="341.5,-153.573 338,-143.573 334.5,-153.573 341.5,-153.573"/>
</g>
<!-- a -->
<g id="node4" class="node"><title>a</title>
<text text-anchor="start" x="7.5" y="-129.3" font-family="Times,serif" font-size="14.00">writer = IndexWriter(IndexPath, </text>
<text text-anchor="start" x="189.5" y="-129.3" font-family="Times,serif" font-size="14.00" fill="red">Analyzer</text>
<text text-anchor="start" x="239.5" y="-129.3" font-family="Times,serif" font-size="14.00">)</text>
</g>
<!-- a&#45;&gt;ad -->
<g id="edge3" class="edge"><title>a&#45;&gt;ad</title>
<path fill="none" stroke="black" d="M145.442,-120.362C161.804,-111.409 185.413,-98.4908 203.843,-88.4064"/>
<polygon fill="black" stroke="black" points="205.589,-91.4412 212.681,-83.5707 202.229,-85.3004 205.589,-91.4412"/>
</g>
</g>
</svg>
