<?xml version="1.0" encoding="UTF-8" standalone="yes"?><svg xmlns="http://www.w3.org/2000/svg" xmlns:xlink="http://www.w3.org/1999/xlink" height="302pt" style="width:240px;height:302px;" version="1.1" viewBox="0 0 240 302" width="240pt"><defs><filter height="300%" id="f1" width="300%" x="-1" y="-1"><feGaussianBlur result="blurOut" stdDeviation="2.0"/><feColorMatrix in="blurOut" result="blurOut2" type="matrix" values="0 0 0 0 0 0 0 0 0 0 0 0 0 0 0 0 0 0 .4 0"/><feOffset dx="4.0" dy="4.0" in="blurOut2" result="blurOut3"/><feBlend in="SourceGraphic" in2="blurOut3" mode="normal"/></filter></defs><g><rect fill="#FEFECE" filter="url(#f1)" height="48" style="stroke: #A80036; stroke-width: 1.5;" width="112" x="62.5" y="8"/><ellipse cx="77.5" cy="24" fill="#ADD1B2" rx="11" ry="11" style="stroke: #A80036; stroke-width: 1.0;"/><path d="M80.2031,19.9292 Q80.3691,19.6304 80.5435,19.5059 Q80.7178,19.3813 80.9834,19.3813 Q81.3901,19.3813 81.5603,19.5972 Q81.7305,19.813 81.7305,20.3359 L81.7471,22.4941 Q81.7471,23.0669 81.5603,23.2661 Q81.3735,23.4653 80.8838,23.4653 Q80.5352,23.4653 80.3484,23.2993 Q80.1616,23.1333 80.0288,22.6851 Q79.813,21.8965 79.3398,21.552 Q78.8667,21.2075 78.0283,21.2075 Q76.75,21.2075 76.0693,22.0708 Q75.3887,22.9341 75.3887,24.5693 Q75.3887,26.1963 76.0776,27.0679 Q76.7666,27.9395 78.0449,27.9395 Q78.9165,27.9395 79.9666,27.3584 Q81.0166,26.7773 81.2905,26.7773 Q81.6143,26.7773 81.8342,27.0513 Q82.0542,27.3252 82.0542,27.7319 Q82.0542,28.4624 80.7676,29.1099 Q79.481,29.7573 77.8706,29.7573 Q75.6958,29.7573 74.3511,28.3213 Q73.0063,26.8853 73.0063,24.5693 Q73.0063,22.3364 74.3677,20.8589 Q75.729,19.3813 77.8208,19.3813 Q78.4102,19.3813 78.9829,19.5142 Q79.5557,19.647 80.2031,19.9292 Z "/><text fill="#000000" font-family="sans-serif" font-size="12" lengthAdjust="spacingAndGlyphs" textLength="80" x="91.5" y="28.5352">NamedObject</text><line style="stroke: #A80036; stroke-width: 1.5;" x1="63.5" x2="173.5" y1="40" y2="40"/><line style="stroke: #A80036; stroke-width: 1.5;" x1="63.5" x2="173.5" y1="48" y2="48"/><rect fill="#FEFECE" filter="url(#f1)" height="177.5508" style="stroke: #A80036; stroke-width: 1.5;" width="225" x="6" y="116"/><ellipse cx="77.25" cy="132" fill="#A9DCDF" rx="11" ry="11" style="stroke: #A80036; stroke-width: 1.0;"/><path d="M81.5303,134.4321 L81.6714,134.4321 Q82.1196,134.4321 82.3521,134.6604 Q82.5845,134.8887 82.5845,135.3286 Q82.5845,135.8184 82.3396,136.0342 Q82.0947,136.25 81.5303,136.25 L79.0317,136.25 Q78.459,136.25 78.2183,136.0383 Q77.9775,135.8267 77.9775,135.3286 Q77.9775,134.8472 78.2183,134.6396 Q78.459,134.4321 79.0317,134.4321 L79.3223,134.4321 L78.9819,133.4609 L75.396,133.4609 L75.0391,134.4321 L75.3296,134.4321 Q75.894,134.4321 76.1389,134.6438 Q76.3838,134.8555 76.3838,135.3286 Q76.3838,135.8184 76.1389,136.0342 Q75.894,136.25 75.3296,136.25 L73.188,136.25 Q72.6152,136.25 72.3745,136.0342 Q72.1338,135.8184 72.1338,135.3286 Q72.1338,134.8887 72.3662,134.6604 Q72.5986,134.4321 73.0469,134.4321 L73.188,134.4321 L75.4126,128.2397 L74.7485,128.2397 Q74.1841,128.2397 73.9392,128.0239 Q73.6943,127.8081 73.6943,127.3267 Q73.6943,126.8369 73.9392,126.6211 Q74.1841,126.4053 74.7485,126.4053 L77.8613,126.4053 Q78.6001,126.4053 78.8989,127.2021 L78.8989,127.2271 Z M77.1807,128.2397 L75.9771,131.7427 L78.3843,131.7427 Z "/><text fill="#000000" font-family="sans-serif" font-size="12" font-style="italic" lengthAdjust="spacingAndGlyphs" textLength="74" x="97.75" y="136.5352">IndexReader</text><line style="stroke: #A80036; stroke-width: 1.5;" x1="7" x2="230" y1="148" y2="148"/><ellipse cx="17" cy="159.9775" fill="none" rx="3" ry="3" style="stroke: #038048; stroke-width: 1.0;"/><text fill="#000000" font-family="sans-serif" font-size="11" lengthAdjust="spacingAndGlyphs" textLength="96" x="26" y="162.6348">Internal* _internal</text><ellipse cx="17" cy="172.9326" fill="none" rx="3" ry="3" style="stroke: #038048; stroke-width: 1.0;"/><text fill="#000000" font-family="sans-serif" font-size="11" font-style="italic" lengthAdjust="spacingAndGlyphs" textLength="199" x="26" y="175.5898">TermFreqVector* getTermFreqVector</text><line style="stroke: #A80036; stroke-width: 1.5;" x1="7" x2="230" y1="181.9102" y2="181.9102"/><polygon fill="#FFFF44" points="17,188.8877,21,192.8877,17,196.8877,13,192.8877" style="stroke: #B38D22; stroke-width: 1.0;"/><text fill="#000000" font-family="sans-serif" font-size="11" font-style="italic" lengthAdjust="spacingAndGlyphs" textLength="78" x="26" y="196.5449">void doClose()</text><polygon fill="#FFFF44" points="17,201.8428,21,205.8428,17,209.8428,13,205.8428" style="stroke: #B38D22; stroke-width: 1.0;"/><text fill="#000000" font-family="sans-serif" font-size="11" font-style="italic" lengthAdjust="spacingAndGlyphs" textLength="81" x="26" y="209.5">void doDelete()</text><polygon fill="#FFFF44" points="17,214.7979,21,218.7979,17,222.7979,13,218.7979" style="stroke: #B38D22; stroke-width: 1.0;"/><text fill="#000000" font-family="sans-serif" font-size="11" font-style="italic" lengthAdjust="spacingAndGlyphs" textLength="90" x="26" y="222.4551">void doCommit()</text><ellipse cx="17" cy="232.7529" fill="#84BE84" rx="3" ry="3" style="stroke: #038048; stroke-width: 1.0;"/><text fill="#000000" font-family="sans-serif" font-size="11" lengthAdjust="spacingAndGlyphs" text-decoration="underline" textLength="110" x="26" y="235.4102">IndexReader* open()</text><line style="stroke: #000000; stroke-width: 1.0;" x1="26" x2="136" y1="237.4102" y2="237.4102"/><ellipse cx="17" cy="245.708" fill="#84BE84" rx="3" ry="3" style="stroke: #038048; stroke-width: 1.0;"/><text fill="#000000" font-family="sans-serif" font-size="11" font-style="italic" lengthAdjust="spacingAndGlyphs" textLength="61" x="26" y="248.3652">void flush()</text><ellipse cx="17" cy="258.6631" fill="#84BE84" rx="3" ry="3" style="stroke: #038048; stroke-width: 1.0;"/><text fill="#000000" font-family="sans-serif" font-size="11" font-style="italic" lengthAdjust="spacingAndGlyphs" textLength="100" x="26" y="261.3203">int32_t numDocs()</text><ellipse cx="17" cy="271.6182" fill="#84BE84" rx="3" ry="3" style="stroke: #038048; stroke-width: 1.0;"/><text fill="#000000" font-family="sans-serif" font-size="11" font-style="italic" lengthAdjust="spacingAndGlyphs" textLength="93" x="26" y="274.2754">int32_t maxDoc()</text><ellipse cx="17" cy="284.5732" fill="#84BE84" rx="3" ry="3" style="stroke: #038048; stroke-width: 1.0;"/><text fill="#000000" font-family="sans-serif" font-size="11" lengthAdjust="spacingAndGlyphs" textLength="17" x="26" y="287.2305">...()</text><path d="M118.5,76.146 C118.5,88.377 118.5,102.108 118.5,115.927 " fill="none" style="stroke: #A80036; stroke-width: 1.0;"/><polygon fill="none" points="111.5,76.055,118.5,56.055,125.5,76.055,111.5,76.055" style="stroke: #A80036; stroke-width: 1.0;"/></g></svg>