<?xml version="1.0" encoding="UTF-8" standalone="no"?>
<!DOCTYPE svg PUBLIC "-//W3C//DTD SVG 1.1//EN"
 "http://www.w3.org/Graphics/SVG/1.1/DTD/svg11.dtd">
<!-- Generated by graphviz version 2.39.20141219.0545 (20141219.0545)
 -->
<!-- Title: process Pages: 1 -->
<svg width="412pt" height="70pt"
 viewBox="0.00 0.00 412.41 70.00" xmlns="http://www.w3.org/2000/svg" xmlns:xlink="http://www.w3.org/1999/xlink">
<g id="graph0" class="graph" transform="scale(1 1) rotate(0) translate(4 66)">
<title>process</title>
<polygon fill="white" stroke="transparent" points="-4,4 -4,-66 408.41,-66 408.41,4 -4,4"/>
<!-- pf -->
<g id="node1" class="node"><title>pf</title>
<text text-anchor="middle" x="79.5381" y="-26.8" font-family="Times,serif" font-size="14.00">FieldData::processField()</text>
</g>
<!-- if -->
<g id="node2" class="node"><title>if</title>
<text text-anchor="middle" x="361.031" y="-46.8" font-family="Times,serif" font-size="14.00">invertField()</text>
</g>
<!-- pf&#45;&gt;if -->
<g id="edge1" class="edge"><title>pf&#45;&gt;if</title>
<path fill="none" stroke="#d73027" d="M159.45,-36.6777C206.901,-40.0491 265.775,-44.2321 307.619,-47.2051"/>
<polygon fill="#d73027" stroke="#d73027" points="307.384,-50.6971 317.607,-47.9147 307.88,-43.7147 307.384,-50.6971"/>
<text text-anchor="middle" x="238.364" y="-48.8" font-family="Times,serif" font-size="14.00">if (field&#45;&gt;isIndexed())</text>
</g>
<!-- wf -->
<g id="node3" class="node"><title>wf</title>
<text text-anchor="middle" x="361.031" y="-6.8" font-family="Times,serif" font-size="14.00">writeField()</text>
</g>
<!-- pf&#45;&gt;wf -->
<g id="edge2" class="edge"><title>pf&#45;&gt;wf</title>
<path fill="none" stroke="#d73027" d="M159.078,-21.6085C165.164,-21.0188 171.216,-20.4733 177.076,-20 221.648,-16.4 272.42,-14.0473 309.316,-12.6536"/>
<polygon fill="#d73027" stroke="#d73027" points="309.474,-16.1503 319.338,-12.2857 309.217,-9.15502 309.474,-16.1503"/>
<text text-anchor="middle" x="238.364" y="-22.8" font-family="Times,serif" font-size="14.00">if(field&#45;&gt;isStored())</text>
</g>
</g>
</svg>
