<?xml version="1.0" encoding="UTF-8" standalone="no"?>
<!DOCTYPE svg PUBLIC "-//W3C//DTD SVG 1.1//EN"
 "http://www.w3.org/Graphics/SVG/1.1/DTD/svg11.dtd">
<!-- Generated by graphviz version 2.39.20141219.0545 (20141219.0545)
 -->
<!-- Title: search Pages: 1 -->
<svg width="665pt" height="174pt"
 viewBox="0.00 0.00 664.94 174.00" xmlns="http://www.w3.org/2000/svg" xmlns:xlink="http://www.w3.org/1999/xlink">
<g id="graph0" class="graph" transform="scale(1 1) rotate(0) translate(4 170)">
<title>search</title>
<polygon fill="white" stroke="transparent" points="-4,4 -4,-170 660.945,-170 660.945,4 -4,4"/>
<!-- dr -->
<g id="node1" class="node"><title>dr</title>
<text text-anchor="start" x="8" y="-137.8" font-family="Times,serif" font-size="14.00" fill="#d73027">Directory </text>
<text text-anchor="start" x="65.1416" y="-137.8" font-family="Times,serif" font-size="14.00"> dir = FSDirectory.open(new File(&quot;./index&quot;))</text>
</g>
<!-- is -->
<g id="node2" class="node"><title>is</title>
<text text-anchor="start" x="20.6875" y="-65.8" font-family="Times,serif" font-size="14.00">IndexSearcher searcher = new &#160;</text>
<text text-anchor="start" x="196.877" y="-65.8" font-family="Times,serif" font-size="14.00" fill="#d73027">IndexSearcher</text>
<text text-anchor="start" x="277.719" y="-65.8" font-family="Times,serif" font-size="14.00">(dir)</text>
</g>
<!-- dr&#45;&gt;is -->
<g id="edge1" class="edge"><title>dr&#45;&gt;is</title>
<path fill="none" stroke="black" d="M161.641,-129.75C161.641,-119.349 161.641,-103.607 161.641,-90.7535"/>
<polygon fill="black" stroke="black" points="165.141,-90.4086 161.641,-80.4086 158.141,-90.4086 165.141,-90.4086"/>
</g>
<!-- td -->
<g id="node5" class="node"><title>td</title>
<text text-anchor="start" x="204.486" y="-7.8" font-family="Times,serif" font-size="14.00" fill="#d73027">TopDocs </text>
<text text-anchor="start" x="258.333" y="-7.8" font-family="Times,serif" font-size="14.00"> docs = searcher.search(query, 10)</text>
</g>
<!-- is&#45;&gt;td -->
<g id="edge4" class="edge"><title>is&#45;&gt;td</title>
<path fill="none" stroke="black" d="M193.065,-57.9541C219.328,-48.7222 256.977,-35.4882 285.614,-25.4216"/>
<polygon fill="black" stroke="black" points="287.061,-28.623 295.334,-22.0048 284.74,-22.0191 287.061,-28.623"/>
</g>
<!-- qp -->
<g id="node3" class="node"><title>qp</title>
<text text-anchor="start" x="354.371" y="-151.8" font-family="Times,serif" font-size="14.00">parser = new </text>
<text text-anchor="start" x="430.291" y="-151.8" font-family="Times,serif" font-size="14.00" fill="#d73027">QueryParser</text>
<text text-anchor="start" x="500.263" y="-151.8" font-family="Times,serif" font-size="14.00">(Version.LUCENE_30,</text>
<text text-anchor="start" x="461.849" y="-137.8" font-family="Times,serif" font-size="14.00">&quot;contents&quot;,</text>
<text text-anchor="start" x="426.75" y="-123.8" font-family="Times,serif" font-size="14.00">new SimpleAnalyzer())</text>
</g>
<!-- q -->
<g id="node4" class="node"><title>q</title>
<text text-anchor="start" x="336.337" y="-65.8" font-family="Times,serif" font-size="14.00" fill="#d73027">Query </text>
<text text-anchor="start" x="374.824" y="-65.8" font-family="Times,serif" font-size="14.00"> query = parser.parse(&quot;+JUNIT +ANT &#45;MOCK&quot;)</text>
</g>
<!-- qp&#45;&gt;q -->
<g id="edge2" class="edge"><title>qp&#45;&gt;q</title>
<path fill="none" stroke="black" d="M492.641,-115.818C492.641,-107.454 492.641,-98.2313 492.641,-90.1989"/>
<polygon fill="black" stroke="black" points="496.141,-90.1759 492.641,-80.1759 489.141,-90.176 496.141,-90.1759"/>
</g>
<!-- q&#45;&gt;td -->
<g id="edge3" class="edge"><title>q&#45;&gt;td</title>
<path fill="none" stroke="black" d="M461.027,-57.9541C434.605,-48.7222 396.728,-35.4882 367.917,-25.4216"/>
<polygon fill="black" stroke="black" points="368.732,-21.9991 358.137,-22.0048 366.423,-28.6074 368.732,-21.9991"/>
</g>
</g>
</svg>
