<?xml version="1.0" encoding="UTF-8" standalone="no"?>
<!DOCTYPE svg PUBLIC "-//W3C//DTD SVG 1.1//EN"
 "http://www.w3.org/Graphics/SVG/1.1/DTD/svg11.dtd">
<!-- Generated by graphviz version 2.39.20141219.0545 (20141219.0545)
 -->
<!-- Title: search Pages: 1 -->
<svg width="570pt" height="146pt"
 viewBox="0.00 0.00 569.51 146.00" xmlns="http://www.w3.org/2000/svg" xmlns:xlink="http://www.w3.org/1999/xlink">
<g id="graph0" class="graph" transform="scale(1 1) rotate(0) translate(4 142)">
<title>search</title>
<polygon fill="white" stroke="transparent" points="-4,4 -4,-142 565.507,-142 565.507,4 -4,4"/>
<!-- dr -->
<g id="node1" class="node"><title>dr</title>
<text text-anchor="start" x="8" y="-123.8" font-family="Times,serif" font-size="14.00" fill="#d73027">Directory </text>
<text text-anchor="start" x="65.1416" y="-123.8" font-family="Times,serif" font-size="14.00"> dir = FSDirectory.open(new File(&quot;./index&quot;))</text>
</g>
<!-- is -->
<g id="node2" class="node"><title>is</title>
<text text-anchor="start" x="25.6875" y="-65.8" font-family="Times,serif" font-size="14.00">IndexSearcher searcher = new &#160;</text>
<text text-anchor="start" x="201.877" y="-65.8" font-family="Times,serif" font-size="14.00" fill="#d73027">IndexSearcher</text>
<text text-anchor="start" x="282.719" y="-65.8" font-family="Times,serif" font-size="14.00">(dir)</text>
</g>
<!-- dr&#45;&gt;is -->
<g id="edge1" class="edge"><title>dr&#45;&gt;is</title>
<path fill="none" stroke="black" d="M162.605,-115.817C163.228,-108.596 164.058,-98.9676 164.803,-90.321"/>
<polygon fill="black" stroke="black" points="168.308,-90.4123 165.68,-80.1487 161.334,-89.8111 168.308,-90.4123"/>
</g>
<!-- td -->
<g id="node5" class="node"><title>td</title>
<text text-anchor="start" x="184.486" y="-7.8" font-family="Times,serif" font-size="14.00" fill="#d73027">TopDocs </text>
<text text-anchor="start" x="238.333" y="-7.8" font-family="Times,serif" font-size="14.00"> docs = searcher.search(query, 10)</text>
</g>
<!-- is&#45;&gt;td -->
<g id="edge4" class="edge"><title>is&#45;&gt;td</title>
<path fill="none" stroke="black" d="M193.304,-57.9541C215.198,-48.8835 246.419,-35.9493 270.55,-25.9519"/>
<polygon fill="black" stroke="black" points="272.179,-29.0657 280.078,-22.0048 269.5,-22.5987 272.179,-29.0657"/>
</g>
<!-- t -->
<g id="node3" class="node"><title>t</title>
<text text-anchor="start" x="349.775" y="-123.8" font-family="Times,serif" font-size="14.00">Term t = new </text>
<text text-anchor="start" x="428.225" y="-123.8" font-family="Times,serif" font-size="14.00" fill="#d73027">Term</text>
<text text-anchor="start" x="457.564" y="-123.8" font-family="Times,serif" font-size="14.00">(&quot;subject&quot;, &quot;ant&quot;)</text>
</g>
<!-- q -->
<g id="node4" class="node"><title>q</title>
<text text-anchor="start" x="350.203" y="-65.8" font-family="Times,serif" font-size="14.00" fill="#d73027">Query </text>
<text text-anchor="start" x="388.689" y="-65.8" font-family="Times,serif" font-size="14.00"> query = new TermQuery(t)</text>
</g>
<!-- t&#45;&gt;q -->
<g id="edge2" class="edge"><title>t&#45;&gt;q</title>
<path fill="none" stroke="black" d="M450.677,-115.817C450.055,-108.596 449.225,-98.9676 448.479,-90.321"/>
<polygon fill="black" stroke="black" points="451.948,-89.8111 447.602,-80.1487 444.974,-90.4123 451.948,-89.8111"/>
</g>
<!-- q&#45;&gt;td -->
<g id="edge3" class="edge"><title>q&#45;&gt;td</title>
<path fill="none" stroke="black" d="M419.979,-57.9541C398.084,-48.8835 366.863,-35.9493 342.732,-25.9519"/>
<polygon fill="black" stroke="black" points="343.782,-22.5987 333.204,-22.0048 341.103,-29.0657 343.782,-22.5987"/>
</g>
</g>
</svg>
