<?xml version="1.0" encoding="UTF-8" standalone="no"?>
<!DOCTYPE svg PUBLIC "-//W3C//DTD SVG 1.0//EN" "http://www.w3.org/TR/2001/PR-SVG-20010719/DTD/svg10.dtd">
<svg width="16cm" height="12cm" viewBox="-105 -59 311 235" xmlns="http://www.w3.org/2000/svg" xmlns:xlink="http://www.w3.org/1999/xlink">
  <g>
    <rect style="fill: #ffa500" x="-6.44494" y="-57.9087" width="114.5" height="38"/>
    <rect style="fill: none; fill-opacity:0; stroke-width: 2; stroke: #000000" x="-6.44494" y="-57.9087" width="114.5" height="38"/>
    <text font-size="12.7998" style="fill: #000000;text-anchor:middle;font-family:sans-serif;font-style:normal;font-weight:normal" x="50.8051" y="-35.0087">
      <tspan x="50.8051" y="-35.0087">IndexSearcher</tspan>
    </text>
  </g>
  <g>
    <rect style="fill: #ffa500" x="-1.16837" y="8.51309" width="102.75" height="38"/>
    <rect style="fill: none; fill-opacity:0; stroke-width: 2; stroke: #000000" x="-1.16837" y="8.51309" width="102.75" height="38"/>
    <text font-size="12.7998" style="fill: #000000;text-anchor:middle;font-family:sans-serif;font-style:normal;font-weight:normal" x="50.2066" y="31.4131">
      <tspan x="50.2066" y="31.4131">IndexReader</tspan>
    </text>
  </g>
  <g>
    <rect style="fill: #ffa500" x="-1.1547" y="74.184" width="102.75" height="38"/>
    <rect style="fill: none; fill-opacity:0; stroke-width: 2; stroke: #000000" x="-1.1547" y="74.184" width="102.75" height="38"/>
    <text font-size="12.7998" style="fill: #000000;text-anchor:middle;font-family:sans-serif;font-style:normal;font-weight:normal" x="50.2203" y="97.084">
      <tspan x="50.2203" y="97.084">Direcotry</tspan>
    </text>
  </g>
  <text font-size="12.7998" style="fill: #000000;text-anchor:start;font-family:sans-serif;font-style:normal;font-weight:normal" x="-101.495" y="-43.3762">
    <tspan x="-101.495" y="-43.3762"></tspan>
  </text>
  <text font-size="12.7998" style="fill: #000000;text-anchor:start;font-family:sans-serif;font-style:normal;font-weight:normal" x="-104.744" y="-37.6903">
    <tspan x="-104.744" y="-37.6903">Query</tspan>
  </text>
  <text font-size="12.7998" style="fill: #000000;text-anchor:start;font-family:sans-serif;font-style:normal;font-weight:normal" x="152.744" y="-37.6903">
    <tspan x="152.744" y="-37.6903">TopDocs</tspan>
  </text>
  <g>
    <line style="fill: none; fill-opacity:0; stroke-width: 2; stroke: #000000" x1="-62.5061" y1="-43.3762" x2="-18.6326" y2="-43.3762"/>
    <polygon style="fill: #000000" points="-11.1326,-43.3762 -21.1326,-38.3762 -18.6326,-43.3762 -21.1326,-48.3762 "/>
    <polygon style="fill: none; fill-opacity:0; stroke-width: 2; stroke: #000000" points="-11.1326,-43.3762 -21.1326,-38.3762 -18.6326,-43.3762 -21.1326,-48.3762 "/>
  </g>
  <g>
    <line style="fill: none; fill-opacity:0; stroke-width: 2; stroke: #000000" x1="110.507" y1="-41.7517" x2="140.574" y2="-42.3653"/>
    <polygon style="fill: #000000" points="148.072,-42.5183 138.176,-37.3153 140.574,-42.3653 137.972,-47.3132 "/>
    <polygon style="fill: none; fill-opacity:0; stroke-width: 2; stroke: #000000" points="148.072,-42.5183 138.176,-37.3153 140.574,-42.3653 137.972,-47.3132 "/>
  </g>
  <g>
    <line style="fill: none; fill-opacity:0; stroke-width: 2; stroke: #000000" x1="50.8051" y1="-19.9087" x2="50.4116" y2="-1.22082"/>
    <polygon style="fill: #000000" points="50.2537,6.27752 45.4653,-3.82552 50.4116,-1.22082 55.4631,-3.61501 "/>
    <polygon style="fill: none; fill-opacity:0; stroke-width: 2; stroke: #000000" points="50.2537,6.27752 45.4653,-3.82552 50.4116,-1.22082 55.4631,-3.61501 "/>
  </g>
  <g>
    <line style="fill: none; fill-opacity:0; stroke-width: 2; stroke: #000000" x1="50.2066" y1="46.5131" x2="50.2155" y2="64.4479"/>
    <polygon style="fill: #000000" points="50.2192,71.9479 45.2143,61.9504 50.2155,64.4479 55.2143,61.9455 "/>
    <polygon style="fill: none; fill-opacity:0; stroke-width: 2; stroke: #000000" points="50.2192,71.9479 45.2143,61.9504 50.2155,64.4479 55.2143,61.9455 "/>
  </g>
  <g>
    <path style="fill: #ffa500" d="M 21.9696 138.219 C 33.1789,132.719 38.7835,130.886 49.9928,130.886 C 61.2021,130.886 66.8067,132.719 78.016,138.219 L 78.016,167.552 C 66.8067,173.052 61.2021,174.886 49.9928,174.886 C 38.7835,174.886 33.1789,173.052 21.9696,167.552 L 21.9696,138.219z"/>
    <path style="fill: none; fill-opacity:0; stroke-width: 2; stroke: #000000" d="M 21.9696 138.219 C 33.1789,132.719 38.7835,130.886 49.9928,130.886 C 61.2021,130.886 66.8067,132.719 78.016,138.219 L 78.016,167.552 C 66.8067,173.052 61.2021,174.886 49.9928,174.886 C 38.7835,174.886 33.1789,173.052 21.9696,167.552 L 21.9696,138.219"/>
    <path style="fill: none; fill-opacity:0; stroke-width: 2; stroke: #000000" d="M 21.9696 138.219 C 33.1789,143.719 38.7835,145.552 49.9928,145.552 C 61.2021,145.552 66.8067,143.719 78.016,138.219"/>
    <text font-size="12.7998" style="fill: #000000;text-anchor:middle;font-family:sans-serif;font-style:normal;font-weight:normal" x="49.9928" y="160.552">
      <tspan x="49.9928" y="160.552"></tspan>
    </text>
  </g>
  <g>
    <line style="fill: none; fill-opacity:0; stroke-width: 2; stroke: #000000" x1="50.2203" y1="112.184" x2="50.1112" y2="121.15"/>
    <polygon style="fill: #000000" points="50.02,128.65 45.142,118.59 50.1112,121.15 55.1413,118.711 "/>
    <polygon style="fill: none; fill-opacity:0; stroke-width: 2; stroke: #000000" points="50.02,128.65 45.142,118.59 50.1112,121.15 55.1413,118.711 "/>
  </g>
</svg>
