<?xml version="1.0" encoding="UTF-8" standalone="no"?>
<!DOCTYPE svg PUBLIC "-//W3C//DTD SVG 1.1//EN"
 "http://www.w3.org/Graphics/SVG/1.1/DTD/svg11.dtd">
<!-- Generated by graphviz version 2.39.20141219.0545 (20141219.0545)
 -->
<!-- Title: segment Pages: 1 -->
<svg width="205pt" height="150pt"
 viewBox="0.00 0.00 204.71 150.00" xmlns="http://www.w3.org/2000/svg" xmlns:xlink="http://www.w3.org/1999/xlink">
<g id="graph0" class="graph" transform="scale(1 1) rotate(0) translate(4 146)">
<title>segment</title>
<polygon fill="white" stroke="transparent" points="-4,4 -4,-146 200.707,-146 200.707,4 -4,4"/>
<!-- seg_n -->
<g id="node1" class="node"><title>seg_n</title>
<text text-anchor="middle" x="42.6069" y="-66.8" font-family="Times,serif" font-size="14.00">segments_N</text>
</g>
<!-- 0 -->
<g id="node2" class="node"><title>0</title>
<polygon fill="#ccebc5" stroke="#ccebc5" points="196.955,-142 120.966,-142 120.966,-120 196.955,-120 196.955,-142"/>
<text text-anchor="middle" x="158.96" y="-126.8" font-family="Times,serif" font-size="14.00">Segment 0</text>
</g>
<!-- seg_n&#45;&gt;0 -->
<g id="edge1" class="edge"><title>seg_n&#45;&gt;0</title>
<path fill="none" stroke="black" d="M77.5168,-89.002C93.7035,-97.3489 112.767,-107.18 128.38,-115.23"/>
<polygon fill="black" stroke="black" points="127.106,-118.512 137.598,-119.984 130.315,-112.29 127.106,-118.512"/>
</g>
<!-- 1 -->
<g id="node3" class="node"><title>1</title>
<polygon fill="#ccebc5" stroke="#ccebc5" points="196.955,-102 120.966,-102 120.966,-80 196.955,-80 196.955,-102"/>
<text text-anchor="middle" x="158.96" y="-86.8" font-family="Times,serif" font-size="14.00">Segment 1</text>
</g>
<!-- seg_n&#45;&gt;1 -->
<g id="edge2" class="edge"><title>seg_n&#45;&gt;1</title>
<path fill="none" stroke="black" d="M85.272,-78.3337C93.5718,-79.7603 102.326,-81.2651 110.789,-82.7198"/>
<polygon fill="black" stroke="black" points="110.469,-86.216 120.917,-84.4608 111.655,-79.3172 110.469,-86.216"/>
</g>
<!-- 2 -->
<g id="node4" class="node"><title>2</title>
<polygon fill="#ccebc5" stroke="#ccebc5" points="196.955,-62 120.966,-62 120.966,-40 196.955,-40 196.955,-62"/>
<text text-anchor="middle" x="158.96" y="-46.8" font-family="Times,serif" font-size="14.00">Segment 2</text>
</g>
<!-- seg_n&#45;&gt;2 -->
<g id="edge3" class="edge"><title>seg_n&#45;&gt;2</title>
<path fill="none" stroke="black" d="M85.272,-63.6663C93.5718,-62.2397 102.326,-60.7349 110.789,-59.2802"/>
<polygon fill="black" stroke="black" points="111.655,-62.6828 120.917,-57.5392 110.469,-55.784 111.655,-62.6828"/>
</g>
<!-- 3 -->
<g id="node5" class="node"><title>3</title>
<polygon fill="#ccebc5" stroke="#ccebc5" points="196.955,-22 120.966,-22 120.966,-0 196.955,-0 196.955,-22"/>
<text text-anchor="middle" x="158.96" y="-6.8" font-family="Times,serif" font-size="14.00">Segment 3</text>
</g>
<!-- seg_n&#45;&gt;3 -->
<g id="edge4" class="edge"><title>seg_n&#45;&gt;3</title>
<path fill="none" stroke="black" d="M77.5168,-52.998C93.7035,-44.6511 112.767,-34.8205 128.38,-26.7695"/>
<polygon fill="black" stroke="black" points="130.315,-29.7099 137.598,-22.0158 127.106,-23.4883 130.315,-29.7099"/>
</g>
</g>
</svg>
