<?xml version="1.0" encoding="UTF-8" standalone="yes"?><svg xmlns="http://www.w3.org/2000/svg" xmlns:xlink="http://www.w3.org/1999/xlink" height="288pt" style="width:333px;height:288px;" version="1.1" viewBox="0 0 333 288" width="333pt"><defs><filter height="300%" id="f1" width="300%" x="-1" y="-1"><feGaussianBlur result="blurOut" stdDeviation="2.0"/><feColorMatrix in="blurOut" result="blurOut2" type="matrix" values="0 0 0 0 0 0 0 0 0 0 0 0 0 0 0 0 0 0 .4 0"/><feOffset dx="4.0" dy="4.0" in="blurOut2" result="blurOut3"/><feBlend in="SourceGraphic" in2="blurOut3" mode="normal"/></filter></defs><g><rect fill="#FEFECE" filter="url(#f1)" height="105.5781" style="stroke: #A80036; stroke-width: 1.5;" width="137" x="10.75" y="8"/><ellipse cx="42.4" cy="24" fill="#A9DCDF" rx="11" ry="11" style="stroke: #A80036; stroke-width: 1.0;"/><path d="M45.7594,29.5 L44.4313,25.7188 L40.4156,25.7188 L39.0875,29.5 L36.7594,29.5 L41.4625,16.5938 L43.3219,16.5938 L48.1031,29.5 L45.7594,29.5 Z M43.7281,23.7031 L42.6344,20.625 Q42.2281,19.4688 42.4313,19.4219 Q42.5563,19.6406 42.15,20.6406 L41.1188,23.7031 L43.7281,23.7031 Z "/><text fill="#000000" font-family="sans-serif" font-size="12" font-style="italic" lengthAdjust="spacingAndGlyphs" textLength="68" x="60.1" y="28.6641">IndexOutput</text><line style="stroke: #A80036; stroke-width: 1.5;" x1="11.75" x2="146.75" y1="40" y2="40"/><line style="stroke: #A80036; stroke-width: 1.5;" x1="11.75" x2="146.75" y1="48" y2="48"/><ellipse cx="21.75" cy="60.6973" fill="#84BE84" rx="3" ry="3" style="stroke: #038048; stroke-width: 1.0;"/><text fill="#000000" font-family="sans-serif" font-size="11" font-style="italic" lengthAdjust="spacingAndGlyphs" textLength="76" x="30.75" y="63.4727">void writeByte()</text><ellipse cx="21.75" cy="75.0918" fill="#84BE84" rx="3" ry="3" style="stroke: #038048; stroke-width: 1.0;"/><text fill="#000000" font-family="sans-serif" font-size="11" font-style="italic" lengthAdjust="spacingAndGlyphs" textLength="72" x="30.75" y="77.8672">void writeXXX()</text><ellipse cx="21.75" cy="89.4863" fill="#84BE84" rx="3" ry="3" style="stroke: #038048; stroke-width: 1.0;"/><text fill="#000000" font-family="sans-serif" font-size="11" font-style="italic" lengthAdjust="spacingAndGlyphs" textLength="111" x="30.75" y="92.2617">int64_t getFilePointer()</text><ellipse cx="21.75" cy="103.8809" fill="#84BE84" rx="3" ry="3" style="stroke: #038048; stroke-width: 1.0;"/><text fill="#000000" font-family="sans-serif" font-size="11" font-style="italic" lengthAdjust="spacingAndGlyphs" textLength="51" x="30.75" y="106.6563">void seek()</text><rect fill="#FEFECE" filter="url(#f1)" height="105.5781" style="stroke: #A80036; stroke-width: 1.5;" width="146" x="6" y="174"/><ellipse cx="21" cy="190" fill="#ADD1B2" rx="11" ry="11" style="stroke: #A80036; stroke-width: 1.0;"/><path d="M23.9844,194.0469 L23.9844,196.0625 Q22.5156,196.6406 20.6563,196.6406 Q18.0469,196.6406 16.5547,194.9688 Q15.0625,193.2969 15.0625,190.0469 Q15.0625,186.9844 16.6484,185.2578 Q18.2344,183.5313 20.9219,183.5313 Q22.8594,183.5313 24.5781,184.375 L23.5938,186.3281 Q22.1094,185.5469 20.9219,185.5469 Q19.3438,185.5469 18.3438,186.7266 Q17.3438,187.9063 17.3438,190.1094 Q17.3438,192.375 18.25,193.4922 Q19.1563,194.6094 20.9219,194.6094 Q21.9375,194.6094 23.9844,194.0469 Z "/><text fill="#000000" font-family="sans-serif" font-size="12" lengthAdjust="spacingAndGlyphs" textLength="114" x="35" y="194.6641">BufferedIndexOutput</text><line style="stroke: #A80036; stroke-width: 1.5;" x1="7" x2="151" y1="206" y2="206"/><rect fill="none" height="6" style="stroke: #C82930; stroke-width: 1.0;" width="6" x="14" y="215.6973"/><text fill="#000000" font-family="sans-serif" font-size="11" lengthAdjust="spacingAndGlyphs" textLength="73" x="26" y="221.4727">uint8_t* buffer</text><rect fill="none" height="6" style="stroke: #C82930; stroke-width: 1.0;" width="6" x="14" y="230.0918"/><text fill="#000000" font-family="sans-serif" font-size="11" lengthAdjust="spacingAndGlyphs" textLength="91" x="26" y="235.8672">int64_t bufferStart</text><rect fill="none" height="6" style="stroke: #C82930; stroke-width: 1.0;" width="6" x="14" y="244.4863"/><text fill="#000000" font-family="sans-serif" font-size="11" lengthAdjust="spacingAndGlyphs" textLength="106" x="26" y="250.2617">int32_t bufferPosition</text><line style="stroke: #A80036; stroke-width: 1.5;" x1="7" x2="151" y1="257.1836" y2="257.1836"/><ellipse cx="17" cy="269.8809" fill="#84BE84" rx="3" ry="3" style="stroke: #038048; stroke-width: 1.0;"/><text fill="#000000" font-family="sans-serif" font-size="11" lengthAdjust="spacingAndGlyphs" textLength="72" x="26" y="272.6563">void writeXXX()</text><rect fill="#FEFECE" filter="url(#f1)" height="62.3945" style="stroke: #A80036; stroke-width: 1.5;" width="104" x="204" y="30"/><ellipse cx="224.85" cy="46" fill="#A9DCDF" rx="11" ry="11" style="stroke: #A80036; stroke-width: 1.0;"/><path d="M228.2094,51.5 L226.8813,47.7188 L222.8656,47.7188 L221.5375,51.5 L219.2094,51.5 L223.9125,38.5938 L225.7719,38.5938 L230.5531,51.5 L228.2094,51.5 Z M226.1781,45.7031 L225.0844,42.625 Q224.6781,41.4688 224.8813,41.4219 Q225.0063,41.6406 224.6,42.6406 L223.5688,45.7031 L226.1781,45.7031 Z "/><text fill="#000000" font-family="sans-serif" font-size="12" font-style="italic" lengthAdjust="spacingAndGlyphs" textLength="59" x="240.15" y="50.6641">IndexInput</text><line style="stroke: #A80036; stroke-width: 1.5;" x1="205" x2="307" y1="62" y2="62"/><line style="stroke: #A80036; stroke-width: 1.5;" x1="205" x2="307" y1="70" y2="70"/><ellipse cx="215" cy="82.6973" fill="#84BE84" rx="3" ry="3" style="stroke: #038048; stroke-width: 1.0;"/><text fill="#000000" font-family="sans-serif" font-size="11" font-style="italic" lengthAdjust="spacingAndGlyphs" textLength="78" x="224" y="85.4727">void readBytes()</text><rect fill="#FEFECE" filter="url(#f1)" height="62.3945" style="stroke: #A80036; stroke-width: 1.5;" width="137" x="187.75" y="196"/><ellipse cx="202.75" cy="212" fill="#ADD1B2" rx="11" ry="11" style="stroke: #A80036; stroke-width: 1.0;"/><path d="M205.7344,216.0469 L205.7344,218.0625 Q204.2656,218.6406 202.4063,218.6406 Q199.7969,218.6406 198.3047,216.9688 Q196.8125,215.2969 196.8125,212.0469 Q196.8125,208.9844 198.3984,207.2578 Q199.9844,205.5313 202.6719,205.5313 Q204.6094,205.5313 206.3281,206.375 L205.3438,208.3281 Q203.8594,207.5469 202.6719,207.5469 Q201.0938,207.5469 200.0938,208.7266 Q199.0938,209.9063 199.0938,212.1094 Q199.0938,214.375 200,215.4922 Q200.9063,216.6094 202.6719,216.6094 Q203.6875,216.6094 205.7344,216.0469 Z "/><text fill="#000000" font-family="sans-serif" font-size="12" lengthAdjust="spacingAndGlyphs" textLength="105" x="216.75" y="216.6641">BufferedIndexInput</text><line style="stroke: #A80036; stroke-width: 1.5;" x1="188.75" x2="323.75" y1="228" y2="228"/><line style="stroke: #A80036; stroke-width: 1.5;" x1="188.75" x2="323.75" y1="236" y2="236"/><ellipse cx="198.75" cy="248.6973" fill="#84BE84" rx="3" ry="3" style="stroke: #038048; stroke-width: 1.0;"/><text fill="#000000" font-family="sans-serif" font-size="11" lengthAdjust="spacingAndGlyphs" textLength="78" x="207.75" y="251.4727">void readBytes()</text><path d="M79,134.638 C79,147.854 79,161.398 79,173.874 " fill="none" style="stroke: #A80036; stroke-width: 1.0;"/><polygon fill="none" points="72.0001,134.342,79,114.342,86.0001,134.341,72.0001,134.342" style="stroke: #A80036; stroke-width: 1.0;"/><path d="M256,112.09 C256,139.447 256,172.418 256,195.8333 " fill="none" style="stroke: #A80036; stroke-width: 1.0;"/><polygon fill="none" points="249,112.08,256,92.08,263,112.08,249,112.08" style="stroke: #A80036; stroke-width: 1.0;"/></g></svg>