<?xml version="1.0" encoding="UTF-8" standalone="no"?>
<!DOCTYPE svg PUBLIC "-//W3C//DTD SVG 1.1//EN"
 "http://www.w3.org/Graphics/SVG/1.1/DTD/svg11.dtd">
<!-- Generated by graphviz version 2.36.0 (20140111.2315)
 -->
<!-- Title: idp_modules Pages: 1 -->
<svg width="509pt" height="382pt"
 viewBox="0.00 0.00 509.00 382.00" xmlns="http://www.w3.org/2000/svg" xmlns:xlink="http://www.w3.org/1999/xlink">
<g id="graph0" class="graph" transform="scale(1 1) rotate(0) translate(4 378)">
<title>idp_modules</title>
<polygon fill="white" stroke="none" points="-4,4 -4,-378 505,-378 505,4 -4,4"/>
<g id="clust1" class="cluster"><title>cluster_sl</title>
<polygon fill="mintcream" stroke="black" points="8,-8 8,-83 493,-83 493,-8 8,-8"/>
<text text-anchor="middle" x="250.5" y="-69.4" font-family="Microsoft YaHei" font-size="12.00">IDP支持层</text>
</g>
<g id="clust2" class="cluster"><title>cluster_md</title>
<polygon fill="lightcyan" stroke="black" points="122,-115 122,-366 297,-366 297,-115 122,-115"/>
<text text-anchor="middle" x="209.5" y="-352.4" font-family="Microsoft YaHei" font-size="12.00">可插拔模块集</text>
</g>
<!-- network_mgr -->
<g id="node1" class="node"><title>network_mgr</title>
<path fill="skyblue" stroke="skyblue" d="M419.5,-17C419.5,-17 472.5,-17 472.5,-17 478.5,-17 484.5,-23 484.5,-29 484.5,-29 484.5,-41 484.5,-41 484.5,-47 478.5,-53 472.5,-53 472.5,-53 419.5,-53 419.5,-53 413.5,-53 407.5,-47 407.5,-41 407.5,-41 407.5,-29 407.5,-29 407.5,-23 413.5,-17 419.5,-17"/>
<text text-anchor="middle" x="446" y="-31.9" font-family="Microsoft YaHei" font-size="12.00">网络管理器</text>
</g>
<!-- log_mgr -->
<g id="node2" class="node"><title>log_mgr</title>
<path fill="skyblue" stroke="skyblue" d="M324.5,-17C324.5,-17 377.5,-17 377.5,-17 383.5,-17 389.5,-23 389.5,-29 389.5,-29 389.5,-41 389.5,-41 389.5,-47 383.5,-53 377.5,-53 377.5,-53 324.5,-53 324.5,-53 318.5,-53 312.5,-47 312.5,-41 312.5,-41 312.5,-29 312.5,-29 312.5,-23 318.5,-17 324.5,-17"/>
<text text-anchor="middle" x="351" y="-31.9" font-family="Microsoft YaHei" font-size="12.00">日志管理器</text>
</g>
<!-- module_mgr -->
<g id="node3" class="node"><title>module_mgr</title>
<path fill="skyblue" stroke="skyblue" d="M229.5,-17C229.5,-17 282.5,-17 282.5,-17 288.5,-17 294.5,-23 294.5,-29 294.5,-29 294.5,-41 294.5,-41 294.5,-47 288.5,-53 282.5,-53 282.5,-53 229.5,-53 229.5,-53 223.5,-53 217.5,-47 217.5,-41 217.5,-41 217.5,-29 217.5,-29 217.5,-23 223.5,-17 229.5,-17"/>
<text text-anchor="middle" x="256" y="-31.9" font-family="Microsoft YaHei" font-size="12.00">模块管理器</text>
</g>
<!-- conf_mgr -->
<g id="node4" class="node"><title>conf_mgr</title>
<path fill="skyblue" stroke="skyblue" d="M134.5,-17C134.5,-17 187.5,-17 187.5,-17 193.5,-17 199.5,-23 199.5,-29 199.5,-29 199.5,-41 199.5,-41 199.5,-47 193.5,-53 187.5,-53 187.5,-53 134.5,-53 134.5,-53 128.5,-53 122.5,-47 122.5,-41 122.5,-41 122.5,-29 122.5,-29 122.5,-23 128.5,-17 134.5,-17"/>
<text text-anchor="middle" x="161" y="-31.9" font-family="Microsoft YaHei" font-size="12.00">配置管理器</text>
</g>
<!-- db_mgr -->
<g id="node5" class="node"><title>db_mgr</title>
<path fill="skyblue" stroke="skyblue" d="M27.5,-17C27.5,-17 92.5,-17 92.5,-17 98.5,-17 104.5,-23 104.5,-29 104.5,-29 104.5,-41 104.5,-41 104.5,-47 98.5,-53 92.5,-53 92.5,-53 27.5,-53 27.5,-53 21.5,-53 15.5,-47 15.5,-41 15.5,-41 15.5,-29 15.5,-29 15.5,-23 21.5,-17 27.5,-17"/>
<text text-anchor="middle" x="60" y="-31.9" font-family="Microsoft YaHei" font-size="12.00">数据库管理器</text>
</g>
<!-- mod_dev -->
<g id="node6" class="node"><title>mod_dev</title>
<polygon fill="#76ee00" stroke="#76ee00" points="200.5,-212 200.5,-248 289.5,-248 289.5,-212 200.5,-212"/>
<text text-anchor="middle" x="245" y="-226.9" font-family="Microsoft YaHei" font-size="12.00">开发支持模块</text>
</g>
<!-- mod_dev&#45;&gt;module_mgr -->
<g id="edge5" class="edge"><title>mod_dev&#45;&gt;module_mgr</title>
<path fill="none" stroke="yellowgreen" d="M245.976,-211.873C248.064,-175.247 252.941,-89.6799 255.026,-53.0891"/>
<text text-anchor="middle" x="268" y="-138.9" font-family="Microsoft YaHei" font-size="12.00">安装...</text>
</g>
<!-- mod_dm -->
<g id="node7" class="node"><title>mod_dm</title>
<polygon fill="#76ee00" stroke="#76ee00" points="130.5,-124 130.5,-160 219.5,-160 219.5,-124 130.5,-124"/>
<text text-anchor="middle" x="175" y="-138.9" font-family="Microsoft YaHei" font-size="12.00">数据建模模块</text>
</g>
<!-- mod_dev&#45;&gt;mod_dm -->
<g id="edge4" class="edge"><title>mod_dev&#45;&gt;mod_dm</title>
<path fill="none" stroke="black" d="M225.754,-211.795C219.786,-206.069 213.371,-199.491 208,-193 201.834,-185.548 195.793,-176.911 190.599,-168.934"/>
<polygon fill="black" stroke="black" points="193.443,-166.882 185.135,-160.307 187.529,-170.628 193.443,-166.882"/>
<text text-anchor="middle" x="225" y="-182.9" font-family="Microsoft YaHei" font-size="12.00">依赖...</text>
</g>
<!-- mod_dm&#45;&gt;module_mgr -->
<g id="edge6" class="edge"><title>mod_dm&#45;&gt;module_mgr</title>
<path fill="none" stroke="yellowgreen" d="M185.454,-123.946C191.688,-114.095 199.938,-101.595 208,-91 217.977,-77.8885 230.199,-63.9103 239.813,-53.3268"/>
<text text-anchor="middle" x="225" y="-94.9" font-family="Microsoft YaHei" font-size="12.00">安装...</text>
</g>
<!-- mod_dp -->
<g id="node8" class="node"><title>mod_dp</title>
<polygon fill="#76ee00" stroke="#76ee00" points="200.5,-300 200.5,-336 289.5,-336 289.5,-300 200.5,-300"/>
<text text-anchor="middle" x="245" y="-314.9" font-family="Microsoft YaHei" font-size="12.00">部署发布模块</text>
</g>
<!-- mod_dp&#45;&gt;module_mgr -->
<g id="edge3" class="edge"><title>mod_dp&#45;&gt;module_mgr</title>
<path fill="none" stroke="yellowgreen" d="M265.778,-299.952C271.821,-294.334 278.106,-287.778 283,-281 292.195,-268.266 294.585,-264.331 298,-249 304.813,-218.413 292.711,-129.871 289,-115 283.457,-92.791 272.641,-68.7139 264.902,-53.0532"/>
<text text-anchor="middle" x="315" y="-182.9" font-family="Microsoft YaHei" font-size="12.00">安装...</text>
</g>
<!-- mod_dp&#45;&gt;mod_dev -->
<g id="edge1" class="edge"><title>mod_dp&#45;&gt;mod_dev</title>
<path fill="none" stroke="black" d="M245,-299.597C245,-287.746 245,-271.817 245,-258.292"/>
<polygon fill="black" stroke="black" points="248.5,-258.084 245,-248.084 241.5,-258.084 248.5,-258.084"/>
<text text-anchor="middle" x="262" y="-270.9" font-family="Microsoft YaHei" font-size="12.00">依赖...</text>
</g>
<!-- mod_dp&#45;&gt;mod_dm -->
<g id="edge2" class="edge"><title>mod_dp&#45;&gt;mod_dm</title>
<path fill="none" stroke="black" d="M210.012,-299.81C190.845,-288.321 168.839,-271.228 158,-249 145.745,-223.867 153.692,-191.788 162.372,-169.535"/>
<polygon fill="black" stroke="black" points="165.704,-170.638 166.341,-160.063 159.248,-167.933 165.704,-170.638"/>
<text text-anchor="middle" x="175" y="-226.9" font-family="Microsoft YaHei" font-size="12.00">依赖...</text>
</g>
</g>
</svg>
