<?xml version="1.0" encoding="UTF-8" standalone="yes"?><svg xmlns="http://www.w3.org/2000/svg" xmlns:xlink="http://www.w3.org/1999/xlink" height="224pt" style="width:279px;height:224px;" version="1.1" viewBox="0 0 279 224" width="279pt"><defs><filter height="300%" id="f1" width="300%" x="-1" y="-1"><feGaussianBlur result="blurOut" stdDeviation="2.0"/><feColorMatrix in="blurOut" result="blurOut2" type="matrix" values="0 0 0 0 0 0 0 0 0 0 0 0 0 0 0 0 0 0 .4 0"/><feOffset dx="4.0" dy="4.0" in="blurOut2" result="blurOut3"/><feBlend in="SourceGraphic" in2="blurOut3" mode="normal"/></filter></defs><g><line style="stroke: #A80036; stroke-width: 1.0; stroke-dasharray: 5.0,5.0;" x1="33" x2="33" y1="40.3203" y2="184.3672"/><line style="stroke: #A80036; stroke-width: 1.0; stroke-dasharray: 5.0,5.0;" x1="252.5" x2="252.5" y1="40.3203" y2="184.3672"/><rect fill="#FEFECE" filter="url(#f1)" height="32.3203" style="stroke: #A80036; stroke-width: 1.5;" width="46" x="8" y="3"/><text fill="#000000" font-family="sans-serif" font-size="14" lengthAdjust="spacingAndGlyphs" textLength="32" x="15" y="24.6016">Alice</text><rect fill="#FEFECE" filter="url(#f1)" height="32.3203" style="stroke: #A80036; stroke-width: 1.5;" width="46" x="8" y="183.3672"/><text fill="#000000" font-family="sans-serif" font-size="14" lengthAdjust="spacingAndGlyphs" textLength="32" x="15" y="204.9688">Alice</text><rect fill="#FEFECE" filter="url(#f1)" height="32.3203" style="stroke: #A80036; stroke-width: 1.5;" width="39" x="231.5" y="3"/><text fill="#000000" font-family="sans-serif" font-size="14" lengthAdjust="spacingAndGlyphs" textLength="25" x="238.5" y="24.6016">Bob</text><rect fill="#FEFECE" filter="url(#f1)" height="32.3203" style="stroke: #A80036; stroke-width: 1.5;" width="39" x="231.5" y="183.3672"/><text fill="#000000" font-family="sans-serif" font-size="14" lengthAdjust="spacingAndGlyphs" textLength="25" x="238.5" y="204.9688">Bob</text><polygon fill="#A80036" points="241,69.3203,251,73.3203,241,77.3203,245,73.3203" style="stroke: #A80036; stroke-width: 1.0;"/><line style="stroke: #A80036; stroke-width: 1.0;" x1="33" x2="247" y1="73.3203" y2="73.3203"/><text fill="#000000" font-family="sans-serif" font-size="13" lengthAdjust="spacingAndGlyphs" textLength="137" x="40" y="67.8789">Authentication Request</text><polygon fill="#A80036" points="44,100.332,34,104.332,44,108.332,40,104.332" style="stroke: #A80036; stroke-width: 1.0;"/><line style="stroke: #A80036; stroke-width: 1.0; stroke-dasharray: 2.0,2.0;" x1="38" x2="252" y1="104.332" y2="104.332"/><text fill="#000000" font-family="sans-serif" font-size="13" lengthAdjust="spacingAndGlyphs" textLength="147" x="50" y="98.8906">Authentication Response</text><polygon fill="#A80036" points="241,131.3438,251,135.3438,241,139.3438,245,135.3438" style="stroke: #A80036; stroke-width: 1.0;"/><line style="stroke: #A80036; stroke-width: 1.0;" x1="33" x2="247" y1="135.3438" y2="135.3438"/><text fill="#000000" font-family="sans-serif" font-size="13" lengthAdjust="spacingAndGlyphs" textLength="187" x="40" y="129.9023">Another authentication Request</text><polygon fill="#A80036" points="44,162.3555,34,166.3555,44,170.3555,40,166.3555" style="stroke: #A80036; stroke-width: 1.0;"/><line style="stroke: #A80036; stroke-width: 1.0; stroke-dasharray: 2.0,2.0;" x1="38" x2="252" y1="166.3555" y2="166.3555"/><text fill="#000000" font-family="sans-serif" font-size="13" lengthAdjust="spacingAndGlyphs" textLength="196" x="50" y="160.9141">another authentication Response</text></g></svg>