<?xml version="1.0" encoding="UTF-8" standalone="yes"?><svg xmlns="http://www.w3.org/2000/svg" xmlns:xlink="http://www.w3.org/1999/xlink" height="639pt" style="width:493px;height:639px;" version="1.1" viewBox="0 0 493 639" width="493pt"><defs><filter height="300%" id="f1" width="300%" x="-1" y="-1"><feGaussianBlur result="blurOut" stdDeviation="2.0"/><feColorMatrix in="blurOut" result="blurOut2" type="matrix" values="0 0 0 0 0 0 0 0 0 0 0 0 0 0 0 0 0 0 .4 0"/><feOffset dx="4.0" dy="4.0" in="blurOut2" result="blurOut3"/><feBlend in="SourceGraphic" in2="blurOut3" mode="normal"/></filter></defs><g><rect fill="#FEFECE" filter="url(#f1)" height="48" style="stroke: #A80036; stroke-width: 1.5;" width="140" x="344" y="15"/><ellipse cx="359" cy="31" fill="#ADD1B2" rx="11" ry="11" style="stroke: #A80036; stroke-width: 1.0;"/><path d="M361.9844,35.0469 L361.9844,37.0625 Q360.5156,37.6406 358.6563,37.6406 Q356.0469,37.6406 354.5547,35.9688 Q353.0625,34.2969 353.0625,31.0469 Q353.0625,27.9844 354.6484,26.2578 Q356.2344,24.5313 358.9219,24.5313 Q360.8594,24.5313 362.5781,25.375 L361.5938,27.3281 Q360.1094,26.5469 358.9219,26.5469 Q357.3438,26.5469 356.3438,27.7266 Q355.3438,28.9063 355.3438,31.1094 Q355.3438,33.375 356.25,34.4922 Q357.1563,35.6094 358.9219,35.6094 Q359.9375,35.6094 361.9844,35.0469 Z "/><text fill="#000000" font-family="sans-serif" font-size="12" lengthAdjust="spacingAndGlyphs" textLength="108" x="373" y="35.6641">Token:LUCENE_BASE</text><line style="stroke: #A80036; stroke-width: 1.5;" x1="345" x2="483" y1="47" y2="47"/><line style="stroke: #A80036; stroke-width: 1.5;" x1="345" x2="483" y1="55" y2="55"/><rect fill="#FEFECE" filter="url(#f1)" height="62.3945" style="stroke: #A80036; stroke-width: 1.5;" width="102" x="207.5" y="8"/><ellipse cx="222.5" cy="24" fill="#A9DCDF" rx="11" ry="11" style="stroke: #A80036; stroke-width: 1.0;"/><path d="M225.8594,29.5 L224.5313,25.7188 L220.5156,25.7188 L219.1875,29.5 L216.8594,29.5 L221.5625,16.5938 L223.4219,16.5938 L228.2031,29.5 L225.8594,29.5 Z M223.8281,23.7031 L222.7344,20.625 Q222.3281,19.4688 222.5313,19.4219 Q222.6563,19.6406 222.25,20.6406 L221.2188,23.7031 L223.8281,23.7031 Z "/><text fill="#000000" font-family="sans-serif" font-size="12" font-style="italic" lengthAdjust="spacingAndGlyphs" textLength="70" x="236.5" y="28.6641">TokenStream</text><line style="stroke: #A80036; stroke-width: 1.5;" x1="208.5" x2="308.5" y1="40" y2="40"/><line style="stroke: #A80036; stroke-width: 1.5;" x1="208.5" x2="308.5" y1="48" y2="48"/><ellipse cx="218.5" cy="60.6973" fill="#84BE84" rx="3" ry="3" style="stroke: #038048; stroke-width: 1.0;"/><text fill="#000000" font-family="sans-serif" font-size="11" font-style="italic" lengthAdjust="spacingAndGlyphs" textLength="66" x="227.5" y="63.4727">Token* next()</text><rect fill="#FEFECE" filter="url(#f1)" height="62.3945" style="stroke: #A80036; stroke-width: 1.5;" width="94" x="211" y="130"/><ellipse cx="230.95" cy="146" fill="#A9DCDF" rx="11" ry="11" style="stroke: #A80036; stroke-width: 1.0;"/><path d="M234.3094,151.5 L232.9813,147.7188 L228.9656,147.7188 L227.6375,151.5 L225.3094,151.5 L230.0125,138.5938 L231.8719,138.5938 L236.6531,151.5 L234.3094,151.5 Z M232.2781,145.7031 L231.1844,142.625 Q230.7781,141.4688 230.9813,141.4219 Q231.1063,141.6406 230.7,142.6406 L229.6688,145.7031 L232.2781,145.7031 Z "/><text fill="#000000" font-family="sans-serif" font-size="12" font-style="italic" lengthAdjust="spacingAndGlyphs" textLength="51" x="246.05" y="150.6641">Tokenizer</text><line style="stroke: #A80036; stroke-width: 1.5;" x1="212" x2="304" y1="162" y2="162"/><ellipse cx="222" cy="174.6973" fill="none" rx="3" ry="3" style="stroke: #038048; stroke-width: 1.0;"/><text fill="#000000" font-family="sans-serif" font-size="11" lengthAdjust="spacingAndGlyphs" textLength="68" x="231" y="177.4727">Reader* input</text><line style="stroke: #A80036; stroke-width: 1.5;" x1="212" x2="304" y1="184.3945" y2="184.3945"/><rect fill="#FEFECE" filter="url(#f1)" height="134.3672" style="stroke: #A80036; stroke-width: 1.5;" width="201" x="57.75" y="252"/><ellipse cx="118.5" cy="268" fill="#A9DCDF" rx="11" ry="11" style="stroke: #A80036; stroke-width: 1.0;"/><path d="M121.8594,273.5 L120.5313,269.7188 L116.5156,269.7188 L115.1875,273.5 L112.8594,273.5 L117.5625,260.5938 L119.4219,260.5938 L124.2031,273.5 L121.8594,273.5 Z M119.8281,267.7031 L118.7344,264.625 Q118.3281,263.4688 118.5313,263.4219 Q118.6563,263.6406 118.25,264.6406 L117.2188,267.7031 L119.8281,267.7031 Z "/><text fill="#000000" font-family="sans-serif" font-size="12" font-style="italic" lengthAdjust="spacingAndGlyphs" textLength="71" x="139" y="272.6641">CharTokenize</text><line style="stroke: #A80036; stroke-width: 1.5;" x1="58.75" x2="257.75" y1="284" y2="284"/><rect fill="none" height="6" style="stroke: #C82930; stroke-width: 1.0;" width="6" x="65.75" y="293.6973"/><text fill="#000000" font-family="sans-serif" font-size="11" lengthAdjust="spacingAndGlyphs" textLength="175" x="77.75" y="299.4727">int32_t offset, bufferIndex, dataLen</text><rect fill="none" height="6" style="stroke: #C82930; stroke-width: 1.0;" width="6" x="65.75" y="308.0918"/><text fill="#000000" font-family="sans-serif" font-size="11" lengthAdjust="spacingAndGlyphs" textLength="73" x="77.75" y="313.8672">TCHAR buffer[]</text><rect fill="none" height="6" style="stroke: #C82930; stroke-width: 1.0;" width="6" x="65.75" y="322.4863"/><text fill="#000000" font-family="sans-serif" font-size="11" lengthAdjust="spacingAndGlyphs" textLength="112" x="77.75" y="328.2617">const TCHAR* ioBuffer</text><line style="stroke: #A80036; stroke-width: 1.5;" x1="58.75" x2="257.75" y1="335.1836" y2="335.1836"/><polygon fill="#FFFF44" points="68.75,342.8809,72.75,346.8809,68.75,350.8809,64.75,346.8809" style="stroke: #B38D22; stroke-width: 1.0;"/><text fill="#000000" font-family="sans-serif" font-size="11" font-style="italic" lengthAdjust="spacingAndGlyphs" textLength="90" x="77.75" y="350.6563">bool isTokenChar()</text><polygon fill="#FFFF44" points="68.75,357.2754,72.75,361.2754,68.75,365.2754,64.75,361.2754" style="stroke: #B38D22; stroke-width: 1.0;"/><text fill="#000000" font-family="sans-serif" font-size="11" font-style="italic" lengthAdjust="spacingAndGlyphs" textLength="92" x="77.75" y="365.0508">TCHAR normalize()</text><ellipse cx="68.75" cy="376.6699" fill="#84BE84" rx="3" ry="3" style="stroke: #038048; stroke-width: 1.0;"/><text fill="#000000" font-family="sans-serif" font-size="11" lengthAdjust="spacingAndGlyphs" textLength="66" x="77.75" y="379.4453">Token* next()</text><rect fill="#FEFECE" filter="url(#f1)" height="62.3945" style="stroke: #A80036; stroke-width: 1.5;" width="116" x="18.5" y="446"/><ellipse cx="34.4" cy="462" fill="#ADD1B2" rx="11" ry="11" style="stroke: #A80036; stroke-width: 1.0;"/><path d="M37.3844,466.0469 L37.3844,468.0625 Q35.9156,468.6406 34.0563,468.6406 Q31.4469,468.6406 29.9547,466.9688 Q28.4625,465.2969 28.4625,462.0469 Q28.4625,458.9844 30.0484,457.2578 Q31.6344,455.5313 34.3219,455.5313 Q36.2594,455.5313 37.9781,456.375 L36.9938,458.3281 Q35.5094,457.5469 34.3219,457.5469 Q32.7438,457.5469 31.7438,458.7266 Q30.7438,459.9063 30.7438,462.1094 Q30.7438,464.375 31.65,465.4922 Q32.5563,466.6094 34.3219,466.6094 Q35.3375,466.6094 37.3844,466.0469 Z "/><text fill="#000000" font-family="sans-serif" font-size="12" lengthAdjust="spacingAndGlyphs" textLength="82" x="48.6" y="466.6641">LetterTokenizer</text><line style="stroke: #A80036; stroke-width: 1.5;" x1="19.5" x2="133.5" y1="478" y2="478"/><line style="stroke: #A80036; stroke-width: 1.5;" x1="19.5" x2="133.5" y1="486" y2="486"/><polygon fill="#FFFF44" points="29.5,493.6973,33.5,497.6973,29.5,501.6973,25.5,497.6973" style="stroke: #B38D22; stroke-width: 1.0;"/><text fill="#000000" font-family="sans-serif" font-size="11" lengthAdjust="spacingAndGlyphs" textLength="90" x="38.5" y="501.4727">bool isTokenChar()</text><rect fill="#FEFECE" filter="url(#f1)" height="62.3945" style="stroke: #A80036; stroke-width: 1.5;" width="140" x="6" y="568"/><ellipse cx="21" cy="584" fill="#ADD1B2" rx="11" ry="11" style="stroke: #A80036; stroke-width: 1.0;"/><path d="M23.9844,588.0469 L23.9844,590.0625 Q22.5156,590.6406 20.6563,590.6406 Q18.0469,590.6406 16.5547,588.9688 Q15.0625,587.2969 15.0625,584.0469 Q15.0625,580.9844 16.6484,579.2578 Q18.2344,577.5313 20.9219,577.5313 Q22.8594,577.5313 24.5781,578.375 L23.5938,580.3281 Q22.1094,579.5469 20.9219,579.5469 Q19.3438,579.5469 18.3438,580.7266 Q17.3438,581.9063 17.3438,584.1094 Q17.3438,586.375 18.25,587.4922 Q19.1563,588.6094 20.9219,588.6094 Q21.9375,588.6094 23.9844,588.0469 Z "/><text fill="#000000" font-family="sans-serif" font-size="12" lengthAdjust="spacingAndGlyphs" textLength="108" x="35" y="588.6641">LowerCaseTokenizer</text><line style="stroke: #A80036; stroke-width: 1.5;" x1="7" x2="145" y1="600" y2="600"/><line style="stroke: #A80036; stroke-width: 1.5;" x1="7" x2="145" y1="608" y2="608"/><polygon fill="#FFFF44" points="17,615.6973,21,619.6973,17,623.6973,13,619.6973" style="stroke: #B38D22; stroke-width: 1.0;"/><text fill="#000000" font-family="sans-serif" font-size="11" lengthAdjust="spacingAndGlyphs" textLength="92" x="26" y="623.4727">TCHAR normalize()</text><rect fill="#FEFECE" filter="url(#f1)" height="62.3945" style="stroke: #A80036; stroke-width: 1.5;" width="144" x="169" y="446"/><ellipse cx="184" cy="462" fill="#ADD1B2" rx="11" ry="11" style="stroke: #A80036; stroke-width: 1.0;"/><path d="M186.9844,466.0469 L186.9844,468.0625 Q185.5156,468.6406 183.6563,468.6406 Q181.0469,468.6406 179.5547,466.9688 Q178.0625,465.2969 178.0625,462.0469 Q178.0625,458.9844 179.6484,457.2578 Q181.2344,455.5313 183.9219,455.5313 Q185.8594,455.5313 187.5781,456.375 L186.5938,458.3281 Q185.1094,457.5469 183.9219,457.5469 Q182.3438,457.5469 181.3438,458.7266 Q180.3438,459.9063 180.3438,462.1094 Q180.3438,464.375 181.25,465.4922 Q182.1563,466.6094 183.9219,466.6094 Q184.9375,466.6094 186.9844,466.0469 Z "/><text fill="#000000" font-family="sans-serif" font-size="12" lengthAdjust="spacingAndGlyphs" textLength="112" x="198" y="466.6641">WhitespaceTokenizer</text><line style="stroke: #A80036; stroke-width: 1.5;" x1="170" x2="312" y1="478" y2="478"/><line style="stroke: #A80036; stroke-width: 1.5;" x1="170" x2="312" y1="486" y2="486"/><polygon fill="#FFFF44" points="180,493.6973,184,497.6973,180,501.6973,176,497.6973" style="stroke: #B38D22; stroke-width: 1.0;"/><text fill="#000000" font-family="sans-serif" font-size="11" lengthAdjust="spacingAndGlyphs" textLength="90" x="189" y="501.4727">bool isTokenChar()</text><rect fill="#FEFECE" filter="url(#f1)" height="91.1836" style="stroke: #A80036; stroke-width: 1.5;" width="130" x="294" y="273.5"/><ellipse cx="309" cy="289.5" fill="#ADD1B2" rx="11" ry="11" style="stroke: #A80036; stroke-width: 1.0;"/><path d="M311.9844,293.5469 L311.9844,295.5625 Q310.5156,296.1406 308.6563,296.1406 Q306.0469,296.1406 304.5547,294.4688 Q303.0625,292.7969 303.0625,289.5469 Q303.0625,286.4844 304.6484,284.7578 Q306.2344,283.0313 308.9219,283.0313 Q310.8594,283.0313 312.5781,283.875 L311.5938,285.8281 Q310.1094,285.0469 308.9219,285.0469 Q307.3438,285.0469 306.3438,286.2266 Q305.3438,287.4063 305.3438,289.6094 Q305.3438,291.875 306.25,292.9922 Q307.1563,294.1094 308.9219,294.1094 Q309.9375,294.1094 311.9844,293.5469 Z "/><text fill="#000000" font-family="sans-serif" font-size="12" lengthAdjust="spacingAndGlyphs" textLength="98" x="323" y="294.1641">KeywordTokenizer</text><line style="stroke: #A80036; stroke-width: 1.5;" x1="295" x2="423" y1="305.5" y2="305.5"/><rect fill="none" height="6" style="stroke: #C82930; stroke-width: 1.0;" width="6" x="302" y="315.1973"/><text fill="#000000" font-family="sans-serif" font-size="11" lengthAdjust="spacingAndGlyphs" textLength="48" x="314" y="320.9727">bool done</text><rect fill="none" height="6" style="stroke: #C82930; stroke-width: 1.0;" width="6" x="302" y="329.5918"/><text fill="#000000" font-family="sans-serif" font-size="11" lengthAdjust="spacingAndGlyphs" textLength="66" x="314" y="335.3672">int bufferSize</text><line style="stroke: #A80036; stroke-width: 1.5;" x1="295" x2="423" y1="342.2891" y2="342.2891"/><ellipse cx="305" cy="354.9863" fill="#84BE84" rx="3" ry="3" style="stroke: #038048; stroke-width: 1.0;"/><text fill="#000000" font-family="sans-serif" font-size="11" lengthAdjust="spacingAndGlyphs" textLength="66" x="314" y="357.7617">Token* next()</text><rect fill="#FEFECE" filter="url(#f1)" height="62.3945" style="stroke: #A80036; stroke-width: 1.5;" width="131" x="340.75" y="130"/><ellipse cx="355.75" cy="146" fill="#ADD1B2" rx="11" ry="11" style="stroke: #A80036; stroke-width: 1.0;"/><path d="M358.7344,150.0469 L358.7344,152.0625 Q357.2656,152.6406 355.4063,152.6406 Q352.7969,152.6406 351.3047,150.9688 Q349.8125,149.2969 349.8125,146.0469 Q349.8125,142.9844 351.3984,141.2578 Q352.9844,139.5313 355.6719,139.5313 Q357.6094,139.5313 359.3281,140.375 L358.3438,142.3281 Q356.8594,141.5469 355.6719,141.5469 Q354.0938,141.5469 353.0938,142.7266 Q352.0938,143.9063 352.0938,146.1094 Q352.0938,148.375 353,149.4922 Q353.9063,150.6094 355.6719,150.6094 Q356.6875,150.6094 358.7344,150.0469 Z "/><text fill="#000000" font-family="sans-serif" font-size="12" lengthAdjust="spacingAndGlyphs" textLength="99" x="369.75" y="150.6641">StandardTokenizer</text><line style="stroke: #A80036; stroke-width: 1.5;" x1="341.75" x2="470.75" y1="162" y2="162"/><line style="stroke: #A80036; stroke-width: 1.5;" x1="341.75" x2="470.75" y1="170" y2="170"/><ellipse cx="351.75" cy="182.6973" fill="#84BE84" rx="3" ry="3" style="stroke: #038048; stroke-width: 1.0;"/><text fill="#000000" font-family="sans-serif" font-size="11" lengthAdjust="spacingAndGlyphs" textLength="66" x="360.75" y="185.4727">Token* next()</text><path d="M258,90.373 C258,103.754 258,117.792 258,129.729 " fill="none" style="stroke: #A80036; stroke-width: 1.0;"/><polygon fill="none" points="251,90.281,258,70.281,265,90.281,251,90.281" style="stroke: #A80036; stroke-width: 1.0;"/><path d="M227.691,209.281 C219.097,222.689 209.579,237.537 200.409,251.842 " fill="none" style="stroke: #A80036; stroke-width: 1.0;"/><polygon fill="none" points="222.032,205.138,238.719,192.078,233.819,212.694,222.032,205.138" style="stroke: #A80036; stroke-width: 1.0;"/><path d="M113.687,404.302 C105.8711,419.172 98.2164,433.735 91.8696,445.809 " fill="none" style="stroke: #A80036; stroke-width: 1.0;"/><polygon fill="none" points="107.723,400.604,123.225,386.158,120.115,407.118,107.723,400.604" style="stroke: #A80036; stroke-width: 1.0;"/><path d="M76,528.373 C76,541.7544 76,555.7919 76,567.7286 " fill="none" style="stroke: #A80036; stroke-width: 1.0;"/><polygon fill="none" points="69.0001,528.281,76,508.281,83.0001,528.281,69.0001,528.281" style="stroke: #A80036; stroke-width: 1.0;"/><path d="M202.853,404.302 C210.765,419.172 218.513,433.735 224.937,445.809 " fill="none" style="stroke: #A80036; stroke-width: 1.0;"/><polygon fill="none" points="196.414,407.102,193.199,386.158,208.773,400.527,196.414,407.102" style="stroke: #A80036; stroke-width: 1.0;"/><path d="M288.396,208.948 C301.597,229.337 316.987,253.109 330.024,273.244 " fill="none" style="stroke: #A80036; stroke-width: 1.0;"/><polygon fill="none" points="282.467,212.671,277.474,192.078,294.219,205.063,282.467,212.671" style="stroke: #A80036; stroke-width: 1.0;"/><path d="M325.344,161 C330.424,161 335.504,161 340.584,161 " fill="none" style="stroke: #A80036; stroke-width: 1.0;"/><polygon fill="none" points="325.117,168,305.117,161,325.117,154,325.117,168" style="stroke: #A80036; stroke-width: 1.0;"/></g></svg>