<?xml version="1.0" encoding="UTF-8" standalone="yes"?><svg xmlns="http://www.w3.org/2000/svg" xmlns:xlink="http://www.w3.org/1999/xlink" height="639pt" style="width:1109px;height:639px;" version="1.1" viewBox="0 0 1109 639" width="1109pt"><defs><filter height="300%" id="f1" width="300%" x="-1" y="-1"><feGaussianBlur result="blurOut" stdDeviation="2.0"/><feColorMatrix in="blurOut" result="blurOut2" type="matrix" values="0 0 0 0 0 0 0 0 0 0 0 0 0 0 0 0 0 0 .4 0"/><feOffset dx="4.0" dy="4.0" in="blurOut2" result="blurOut3"/><feBlend in="SourceGraphic" in2="blurOut3" mode="normal"/></filter></defs><g><rect fill="#FEFECE" filter="url(#f1)" height="48" style="stroke: #A80036; stroke-width: 1.5;" width="140" x="303" y="15"/><ellipse cx="318" cy="31" fill="#ADD1B2" rx="11" ry="11" style="stroke: #A80036; stroke-width: 1.0;"/><path d="M320.9844,35.0469 L320.9844,37.0625 Q319.5156,37.6406 317.6563,37.6406 Q315.0469,37.6406 313.5547,35.9688 Q312.0625,34.2969 312.0625,31.0469 Q312.0625,27.9844 313.6484,26.2578 Q315.2344,24.5313 317.9219,24.5313 Q319.8594,24.5313 321.5781,25.375 L320.5938,27.3281 Q319.1094,26.5469 317.9219,26.5469 Q316.3438,26.5469 315.3438,27.7266 Q314.3438,28.9063 314.3438,31.1094 Q314.3438,33.375 315.25,34.4922 Q316.1563,35.6094 317.9219,35.6094 Q318.9375,35.6094 320.9844,35.0469 Z "/><text fill="#000000" font-family="sans-serif" font-size="12" lengthAdjust="spacingAndGlyphs" textLength="108" x="332" y="35.6641">Token:LUCENE_BASE</text><line style="stroke: #A80036; stroke-width: 1.5;" x1="304" x2="442" y1="47" y2="47"/><line style="stroke: #A80036; stroke-width: 1.5;" x1="304" x2="442" y1="55" y2="55"/><rect fill="#FEFECE" filter="url(#f1)" height="62.3945" style="stroke: #A80036; stroke-width: 1.5;" width="102" x="478.5" y="8"/><ellipse cx="493.5" cy="24" fill="#A9DCDF" rx="11" ry="11" style="stroke: #A80036; stroke-width: 1.0;"/><path d="M496.8594,29.5 L495.5313,25.7188 L491.5156,25.7188 L490.1875,29.5 L487.8594,29.5 L492.5625,16.5938 L494.4219,16.5938 L499.2031,29.5 L496.8594,29.5 Z M494.8281,23.7031 L493.7344,20.625 Q493.3281,19.4688 493.5313,19.4219 Q493.6563,19.6406 493.25,20.6406 L492.2188,23.7031 L494.8281,23.7031 Z "/><text fill="#000000" font-family="sans-serif" font-size="12" font-style="italic" lengthAdjust="spacingAndGlyphs" textLength="70" x="507.5" y="28.6641">TokenStream</text><line style="stroke: #A80036; stroke-width: 1.5;" x1="479.5" x2="579.5" y1="40" y2="40"/><line style="stroke: #A80036; stroke-width: 1.5;" x1="479.5" x2="579.5" y1="48" y2="48"/><ellipse cx="489.5" cy="60.6973" fill="#84BE84" rx="3" ry="3" style="stroke: #038048; stroke-width: 1.0;"/><text fill="#000000" font-family="sans-serif" font-size="11" font-style="italic" lengthAdjust="spacingAndGlyphs" textLength="66" x="498.5" y="63.4727">Token* next()</text><rect fill="#FEFECE" filter="url(#f1)" height="62.3945" style="stroke: #A80036; stroke-width: 1.5;" width="94" x="312" y="130"/><ellipse cx="331.95" cy="146" fill="#A9DCDF" rx="11" ry="11" style="stroke: #A80036; stroke-width: 1.0;"/><path d="M335.3094,151.5 L333.9813,147.7188 L329.9656,147.7188 L328.6375,151.5 L326.3094,151.5 L331.0125,138.5938 L332.8719,138.5938 L337.6531,151.5 L335.3094,151.5 Z M333.2781,145.7031 L332.1844,142.625 Q331.7781,141.4688 331.9813,141.4219 Q332.1063,141.6406 331.7,142.6406 L330.6688,145.7031 L333.2781,145.7031 Z "/><text fill="#000000" font-family="sans-serif" font-size="12" font-style="italic" lengthAdjust="spacingAndGlyphs" textLength="51" x="347.05" y="150.6641">Tokenizer</text><line style="stroke: #A80036; stroke-width: 1.5;" x1="313" x2="405" y1="162" y2="162"/><ellipse cx="323" cy="174.6973" fill="none" rx="3" ry="3" style="stroke: #038048; stroke-width: 1.0;"/><text fill="#000000" font-family="sans-serif" font-size="11" lengthAdjust="spacingAndGlyphs" textLength="68" x="332" y="177.4727">Reader* input</text><line style="stroke: #A80036; stroke-width: 1.5;" x1="313" x2="405" y1="184.3945" y2="184.3945"/><rect fill="#FEFECE" filter="url(#f1)" height="62.3945" style="stroke: #A80036; stroke-width: 1.5;" width="125" x="636.75" y="130"/><ellipse cx="667.05" cy="146" fill="#A9DCDF" rx="11" ry="11" style="stroke: #A80036; stroke-width: 1.0;"/><path d="M670.4094,151.5 L669.0813,147.7188 L665.0656,147.7188 L663.7375,151.5 L661.4094,151.5 L666.1125,138.5938 L667.9719,138.5938 L672.7531,151.5 L670.4094,151.5 Z M668.3781,145.7031 L667.2844,142.625 Q666.8781,141.4688 667.0813,141.4219 Q667.2063,141.6406 666.8,142.6406 L665.7688,145.7031 L668.3781,145.7031 Z "/><text fill="#000000" font-family="sans-serif" font-size="12" font-style="italic" lengthAdjust="spacingAndGlyphs" textLength="59" x="684.45" y="150.6641">TokenFilter</text><line style="stroke: #A80036; stroke-width: 1.5;" x1="637.75" x2="760.75" y1="162" y2="162"/><ellipse cx="647.75" cy="174.6973" fill="none" rx="3" ry="3" style="stroke: #038048; stroke-width: 1.0;"/><text fill="#000000" font-family="sans-serif" font-size="11" lengthAdjust="spacingAndGlyphs" textLength="99" x="656.75" y="177.4727">TokenStream* input</text><line style="stroke: #A80036; stroke-width: 1.5;" x1="637.75" x2="760.75" y1="184.3945" y2="184.3945"/><rect fill="#FEFECE" filter="url(#f1)" height="134.3672" style="stroke: #A80036; stroke-width: 1.5;" width="201" x="57.75" y="252"/><ellipse cx="118.5" cy="268" fill="#A9DCDF" rx="11" ry="11" style="stroke: #A80036; stroke-width: 1.0;"/><path d="M121.8594,273.5 L120.5313,269.7188 L116.5156,269.7188 L115.1875,273.5 L112.8594,273.5 L117.5625,260.5938 L119.4219,260.5938 L124.2031,273.5 L121.8594,273.5 Z M119.8281,267.7031 L118.7344,264.625 Q118.3281,263.4688 118.5313,263.4219 Q118.6563,263.6406 118.25,264.6406 L117.2188,267.7031 L119.8281,267.7031 Z "/><text fill="#000000" font-family="sans-serif" font-size="12" font-style="italic" lengthAdjust="spacingAndGlyphs" textLength="71" x="139" y="272.6641">CharTokenize</text><line style="stroke: #A80036; stroke-width: 1.5;" x1="58.75" x2="257.75" y1="284" y2="284"/><rect fill="none" height="6" style="stroke: #C82930; stroke-width: 1.0;" width="6" x="65.75" y="293.6973"/><text fill="#000000" font-family="sans-serif" font-size="11" lengthAdjust="spacingAndGlyphs" textLength="175" x="77.75" y="299.4727">int32_t offset, bufferIndex, dataLen</text><rect fill="none" height="6" style="stroke: #C82930; stroke-width: 1.0;" width="6" x="65.75" y="308.0918"/><text fill="#000000" font-family="sans-serif" font-size="11" lengthAdjust="spacingAndGlyphs" textLength="73" x="77.75" y="313.8672">TCHAR buffer[]</text><rect fill="none" height="6" style="stroke: #C82930; stroke-width: 1.0;" width="6" x="65.75" y="322.4863"/><text fill="#000000" font-family="sans-serif" font-size="11" lengthAdjust="spacingAndGlyphs" textLength="112" x="77.75" y="328.2617">const TCHAR* ioBuffer</text><line style="stroke: #A80036; stroke-width: 1.5;" x1="58.75" x2="257.75" y1="335.1836" y2="335.1836"/><polygon fill="#FFFF44" points="68.75,342.8809,72.75,346.8809,68.75,350.8809,64.75,346.8809" style="stroke: #B38D22; stroke-width: 1.0;"/><text fill="#000000" font-family="sans-serif" font-size="11" font-style="italic" lengthAdjust="spacingAndGlyphs" textLength="90" x="77.75" y="350.6563">bool isTokenChar()</text><polygon fill="#FFFF44" points="68.75,357.2754,72.75,361.2754,68.75,365.2754,64.75,361.2754" style="stroke: #B38D22; stroke-width: 1.0;"/><text fill="#000000" font-family="sans-serif" font-size="11" font-style="italic" lengthAdjust="spacingAndGlyphs" textLength="92" x="77.75" y="365.0508">TCHAR normalize()</text><ellipse cx="68.75" cy="376.6699" fill="#84BE84" rx="3" ry="3" style="stroke: #038048; stroke-width: 1.0;"/><text fill="#000000" font-family="sans-serif" font-size="11" lengthAdjust="spacingAndGlyphs" textLength="66" x="77.75" y="379.4453">Token* next()</text><rect fill="#FEFECE" filter="url(#f1)" height="62.3945" style="stroke: #A80036; stroke-width: 1.5;" width="116" x="18.5" y="446"/><ellipse cx="34.4" cy="462" fill="#ADD1B2" rx="11" ry="11" style="stroke: #A80036; stroke-width: 1.0;"/><path d="M37.3844,466.0469 L37.3844,468.0625 Q35.9156,468.6406 34.0563,468.6406 Q31.4469,468.6406 29.9547,466.9688 Q28.4625,465.2969 28.4625,462.0469 Q28.4625,458.9844 30.0484,457.2578 Q31.6344,455.5313 34.3219,455.5313 Q36.2594,455.5313 37.9781,456.375 L36.9938,458.3281 Q35.5094,457.5469 34.3219,457.5469 Q32.7438,457.5469 31.7438,458.7266 Q30.7438,459.9063 30.7438,462.1094 Q30.7438,464.375 31.65,465.4922 Q32.5563,466.6094 34.3219,466.6094 Q35.3375,466.6094 37.3844,466.0469 Z "/><text fill="#000000" font-family="sans-serif" font-size="12" lengthAdjust="spacingAndGlyphs" textLength="82" x="48.6" y="466.6641">LetterTokenizer</text><line style="stroke: #A80036; stroke-width: 1.5;" x1="19.5" x2="133.5" y1="478" y2="478"/><line style="stroke: #A80036; stroke-width: 1.5;" x1="19.5" x2="133.5" y1="486" y2="486"/><polygon fill="#FFFF44" points="29.5,493.6973,33.5,497.6973,29.5,501.6973,25.5,497.6973" style="stroke: #B38D22; stroke-width: 1.0;"/><text fill="#000000" font-family="sans-serif" font-size="11" lengthAdjust="spacingAndGlyphs" textLength="90" x="38.5" y="501.4727">bool isTokenChar()</text><rect fill="#FEFECE" filter="url(#f1)" height="62.3945" style="stroke: #A80036; stroke-width: 1.5;" width="140" x="6" y="568"/><ellipse cx="21" cy="584" fill="#ADD1B2" rx="11" ry="11" style="stroke: #A80036; stroke-width: 1.0;"/><path d="M23.9844,588.0469 L23.9844,590.0625 Q22.5156,590.6406 20.6563,590.6406 Q18.0469,590.6406 16.5547,588.9688 Q15.0625,587.2969 15.0625,584.0469 Q15.0625,580.9844 16.6484,579.2578 Q18.2344,577.5313 20.9219,577.5313 Q22.8594,577.5313 24.5781,578.375 L23.5938,580.3281 Q22.1094,579.5469 20.9219,579.5469 Q19.3438,579.5469 18.3438,580.7266 Q17.3438,581.9063 17.3438,584.1094 Q17.3438,586.375 18.25,587.4922 Q19.1563,588.6094 20.9219,588.6094 Q21.9375,588.6094 23.9844,588.0469 Z "/><text fill="#000000" font-family="sans-serif" font-size="12" lengthAdjust="spacingAndGlyphs" textLength="108" x="35" y="588.6641">LowerCaseTokenizer</text><line style="stroke: #A80036; stroke-width: 1.5;" x1="7" x2="145" y1="600" y2="600"/><line style="stroke: #A80036; stroke-width: 1.5;" x1="7" x2="145" y1="608" y2="608"/><polygon fill="#FFFF44" points="17,615.6973,21,619.6973,17,623.6973,13,619.6973" style="stroke: #B38D22; stroke-width: 1.0;"/><text fill="#000000" font-family="sans-serif" font-size="11" lengthAdjust="spacingAndGlyphs" textLength="92" x="26" y="623.4727">TCHAR normalize()</text><rect fill="#FEFECE" filter="url(#f1)" height="62.3945" style="stroke: #A80036; stroke-width: 1.5;" width="144" x="169" y="446"/><ellipse cx="184" cy="462" fill="#ADD1B2" rx="11" ry="11" style="stroke: #A80036; stroke-width: 1.0;"/><path d="M186.9844,466.0469 L186.9844,468.0625 Q185.5156,468.6406 183.6563,468.6406 Q181.0469,468.6406 179.5547,466.9688 Q178.0625,465.2969 178.0625,462.0469 Q178.0625,458.9844 179.6484,457.2578 Q181.2344,455.5313 183.9219,455.5313 Q185.8594,455.5313 187.5781,456.375 L186.5938,458.3281 Q185.1094,457.5469 183.9219,457.5469 Q182.3438,457.5469 181.3438,458.7266 Q180.3438,459.9063 180.3438,462.1094 Q180.3438,464.375 181.25,465.4922 Q182.1563,466.6094 183.9219,466.6094 Q184.9375,466.6094 186.9844,466.0469 Z "/><text fill="#000000" font-family="sans-serif" font-size="12" lengthAdjust="spacingAndGlyphs" textLength="112" x="198" y="466.6641">WhitespaceTokenizer</text><line style="stroke: #A80036; stroke-width: 1.5;" x1="170" x2="312" y1="478" y2="478"/><line style="stroke: #A80036; stroke-width: 1.5;" x1="170" x2="312" y1="486" y2="486"/><polygon fill="#FFFF44" points="180,493.6973,184,497.6973,180,501.6973,176,497.6973" style="stroke: #B38D22; stroke-width: 1.0;"/><text fill="#000000" font-family="sans-serif" font-size="11" lengthAdjust="spacingAndGlyphs" textLength="90" x="189" y="501.4727">bool isTokenChar()</text><rect fill="#FEFECE" filter="url(#f1)" height="62.3945" style="stroke: #A80036; stroke-width: 1.5;" width="116" x="459.5" y="288"/><ellipse cx="474.5" cy="304" fill="#ADD1B2" rx="11" ry="11" style="stroke: #A80036; stroke-width: 1.0;"/><path d="M477.4844,308.0469 L477.4844,310.0625 Q476.0156,310.6406 474.1563,310.6406 Q471.5469,310.6406 470.0547,308.9688 Q468.5625,307.2969 468.5625,304.0469 Q468.5625,300.9844 470.1484,299.2578 Q471.7344,297.5313 474.4219,297.5313 Q476.3594,297.5313 478.0781,298.375 L477.0938,300.3281 Q475.6094,299.5469 474.4219,299.5469 Q472.8438,299.5469 471.8438,300.7266 Q470.8438,301.9063 470.8438,304.1094 Q470.8438,306.375 471.75,307.4922 Q472.6563,308.6094 474.4219,308.6094 Q475.4375,308.6094 477.4844,308.0469 Z "/><text fill="#000000" font-family="sans-serif" font-size="12" lengthAdjust="spacingAndGlyphs" textLength="84" x="488.5" y="308.6641">LowerCaseFilter</text><line style="stroke: #A80036; stroke-width: 1.5;" x1="460.5" x2="574.5" y1="320" y2="320"/><line style="stroke: #A80036; stroke-width: 1.5;" x1="460.5" x2="574.5" y1="328" y2="328"/><ellipse cx="470.5" cy="340.6973" fill="#84BE84" rx="3" ry="3" style="stroke: #038048; stroke-width: 1.0;"/><text fill="#000000" font-family="sans-serif" font-size="11" lengthAdjust="spacingAndGlyphs" textLength="66" x="479.5" y="343.4727">Token* next()</text><rect fill="#FEFECE" filter="url(#f1)" height="119.9727" style="stroke: #A80036; stroke-width: 1.5;" width="178" x="610.5" y="259"/><ellipse cx="669.75" cy="275" fill="#ADD1B2" rx="11" ry="11" style="stroke: #A80036; stroke-width: 1.0;"/><path d="M672.7344,279.0469 L672.7344,281.0625 Q671.2656,281.6406 669.4063,281.6406 Q666.7969,281.6406 665.3047,279.9688 Q663.8125,278.2969 663.8125,275.0469 Q663.8125,271.9844 665.3984,270.2578 Q666.9844,268.5313 669.6719,268.5313 Q671.6094,268.5313 673.3281,269.375 L672.3438,271.3281 Q670.8594,270.5469 669.6719,270.5469 Q668.0938,270.5469 667.0938,271.7266 Q666.0938,272.9063 666.0938,275.1094 Q666.0938,277.375 667,278.4922 Q667.9063,279.6094 669.6719,279.6094 Q670.6875,279.6094 672.7344,279.0469 Z "/><text fill="#000000" font-family="sans-serif" font-size="12" lengthAdjust="spacingAndGlyphs" textLength="51" x="690.25" y="279.6641">StopFilter</text><line style="stroke: #A80036; stroke-width: 1.5;" x1="611.5" x2="787.5" y1="291" y2="291"/><rect fill="none" height="6" style="stroke: #C82930; stroke-width: 1.0;" width="6" x="618.5" y="300.6973"/><text fill="#000000" font-family="sans-serif" font-size="11" lengthAdjust="spacingAndGlyphs" textLength="119" x="630.5" y="306.4727">CLTCSetList* stopWords</text><rect fill="none" height="6" style="stroke: #C82930; stroke-width: 1.0;" width="6" x="618.5" y="315.0918"/><text fill="#000000" font-family="sans-serif" font-size="11" lengthAdjust="spacingAndGlyphs" textLength="104" x="630.5" y="320.8672">bool deleteStopTable</text><rect fill="none" height="6" style="stroke: #C82930; stroke-width: 1.0;" width="6" x="618.5" y="329.4863"/><text fill="#000000" font-family="sans-serif" font-size="11" lengthAdjust="spacingAndGlyphs" textLength="152" x="630.5" y="335.2617">bool enablePositionIncrements</text><rect fill="none" height="6" style="stroke: #C82930; stroke-width: 1.0;" width="6" x="618.5" y="343.8809"/><text fill="#000000" font-family="sans-serif" font-size="11" lengthAdjust="spacingAndGlyphs" textLength="79" x="630.5" y="349.6563">bool ignoreCase</text><line style="stroke: #A80036; stroke-width: 1.5;" x1="611.5" x2="787.5" y1="356.5781" y2="356.5781"/><ellipse cx="621.5" cy="369.2754" fill="#84BE84" rx="3" ry="3" style="stroke: #038048; stroke-width: 1.0;"/><text fill="#000000" font-family="sans-serif" font-size="11" lengthAdjust="spacingAndGlyphs" textLength="66" x="630.5" y="372.0508">Token* next()</text><rect fill="#FEFECE" filter="url(#f1)" height="62.3945" style="stroke: #A80036; stroke-width: 1.5;" width="147" x="823.75" y="288"/><ellipse cx="838.75" cy="304" fill="#ADD1B2" rx="11" ry="11" style="stroke: #A80036; stroke-width: 1.0;"/><path d="M841.7344,308.0469 L841.7344,310.0625 Q840.2656,310.6406 838.4063,310.6406 Q835.7969,310.6406 834.3047,308.9688 Q832.8125,307.2969 832.8125,304.0469 Q832.8125,300.9844 834.3984,299.2578 Q835.9844,297.5313 838.6719,297.5313 Q840.6094,297.5313 842.3281,298.375 L841.3438,300.3281 Q839.8594,299.5469 838.6719,299.5469 Q837.0938,299.5469 836.0938,300.7266 Q835.0938,301.9063 835.0938,304.1094 Q835.0938,306.375 836,307.4922 Q836.9063,308.6094 838.6719,308.6094 Q839.6875,308.6094 841.7344,308.0469 Z "/><text fill="#000000" font-family="sans-serif" font-size="12" lengthAdjust="spacingAndGlyphs" textLength="115" x="852.75" y="308.6641">ISOLatin1AccentFilter</text><line style="stroke: #A80036; stroke-width: 1.5;" x1="824.75" x2="969.75" y1="320" y2="320"/><line style="stroke: #A80036; stroke-width: 1.5;" x1="824.75" x2="969.75" y1="328" y2="328"/><ellipse cx="834.75" cy="340.6973" fill="#84BE84" rx="3" ry="3" style="stroke: #038048; stroke-width: 1.0;"/><text fill="#000000" font-family="sans-serif" font-size="11" lengthAdjust="spacingAndGlyphs" textLength="66" x="843.75" y="343.4727">Token* next()</text><rect fill="#FEFECE" filter="url(#f1)" height="91.1836" style="stroke: #A80036; stroke-width: 1.5;" width="130" x="294" y="273.5"/><ellipse cx="309" cy="289.5" fill="#ADD1B2" rx="11" ry="11" style="stroke: #A80036; stroke-width: 1.0;"/><path d="M311.9844,293.5469 L311.9844,295.5625 Q310.5156,296.1406 308.6563,296.1406 Q306.0469,296.1406 304.5547,294.4688 Q303.0625,292.7969 303.0625,289.5469 Q303.0625,286.4844 304.6484,284.7578 Q306.2344,283.0313 308.9219,283.0313 Q310.8594,283.0313 312.5781,283.875 L311.5938,285.8281 Q310.1094,285.0469 308.9219,285.0469 Q307.3438,285.0469 306.3438,286.2266 Q305.3438,287.4063 305.3438,289.6094 Q305.3438,291.875 306.25,292.9922 Q307.1563,294.1094 308.9219,294.1094 Q309.9375,294.1094 311.9844,293.5469 Z "/><text fill="#000000" font-family="sans-serif" font-size="12" lengthAdjust="spacingAndGlyphs" textLength="98" x="323" y="294.1641">KeywordTokenizer</text><line style="stroke: #A80036; stroke-width: 1.5;" x1="295" x2="423" y1="305.5" y2="305.5"/><rect fill="none" height="6" style="stroke: #C82930; stroke-width: 1.0;" width="6" x="302" y="315.1973"/><text fill="#000000" font-family="sans-serif" font-size="11" lengthAdjust="spacingAndGlyphs" textLength="48" x="314" y="320.9727">bool done</text><rect fill="none" height="6" style="stroke: #C82930; stroke-width: 1.0;" width="6" x="302" y="329.5918"/><text fill="#000000" font-family="sans-serif" font-size="11" lengthAdjust="spacingAndGlyphs" textLength="66" x="314" y="335.3672">int bufferSize</text><line style="stroke: #A80036; stroke-width: 1.5;" x1="295" x2="423" y1="342.2891" y2="342.2891"/><ellipse cx="305" cy="354.9863" fill="#84BE84" rx="3" ry="3" style="stroke: #038048; stroke-width: 1.0;"/><text fill="#000000" font-family="sans-serif" font-size="11" lengthAdjust="spacingAndGlyphs" textLength="66" x="314" y="357.7617">Token* next()</text><rect fill="#FEFECE" filter="url(#f1)" height="91.1836" style="stroke: #A80036; stroke-width: 1.5;" width="95" x="1005.75" y="273.5"/><ellipse cx="1020.75" cy="289.5" fill="#ADD1B2" rx="11" ry="11" style="stroke: #A80036; stroke-width: 1.0;"/><path d="M1023.7344,293.5469 L1023.7344,295.5625 Q1022.2656,296.1406 1020.4063,296.1406 Q1017.7969,296.1406 1016.3047,294.4688 Q1014.8125,292.7969 1014.8125,289.5469 Q1014.8125,286.4844 1016.3984,284.7578 Q1017.9844,283.0313 1020.6719,283.0313 Q1022.6094,283.0313 1024.3281,283.875 L1023.3438,285.8281 Q1021.8594,285.0469 1020.6719,285.0469 Q1019.0938,285.0469 1018.0938,286.2266 Q1017.0938,287.4063 1017.0938,289.6094 Q1017.0938,291.875 1018,292.9922 Q1018.9063,294.1094 1020.6719,294.1094 Q1021.6875,294.1094 1023.7344,293.5469 Z "/><text fill="#000000" font-family="sans-serif" font-size="12" lengthAdjust="spacingAndGlyphs" textLength="63" x="1034.75" y="294.1641">LengthFilter</text><line style="stroke: #A80036; stroke-width: 1.5;" x1="1006.75" x2="1099.75" y1="305.5" y2="305.5"/><rect fill="none" height="6" style="stroke: #C82930; stroke-width: 1.0;" width="6" x="1013.75" y="315.1973"/><text fill="#000000" font-family="sans-serif" font-size="11" lengthAdjust="spacingAndGlyphs" textLength="55" x="1025.75" y="320.9727">size_t _min</text><rect fill="none" height="6" style="stroke: #C82930; stroke-width: 1.0;" width="6" x="1013.75" y="329.5918"/><text fill="#000000" font-family="sans-serif" font-size="11" lengthAdjust="spacingAndGlyphs" textLength="58" x="1025.75" y="335.3672">size_t _max</text><line style="stroke: #A80036; stroke-width: 1.5;" x1="1006.75" x2="1099.75" y1="342.2891" y2="342.2891"/><ellipse cx="1016.75" cy="354.9863" fill="#84BE84" rx="3" ry="3" style="stroke: #038048; stroke-width: 1.0;"/><text fill="#000000" font-family="sans-serif" font-size="11" lengthAdjust="spacingAndGlyphs" textLength="66" x="1025.75" y="357.7617">Token* next()</text><path d="M469.593,81.934 C447.185,97.752 422.16,115.417 401.59,129.937 " fill="none" style="stroke: #A80036; stroke-width: 1.0;"/><polygon fill="none" points="465.726,76.096,486.102,70.281,473.799,87.534,465.726,76.096" style="stroke: #A80036; stroke-width: 1.0;"/><path d="M588.407,81.934 C610.815,97.752 635.84,115.417 656.41,129.937 " fill="none" style="stroke: #A80036; stroke-width: 1.0;"/><polygon fill="none" points="584.201,87.534,571.898,70.281,592.274,76.096,584.201,87.534" style="stroke: #A80036; stroke-width: 1.0;"/><path d="M304.18,204.547 C285.38,219.138 263.872,235.831 243.242,251.842 " fill="none" style="stroke: #A80036; stroke-width: 1.0;"/><polygon fill="none" points="300.154,198.811,320.245,192.078,308.737,209.871,300.154,198.811" style="stroke: #A80036; stroke-width: 1.0;"/><path d="M113.687,404.302 C105.8711,419.172 98.2164,433.735 91.8696,445.809 " fill="none" style="stroke: #A80036; stroke-width: 1.0;"/><polygon fill="none" points="107.723,400.604,123.225,386.158,120.115,407.118,107.723,400.604" style="stroke: #A80036; stroke-width: 1.0;"/><path d="M76,528.373 C76,541.7544 76,555.7919 76,567.7286 " fill="none" style="stroke: #A80036; stroke-width: 1.0;"/><polygon fill="none" points="69.0001,528.281,76,508.281,83.0001,528.281,69.0001,528.281" style="stroke: #A80036; stroke-width: 1.0;"/><path d="M202.853,404.302 C210.765,419.172 218.513,433.735 224.937,445.809 " fill="none" style="stroke: #A80036; stroke-width: 1.0;"/><polygon fill="none" points="196.414,407.102,193.199,386.158,208.773,400.527,196.414,407.102" style="stroke: #A80036; stroke-width: 1.0;"/><path d="M647.809,205.266 C630.381,220.048 610.809,236.708 593,252 C579.477,263.612 564.665,276.449 551.738,287.69 " fill="none" style="stroke: #A80036; stroke-width: 1.0;"/><polygon fill="none" points="643.314,199.9,663.098,192.312,652.364,210.582,643.314,199.9" style="stroke: #A80036; stroke-width: 1.0;"/><path d="M699,212.162 C699,227.064 699,243.527 699,258.94 " fill="none" style="stroke: #A80036; stroke-width: 1.0;"/><polygon fill="none" points="692,212.078,699,192.078,706,212.078,692,212.078" style="stroke: #A80036; stroke-width: 1.0;"/><path d="M753.265,204.754 C786.657,231.063 828.647,264.146 858.604,287.748 " fill="none" style="stroke: #A80036; stroke-width: 1.0;"/><polygon fill="none" points="748.554,209.954,737.176,192.078,757.218,198.957,748.554,209.954" style="stroke: #A80036; stroke-width: 1.0;"/><path d="M359,212.377 C359,231.967 359,254.228 359,273.244 " fill="none" style="stroke: #A80036; stroke-width: 1.0;"/><polygon fill="none" points="352,212.078,359,192.078,366,212.078,352,212.078" style="stroke: #A80036; stroke-width: 1.0;"/><path d="M780.899,176.303 C841.351,189.434 923.903,212.925 988,252 C997.612,257.86 1006.83,265.45 1015.14,273.386 " fill="none" style="stroke: #A80036; stroke-width: 1.0;"/><polygon fill="none" points="779.466,183.155,761.304,172.239,782.309,169.446,779.466,183.155" style="stroke: #A80036; stroke-width: 1.0;"/></g></svg>