<?xml version="1.0" encoding="UTF-8" standalone="yes"?><svg xmlns="http://www.w3.org/2000/svg" xmlns:xlink="http://www.w3.org/1999/xlink" height="380pt" style="width:890px;height:380px;" version="1.1" viewBox="0 0 890 380" width="890pt"><defs><filter height="300%" id="f1" width="300%" x="-1" y="-1"><feGaussianBlur result="blurOut" stdDeviation="2.0"/><feColorMatrix in="blurOut" result="blurOut2" type="matrix" values="0 0 0 0 0 0 0 0 0 0 0 0 0 0 0 0 0 0 .4 0"/><feOffset dx="4.0" dy="4.0" in="blurOut2" result="blurOut3"/><feBlend in="SourceGraphic" in2="blurOut3" mode="normal"/></filter></defs><g><rect fill="#FEFECE" filter="url(#f1)" height="62.3945" style="stroke: #A80036; stroke-width: 1.5;" width="102" x="393.5" y="8"/><ellipse cx="408.5" cy="24" fill="#A9DCDF" rx="11" ry="11" style="stroke: #A80036; stroke-width: 1.0;"/><path d="M411.8594,29.5 L410.5313,25.7188 L406.5156,25.7188 L405.1875,29.5 L402.8594,29.5 L407.5625,16.5938 L409.4219,16.5938 L414.2031,29.5 L411.8594,29.5 Z M409.8281,23.7031 L408.7344,20.625 Q408.3281,19.4688 408.5313,19.4219 Q408.6563,19.6406 408.25,20.6406 L407.2188,23.7031 L409.8281,23.7031 Z "/><text fill="#000000" font-family="sans-serif" font-size="12" font-style="italic" lengthAdjust="spacingAndGlyphs" textLength="70" x="422.5" y="28.6641">TokenStream</text><line style="stroke: #A80036; stroke-width: 1.5;" x1="394.5" x2="494.5" y1="40" y2="40"/><line style="stroke: #A80036; stroke-width: 1.5;" x1="394.5" x2="494.5" y1="48" y2="48"/><ellipse cx="404.5" cy="60.6973" fill="#84BE84" rx="3" ry="3" style="stroke: #038048; stroke-width: 1.0;"/><text fill="#000000" font-family="sans-serif" font-size="11" font-style="italic" lengthAdjust="spacingAndGlyphs" textLength="66" x="413.5" y="63.4727">Token* next()</text><rect fill="#FEFECE" filter="url(#f1)" height="62.3945" style="stroke: #A80036; stroke-width: 1.5;" width="125" x="381.75" y="130"/><ellipse cx="412.05" cy="146" fill="#A9DCDF" rx="11" ry="11" style="stroke: #A80036; stroke-width: 1.0;"/><path d="M415.4094,151.5 L414.0813,147.7188 L410.0656,147.7188 L408.7375,151.5 L406.4094,151.5 L411.1125,138.5938 L412.9719,138.5938 L417.7531,151.5 L415.4094,151.5 Z M413.3781,145.7031 L412.2844,142.625 Q411.8781,141.4688 412.0813,141.4219 Q412.2063,141.6406 411.8,142.6406 L410.7688,145.7031 L413.3781,145.7031 Z "/><text fill="#000000" font-family="sans-serif" font-size="12" font-style="italic" lengthAdjust="spacingAndGlyphs" textLength="59" x="429.45" y="150.6641">TokenFilter</text><line style="stroke: #A80036; stroke-width: 1.5;" x1="382.75" x2="505.75" y1="162" y2="162"/><ellipse cx="392.75" cy="174.6973" fill="none" rx="3" ry="3" style="stroke: #038048; stroke-width: 1.0;"/><text fill="#000000" font-family="sans-serif" font-size="11" lengthAdjust="spacingAndGlyphs" textLength="99" x="401.75" y="177.4727">TokenStream* input</text><line style="stroke: #A80036; stroke-width: 1.5;" x1="382.75" x2="505.75" y1="184.3945" y2="184.3945"/><rect fill="#FEFECE" filter="url(#f1)" height="62.3945" style="stroke: #A80036; stroke-width: 1.5;" width="116" x="6.5" y="281"/><ellipse cx="21.5" cy="297" fill="#ADD1B2" rx="11" ry="11" style="stroke: #A80036; stroke-width: 1.0;"/><path d="M24.4844,301.0469 L24.4844,303.0625 Q23.0156,303.6406 21.1563,303.6406 Q18.5469,303.6406 17.0547,301.9688 Q15.5625,300.2969 15.5625,297.0469 Q15.5625,293.9844 17.1484,292.2578 Q18.7344,290.5313 21.4219,290.5313 Q23.3594,290.5313 25.0781,291.375 L24.0938,293.3281 Q22.6094,292.5469 21.4219,292.5469 Q19.8438,292.5469 18.8438,293.7266 Q17.8438,294.9063 17.8438,297.1094 Q17.8438,299.375 18.75,300.4922 Q19.6563,301.6094 21.4219,301.6094 Q22.4375,301.6094 24.4844,301.0469 Z "/><text fill="#000000" font-family="sans-serif" font-size="12" lengthAdjust="spacingAndGlyphs" textLength="84" x="35.5" y="301.6641">LowerCaseFilter</text><line style="stroke: #A80036; stroke-width: 1.5;" x1="7.5" x2="121.5" y1="313" y2="313"/><line style="stroke: #A80036; stroke-width: 1.5;" x1="7.5" x2="121.5" y1="321" y2="321"/><ellipse cx="17.5" cy="333.6973" fill="#84BE84" rx="3" ry="3" style="stroke: #038048; stroke-width: 1.0;"/><text fill="#000000" font-family="sans-serif" font-size="11" lengthAdjust="spacingAndGlyphs" textLength="66" x="26.5" y="336.4727">Token* next()</text><rect fill="#FEFECE" filter="url(#f1)" height="119.9727" style="stroke: #A80036; stroke-width: 1.5;" width="178" x="157.5" y="252"/><ellipse cx="216.75" cy="268" fill="#ADD1B2" rx="11" ry="11" style="stroke: #A80036; stroke-width: 1.0;"/><path d="M219.7344,272.0469 L219.7344,274.0625 Q218.2656,274.6406 216.4063,274.6406 Q213.7969,274.6406 212.3047,272.9688 Q210.8125,271.2969 210.8125,268.0469 Q210.8125,264.9844 212.3984,263.2578 Q213.9844,261.5313 216.6719,261.5313 Q218.6094,261.5313 220.3281,262.375 L219.3438,264.3281 Q217.8594,263.5469 216.6719,263.5469 Q215.0938,263.5469 214.0938,264.7266 Q213.0938,265.9063 213.0938,268.1094 Q213.0938,270.375 214,271.4922 Q214.9063,272.6094 216.6719,272.6094 Q217.6875,272.6094 219.7344,272.0469 Z "/><text fill="#000000" font-family="sans-serif" font-size="12" lengthAdjust="spacingAndGlyphs" textLength="51" x="237.25" y="272.6641">StopFilter</text><line style="stroke: #A80036; stroke-width: 1.5;" x1="158.5" x2="334.5" y1="284" y2="284"/><rect fill="none" height="6" style="stroke: #C82930; stroke-width: 1.0;" width="6" x="165.5" y="293.6973"/><text fill="#000000" font-family="sans-serif" font-size="11" lengthAdjust="spacingAndGlyphs" textLength="119" x="177.5" y="299.4727">CLTCSetList* stopWords</text><rect fill="none" height="6" style="stroke: #C82930; stroke-width: 1.0;" width="6" x="165.5" y="308.0918"/><text fill="#000000" font-family="sans-serif" font-size="11" lengthAdjust="spacingAndGlyphs" textLength="104" x="177.5" y="313.8672">bool deleteStopTable</text><rect fill="none" height="6" style="stroke: #C82930; stroke-width: 1.0;" width="6" x="165.5" y="322.4863"/><text fill="#000000" font-family="sans-serif" font-size="11" lengthAdjust="spacingAndGlyphs" textLength="152" x="177.5" y="328.2617">bool enablePositionIncrements</text><rect fill="none" height="6" style="stroke: #C82930; stroke-width: 1.0;" width="6" x="165.5" y="336.8809"/><text fill="#000000" font-family="sans-serif" font-size="11" lengthAdjust="spacingAndGlyphs" textLength="79" x="177.5" y="342.6563">bool ignoreCase</text><line style="stroke: #A80036; stroke-width: 1.5;" x1="158.5" x2="334.5" y1="349.5781" y2="349.5781"/><ellipse cx="168.5" cy="362.2754" fill="#84BE84" rx="3" ry="3" style="stroke: #038048; stroke-width: 1.0;"/><text fill="#000000" font-family="sans-serif" font-size="11" lengthAdjust="spacingAndGlyphs" textLength="66" x="177.5" y="365.0508">Token* next()</text><rect fill="#FEFECE" filter="url(#f1)" height="62.3945" style="stroke: #A80036; stroke-width: 1.5;" width="147" x="370.75" y="281"/><ellipse cx="385.75" cy="297" fill="#ADD1B2" rx="11" ry="11" style="stroke: #A80036; stroke-width: 1.0;"/><path d="M388.7344,301.0469 L388.7344,303.0625 Q387.2656,303.6406 385.4063,303.6406 Q382.7969,303.6406 381.3047,301.9688 Q379.8125,300.2969 379.8125,297.0469 Q379.8125,293.9844 381.3984,292.2578 Q382.9844,290.5313 385.6719,290.5313 Q387.6094,290.5313 389.3281,291.375 L388.3438,293.3281 Q386.8594,292.5469 385.6719,292.5469 Q384.0938,292.5469 383.0938,293.7266 Q382.0938,294.9063 382.0938,297.1094 Q382.0938,299.375 383,300.4922 Q383.9063,301.6094 385.6719,301.6094 Q386.6875,301.6094 388.7344,301.0469 Z "/><text fill="#000000" font-family="sans-serif" font-size="12" lengthAdjust="spacingAndGlyphs" textLength="115" x="399.75" y="301.6641">ISOLatin1AccentFilter</text><line style="stroke: #A80036; stroke-width: 1.5;" x1="371.75" x2="516.75" y1="313" y2="313"/><line style="stroke: #A80036; stroke-width: 1.5;" x1="371.75" x2="516.75" y1="321" y2="321"/><ellipse cx="381.75" cy="333.6973" fill="#84BE84" rx="3" ry="3" style="stroke: #038048; stroke-width: 1.0;"/><text fill="#000000" font-family="sans-serif" font-size="11" lengthAdjust="spacingAndGlyphs" textLength="66" x="390.75" y="336.4727">Token* next()</text><rect fill="#FEFECE" filter="url(#f1)" height="91.1836" style="stroke: #A80036; stroke-width: 1.5;" width="95" x="552.75" y="266.5"/><ellipse cx="567.75" cy="282.5" fill="#ADD1B2" rx="11" ry="11" style="stroke: #A80036; stroke-width: 1.0;"/><path d="M570.7344,286.5469 L570.7344,288.5625 Q569.2656,289.1406 567.4063,289.1406 Q564.7969,289.1406 563.3047,287.4688 Q561.8125,285.7969 561.8125,282.5469 Q561.8125,279.4844 563.3984,277.7578 Q564.9844,276.0313 567.6719,276.0313 Q569.6094,276.0313 571.3281,276.875 L570.3438,278.8281 Q568.8594,278.0469 567.6719,278.0469 Q566.0938,278.0469 565.0938,279.2266 Q564.0938,280.4063 564.0938,282.6094 Q564.0938,284.875 565,285.9922 Q565.9063,287.1094 567.6719,287.1094 Q568.6875,287.1094 570.7344,286.5469 Z "/><text fill="#000000" font-family="sans-serif" font-size="12" lengthAdjust="spacingAndGlyphs" textLength="63" x="581.75" y="287.1641">LengthFilter</text><line style="stroke: #A80036; stroke-width: 1.5;" x1="553.75" x2="646.75" y1="298.5" y2="298.5"/><rect fill="none" height="6" style="stroke: #C82930; stroke-width: 1.0;" width="6" x="560.75" y="308.1973"/><text fill="#000000" font-family="sans-serif" font-size="11" lengthAdjust="spacingAndGlyphs" textLength="55" x="572.75" y="313.9727">size_t _min</text><rect fill="none" height="6" style="stroke: #C82930; stroke-width: 1.0;" width="6" x="560.75" y="322.5918"/><text fill="#000000" font-family="sans-serif" font-size="11" lengthAdjust="spacingAndGlyphs" textLength="58" x="572.75" y="328.3672">size_t _max</text><line style="stroke: #A80036; stroke-width: 1.5;" x1="553.75" x2="646.75" y1="335.2891" y2="335.2891"/><ellipse cx="563.75" cy="347.9863" fill="#84BE84" rx="3" ry="3" style="stroke: #038048; stroke-width: 1.0;"/><text fill="#000000" font-family="sans-serif" font-size="11" lengthAdjust="spacingAndGlyphs" textLength="66" x="572.75" y="350.7617">Token* next()</text><rect fill="#FEFECE" filter="url(#f1)" height="105.5781" style="stroke: #A80036; stroke-width: 1.5;" width="198" x="683" y="259"/><ellipse cx="727.25" cy="275" fill="#ADD1B2" rx="11" ry="11" style="stroke: #A80036; stroke-width: 1.0;"/><path d="M730.2344,279.0469 L730.2344,281.0625 Q728.7656,281.6406 726.9063,281.6406 Q724.2969,281.6406 722.8047,279.9688 Q721.3125,278.2969 721.3125,275.0469 Q721.3125,271.9844 722.8984,270.2578 Q724.4844,268.5313 727.1719,268.5313 Q729.1094,268.5313 730.8281,269.375 L729.8438,271.3281 Q728.3594,270.5469 727.1719,270.5469 Q725.5938,270.5469 724.5938,271.7266 Q723.5938,272.9063 723.5938,275.1094 Q723.5938,277.375 724.5,278.4922 Q725.4063,279.6094 727.1719,279.6094 Q728.1875,279.6094 730.2344,279.0469 Z "/><text fill="#000000" font-family="sans-serif" font-size="12" lengthAdjust="spacingAndGlyphs" textLength="101" x="747.75" y="279.6641">CachingTokenFilter</text><line style="stroke: #A80036; stroke-width: 1.5;" x1="684" x2="880" y1="291" y2="291"/><rect fill="none" height="6" style="stroke: #C82930; stroke-width: 1.0;" width="6" x="691" y="300.6973"/><text fill="#000000" font-family="sans-serif" font-size="11" lengthAdjust="spacingAndGlyphs" textLength="112" x="703" y="306.4727">bool bCacheInitialized;</text><rect fill="none" height="6" style="stroke: #C82930; stroke-width: 1.0;" width="6" x="691" y="315.0918"/><text fill="#000000" font-family="sans-serif" font-size="11" lengthAdjust="spacingAndGlyphs" textLength="120" x="703" y="320.8672">std::list&lt;Token *&gt; cache;</text><rect fill="none" height="6" style="stroke: #C82930; stroke-width: 1.0;" width="6" x="691" y="329.4863"/><text fill="#000000" font-family="sans-serif" font-size="11" lengthAdjust="spacingAndGlyphs" textLength="172" x="703" y="335.2617">std::list&lt;Token *&gt;::iterator itCache;</text><line style="stroke: #A80036; stroke-width: 1.5;" x1="684" x2="880" y1="342.1836" y2="342.1836"/><ellipse cx="694" cy="354.8809" fill="#84BE84" rx="3" ry="3" style="stroke: #038048; stroke-width: 1.0;"/><text fill="#000000" font-family="sans-serif" font-size="11" lengthAdjust="spacingAndGlyphs" textLength="66" x="703" y="357.6563">Token* next()</text><rect fill="#FEFECE" filter="url(#f1)" height="62.3945" style="stroke: #A80036; stroke-width: 1.5;" width="107" x="541.75" y="130"/><ellipse cx="556.75" cy="146" fill="#ADD1B2" rx="11" ry="11" style="stroke: #A80036; stroke-width: 1.0;"/><path d="M559.7344,150.0469 L559.7344,152.0625 Q558.2656,152.6406 556.4063,152.6406 Q553.7969,152.6406 552.3047,150.9688 Q550.8125,149.2969 550.8125,146.0469 Q550.8125,142.9844 552.3984,141.2578 Q553.9844,139.5313 556.6719,139.5313 Q558.6094,139.5313 560.3281,140.375 L559.3438,142.3281 Q557.8594,141.5469 556.6719,141.5469 Q555.0938,141.5469 554.0938,142.7266 Q553.0938,143.9063 553.0938,146.1094 Q553.0938,148.375 554,149.4922 Q554.9063,150.6094 556.6719,150.6094 Q557.6875,150.6094 559.7344,150.0469 Z "/><text fill="#000000" font-family="sans-serif" font-size="12" lengthAdjust="spacingAndGlyphs" textLength="75" x="570.75" y="150.6641">StandardFilter</text><line style="stroke: #A80036; stroke-width: 1.5;" x1="542.75" x2="647.75" y1="162" y2="162"/><line style="stroke: #A80036; stroke-width: 1.5;" x1="542.75" x2="647.75" y1="170" y2="170"/><ellipse cx="552.75" cy="182.6973" fill="#84BE84" rx="3" ry="3" style="stroke: #038048; stroke-width: 1.0;"/><text fill="#000000" font-family="sans-serif" font-size="11" lengthAdjust="spacingAndGlyphs" textLength="66" x="561.75" y="185.4727">Token* next()</text><path d="M444,90.373 C444,103.754 444,117.792 444,129.729 " fill="none" style="stroke: #A80036; stroke-width: 1.0;"/><polygon fill="none" points="437,90.281,444,70.281,451,90.281,437,90.281" style="stroke: #A80036; stroke-width: 1.0;"/><path d="M361.886,177.354 C298.592,191.253 210.151,215.251 139,252 C124.133,259.678 109.323,270.482 96.8391,280.749 " fill="none" style="stroke: #A80036; stroke-width: 1.0;"/><polygon fill="none" points="360.481,170.496,381.499,173.193,363.387,184.191,360.481,170.496" style="stroke: #A80036; stroke-width: 1.0;"/><path d="M387.804,204.289 C368.122,219.1 345.645,236.015 324.477,251.944 " fill="none" style="stroke: #A80036; stroke-width: 1.0;"/><polygon fill="none" points="383.742,198.585,403.932,192.152,392.16,209.771,383.742,198.585" style="stroke: #A80036; stroke-width: 1.0;"/><path d="M444,212.236 C444,235.024 444,261.211 444,280.8925 " fill="none" style="stroke: #A80036; stroke-width: 1.0;"/><polygon fill="none" points="437,212.152,444,192.152,451,212.152,437,212.152" style="stroke: #A80036; stroke-width: 1.0;"/><path d="M490.065,205.998 C510.026,225.064 533.36,247.351 553.383,266.475 " fill="none" style="stroke: #A80036; stroke-width: 1.0;"/><polygon fill="none" points="485.197,211.028,475.569,192.152,494.867,200.904,485.197,211.028" style="stroke: #A80036; stroke-width: 1.0;"/><path d="M525.35,193.317 C567.39,209.957 619.321,231.222 665,252 C670.798,254.637 676.727,257.404 682.69,260.239 " fill="none" style="stroke: #A80036; stroke-width: 1.0;"/><polygon fill="none" points="522.537,199.733,506.487,185.898,527.662,186.705,522.537,199.733" style="stroke: #A80036; stroke-width: 1.0;"/><path d="M526.704,161 C531.613,161 536.521,161 541.43,161 " fill="none" style="stroke: #A80036; stroke-width: 1.0;"/><polygon fill="none" points="526.523,168,506.523,161,526.523,154,526.523,168" style="stroke: #A80036; stroke-width: 1.0;"/></g></svg>