<?xml version="1.0" encoding="UTF-8" standalone="yes"?><svg xmlns="http://www.w3.org/2000/svg" xmlns:xlink="http://www.w3.org/1999/xlink" height="260pt" style="width:426px;height:260px;" version="1.1" viewBox="0 0 426 260" width="426pt"><defs><filter height="300%" id="f1" width="300%" x="-1" y="-1"><feGaussianBlur result="blurOut" stdDeviation="2.0"/><feColorMatrix in="blurOut" result="blurOut2" type="matrix" values="0 0 0 0 0 0 0 0 0 0 0 0 0 0 0 0 0 0 .4 0"/><feOffset dx="4.0" dy="4.0" in="blurOut2" result="blurOut3"/><feBlend in="SourceGraphic" in2="blurOut3" mode="normal"/></filter></defs><g><rect fill="#FEFECE" filter="url(#f1)" height="48" style="stroke: #A80036; stroke-width: 1.5;" width="105" x="312" y="37"/><ellipse cx="327" cy="53" fill="#ADD1B2" rx="11" ry="11" style="stroke: #A80036; stroke-width: 1.0;"/><path d="M329.9844,57.0469 L329.9844,59.0625 Q328.5156,59.6406 326.6563,59.6406 Q324.0469,59.6406 322.5547,57.9688 Q321.0625,56.2969 321.0625,53.0469 Q321.0625,49.9844 322.6484,48.2578 Q324.2344,46.5313 326.9219,46.5313 Q328.8594,46.5313 330.5781,47.375 L329.5938,49.3281 Q328.1094,48.5469 326.9219,48.5469 Q325.3438,48.5469 324.3438,49.7266 Q323.3438,50.9063 323.3438,53.1094 Q323.3438,55.375 324.25,56.4922 Q325.1563,57.6094 326.9219,57.6094 Q327.9375,57.6094 329.9844,57.0469 Z "/><text fill="#000000" font-family="sans-serif" font-size="12" lengthAdjust="spacingAndGlyphs" textLength="73" x="341" y="57.6641">LUCENE_BASE</text><line style="stroke: #A80036; stroke-width: 1.5;" x1="313" x2="416" y1="69" y2="69"/><line style="stroke: #A80036; stroke-width: 1.5;" x1="313" x2="416" y1="77" y2="77"/><rect fill="#FEFECE" filter="url(#f1)" height="76.7891" style="stroke: #A80036; stroke-width: 1.5;" width="105" x="312" y="174.5"/><ellipse cx="327" cy="190.5" fill="#ADD1B2" rx="11" ry="11" style="stroke: #A80036; stroke-width: 1.0;"/><path d="M329.9844,194.5469 L329.9844,196.5625 Q328.5156,197.1406 326.6563,197.1406 Q324.0469,197.1406 322.5547,195.4688 Q321.0625,193.7969 321.0625,190.5469 Q321.0625,187.4844 322.6484,185.7578 Q324.2344,184.0313 326.9219,184.0313 Q328.8594,184.0313 330.5781,184.875 L329.5938,186.8281 Q328.1094,186.0469 326.9219,186.0469 Q325.3438,186.0469 324.3438,187.2266 Q323.3438,188.4063 323.3438,190.6094 Q323.3438,192.875 324.25,193.9922 Q325.1563,195.1094 326.9219,195.1094 Q327.9375,195.1094 329.9844,194.5469 Z "/><text fill="#000000" font-family="sans-serif" font-size="12" lengthAdjust="spacingAndGlyphs" textLength="73" x="341" y="195.1641">NumberTools</text><line style="stroke: #A80036; stroke-width: 1.5;" x1="313" x2="416" y1="206.5" y2="206.5"/><line style="stroke: #A80036; stroke-width: 1.5;" x1="313" x2="416" y1="214.5" y2="214.5"/><ellipse cx="323" cy="227.1973" fill="#84BE84" rx="3" ry="3" style="stroke: #038048; stroke-width: 1.0;"/><text fill="#000000" font-family="sans-serif" font-size="11" lengthAdjust="spacingAndGlyphs" textLength="68" x="332" y="229.9727">longToString()</text><ellipse cx="323" cy="241.5918" fill="#84BE84" rx="3" ry="3" style="stroke: #038048; stroke-width: 1.0;"/><text fill="#000000" font-family="sans-serif" font-size="11" lengthAdjust="spacingAndGlyphs" textLength="69" x="332" y="244.3672">stringToLong()</text><rect fill="#FEFECE" filter="url(#f1)" height="105.5781" style="stroke: #A80036; stroke-width: 1.5;" width="97" x="6" y="8"/><ellipse cx="26.85" cy="24" fill="#ADD1B2" rx="11" ry="11" style="stroke: #A80036; stroke-width: 1.0;"/><path d="M29.8344,28.0469 L29.8344,30.0625 Q28.3656,30.6406 26.5063,30.6406 Q23.8969,30.6406 22.4047,28.9688 Q20.9125,27.2969 20.9125,24.0469 Q20.9125,20.9844 22.4984,19.2578 Q24.0844,17.5313 26.7719,17.5313 Q28.7094,17.5313 30.4281,18.375 L29.4438,20.3281 Q27.9594,19.5469 26.7719,19.5469 Q25.1938,19.5469 24.1938,20.7266 Q23.1938,21.9063 23.1938,24.1094 Q23.1938,26.375 24.1,27.4922 Q25.0063,28.6094 26.7719,28.6094 Q27.7875,28.6094 29.8344,28.0469 Z "/><text fill="#000000" font-family="sans-serif" font-size="12" lengthAdjust="spacingAndGlyphs" textLength="52" x="42.15" y="28.6641">DateTools</text><line style="stroke: #A80036; stroke-width: 1.5;" x1="7" x2="102" y1="40" y2="40"/><line style="stroke: #A80036; stroke-width: 1.5;" x1="7" x2="102" y1="48" y2="48"/><ellipse cx="17" cy="60.6973" fill="#84BE84" rx="3" ry="3" style="stroke: #038048; stroke-width: 1.0;"/><text fill="#000000" font-family="sans-serif" font-size="11" lengthAdjust="spacingAndGlyphs" textLength="70" x="26" y="63.4727">timeToString()</text><ellipse cx="17" cy="75.0918" fill="#84BE84" rx="3" ry="3" style="stroke: #038048; stroke-width: 1.0;"/><text fill="#000000" font-family="sans-serif" font-size="11" lengthAdjust="spacingAndGlyphs" textLength="71" x="26" y="77.8672">stringToTime()</text><ellipse cx="17" cy="89.4863" fill="#84BE84" rx="3" ry="3" style="stroke: #038048; stroke-width: 1.0;"/><text fill="#000000" font-family="sans-serif" font-size="11" lengthAdjust="spacingAndGlyphs" textLength="70" x="26" y="92.2617">stringToDate()</text><ellipse cx="17" cy="103.8809" fill="#84BE84" rx="3" ry="3" style="stroke: #038048; stroke-width: 1.0;"/><text fill="#000000" font-family="sans-serif" font-size="11" lengthAdjust="spacingAndGlyphs" textLength="47" x="26" y="106.6563">getTime()</text><polygon fill="#FBFB77" filter="url(#f1)" points="138.25,47.5,138.25,74.5117,276.25,74.5117,276.25,57.5,266.25,47.5,138.25,47.5" style="stroke: #A80036; stroke-width: 1.0;"/><polygon fill="#FBFB77" points="138.25,47.5,138.25,57,102.6602,61,138.25,65,138.25,74.5117,276.25,74.5117,276.25,57.5,266.25,47.5,138.25,47.5" style="stroke: #A80036; stroke-width: 1.0;"/><line style="stroke: #A80036; stroke-width: 1.0;" x1="266.25" x2="266.25" y1="47.5" y2="57.5"/><line style="stroke: #A80036; stroke-width: 1.0;" x1="276.25" x2="266.25" y1="57.5" y2="57.5"/><text fill="#000000" font-family="sans-serif" font-size="13" lengthAdjust="spacingAndGlyphs" textLength="117" x="144.25" y="66.0586">用于日期格式的转换</text><polygon fill="#FBFB77" filter="url(#f1)" points="92,199.5,92,226.5117,277,226.5117,277,209.5,267,199.5,92,199.5" style="stroke: #A80036; stroke-width: 1.0;"/><polygon fill="#FBFB77" points="92,199.5,92,226.5117,277,226.5117,277,217.5,311.932,213,277,209.5,277,209.5,267,199.5,92,199.5" style="stroke: #A80036; stroke-width: 1.0;"/><line style="stroke: #A80036; stroke-width: 1.0;" x1="267" x2="267" y1="199.5" y2="209.5"/><line style="stroke: #A80036; stroke-width: 1.0;" x1="277" x2="267" y1="209.5" y2="209.5"/><text fill="#000000" font-family="sans-serif" font-size="13" lengthAdjust="spacingAndGlyphs" textLength="164" x="98" y="218.0586">用于long和String的互相转换</text><path d="M364.25,105.116 C364.25,126.96 364.25,153.2369 364.25,174.2705 " fill="none" style="stroke: #A80036; stroke-width: 1.0;"/><polygon fill="none" points="357.25,105.109,364.25,85.109,371.25,105.109,357.25,105.109" style="stroke: #A80036; stroke-width: 1.0;"/></g></svg>